<?xml version="1.0" encoding="utf-8"?>
<!-- Generator: Adobe Illustrator 24.1.0, SVG Export Plug-In . SVG Version: 6.00 Build 0)  -->
<svg version="1.1" id="Layer_1" xmlns="http://www.w3.org/2000/svg" xmlns:xlink="http://www.w3.org/1999/xlink" x="0px" y="0px"
	 viewBox="0 0 700 530" style="enable-background:new 0 0 700 530;" xml:space="preserve">
<style type="text/css">
	.st0{fill-rule:evenodd;clip-rule:evenodd;fill:#E1E1E1;}
	.st1{fill:#FFFFFF;stroke:#231F20;stroke-width:0.3187;stroke-linejoin:round;}
	.st2{fill:#D20058;}
	.st3{fill:#82294C;}
	.st4{fill:#FF4F5B;}
	.st5{fill:none;stroke:#FFFFFF;stroke-width:0.35;stroke-miterlimit:10;}
	.st6{fill:#FFFFFF;stroke:#231F20;stroke-width:0.3523;stroke-linejoin:round;}
	.st7{stroke:#000000;stroke-width:0.3523;stroke-linejoin:round;}
	.st8{fill:none;stroke:#231F20;stroke-width:0.3523;stroke-linejoin:round;}
	.st9{fill:none;stroke:#FFFFFF;stroke-width:0.3523;stroke-linejoin:round;}
	.st10{fill:#FFFFFF;stroke:#231F20;stroke-width:0.3916;stroke-linejoin:round;}
	.st11{fill:#1A2E35;}
	.st12{fill:#FFFFFF;stroke:#231F20;stroke-width:0.8266;stroke-linejoin:round;}
	.st13{fill:#FEDB00;}
	.st14{fill:#FFFFFF;stroke:#231F20;stroke-width:0.3328;stroke-linejoin:round;}
	.st15{fill:#D20258;}
	.st16{fill:none;stroke:#FFFFFF;stroke-width:0.3805;stroke-miterlimit:10;}
	.st17{fill:#C8B851;}
	.st18{fill:none;stroke:#FFFFFF;stroke-width:0.3328;stroke-miterlimit:10;}
	.st19{fill:none;stroke:#231F20;stroke-width:0.3328;stroke-linejoin:round;}
	.st20{fill:#FFFFFF;stroke:#231F20;stroke-width:0.3894;stroke-linejoin:round;}
	.st21{fill:#FFFFFF;stroke:#231F20;stroke-width:0.3712;stroke-linejoin:round;}
	.st22{fill:none;stroke:#FFFFFF;stroke-width:0.3712;stroke-miterlimit:10;}
	.st23{fill:none;stroke:#000000;stroke-width:0.3712;stroke-miterlimit:10;}
	.st24{fill:#FFFFFF;stroke:#231F20;stroke-width:0.441;stroke-linejoin:round;}
	.st25{fill:none;stroke:#FFFFFF;stroke-width:0.4173;stroke-miterlimit:10;}
	.st26{fill:none;stroke:#000000;stroke-width:2.2209;stroke-linecap:round;stroke-linejoin:round;}
	.st27{fill:none;stroke:#000000;stroke-width:2.2209;stroke-linecap:round;stroke-linejoin:round;stroke-dasharray:7.2321,7.2321;}
	.st28{fill:none;stroke:#000000;stroke-width:2.2209;stroke-linecap:round;stroke-linejoin:round;stroke-dasharray:7.7151,7.7151;}
	.st29{fill:none;stroke:#000000;stroke-width:2.2209;stroke-linecap:round;stroke-linejoin:round;stroke-dasharray:7.2891,7.2891;}
	
		.st30{fill-rule:evenodd;clip-rule:evenodd;fill:none;stroke:#000000;stroke-width:2.2209;stroke-linecap:round;stroke-linejoin:round;stroke-miterlimit:10;stroke-dasharray:7.4029;}
	.st31{fill-rule:evenodd;clip-rule:evenodd;fill:#FFFFFF;stroke:#231F20;stroke-width:1.2727;stroke-linejoin:round;}
	.st32{clip-path:url(#SVGID_2_);fill:#FFFFFF;stroke:#231F20;stroke-width:1.2727;stroke-linejoin:round;}
	.st33{fill-rule:evenodd;clip-rule:evenodd;fill:#D20058;}
</style>
<g>
	<polygon class="st0" points="104.97,237.02 561.85,153.66 601.08,421.73 134.39,454.43 	"/>
	<g>
		<polygon class="st1" points="453.62,482.92 454.11,502.79 468.57,503.35 470.57,482.22 457.45,482.1 		"/>
		<polygon class="st1" points="415.87,483.43 414.17,503.28 429.18,505.21 430.39,481.49 		"/>
		<g>
			<g>
				<g>
					<g>
						<g>
							<path d="M486.32,335.19c0,0,2.61,10.12,1.67,22.45c-0.14,1.87-2.78,56.13-2.78,56.13l-13.43,81.52l-20.82-1.94l5.81-81.57
								l-0.88-41.43l-1.78,0.39c0,0-10,41.73-10.97,50.3c-0.87,7.7-12.03,74.74-12.03,74.74l-20.57-4.11l6.34-69.58l7.39-70.98
								l2.78-20.66L486.32,335.19z"/>
						</g>
					</g>
				</g>
			</g>
		</g>
		<g>
			<g>
				<g>
					<g>
						<path class="st2" d="M490.7,248.51c0,0-24.47-3.22-25.38-3.32c-6.75,4.65-12.33,4.48-18.95-0.32l-26.98,6l9.33,34.88
							l-4.71,40.76l-0.13,11.96l16.49,5.78l30.2-0.43l21.63-4.5l-1.71-13.92c0,0-2.35-37.73-2.68-43.5L490.7,248.51z"/>
					</g>
				</g>
				<g>
					<g>
						<polygon class="st3" points="514.39,316.17 508.21,305.27 503.86,278.04 490.7,248.51 487.81,281.89 490.06,308.54 
							490.49,325.39 508.94,325.97 						"/>
					</g>
				</g>
				<g>
					<g>
						<g>
							<g>
								<polygon class="st4" points="443.5,244.77 443.5,244.77 443.51,244.77 								"/>
							</g>
						</g>
					</g>
				</g>
			</g>
		</g>
		<g>
			<g>
				<g>
					<path class="st3" d="M447.03,312.08c0,0-25.59,10.45-28.75,11.09l-18.17,0.29l-0.95-17.59c1.24-3.84,20.22-55.02,20.22-55.02
						l9.33,34.88l-6.98,19.52l22.11-6.11L447.03,312.08z"/>
				</g>
			</g>
		</g>
		<line class="st5" x1="442.84" y1="299.56" x2="411.46" y2="308.26"/>
		<path class="st5" d="M503.86,278.04"/>
		<line class="st5" x1="442.2" y1="341.88" x2="447.98" y2="328.07"/>
		<line class="st5" x1="437.06" y1="339.95" x2="442.9" y2="333.53"/>
		<polygon class="st6" points="444.93,245.35 456.97,258.04 466.77,245.67 465.97,229.77 444.77,231.37 		"/>
		<g>
			<polygon class="st6" points="451.39,240.92 458.78,240.92 467.71,234.59 469.91,225.28 472.7,224.89 475.77,214.82 
				471.54,213.57 468.86,201.86 455.23,189.29 443.42,194.66 436.03,200.13 435.65,208.29 436.61,213.67 432.87,216.26 
				436.71,225.18 439.78,225.95 442.94,235.84 			"/>
			<path class="st7" d="M453.93,202.05l-3.79,5.71l-8.16,0.05l-3.26,2.74l0.29,3.98l-2.11,1.15l-3.89-10.22l3.02-10.03
				c0,0,7.49-4.46,9.17-7.05c0,0,5.57-1.92,7.49-1.92c1.92,0,6.72-0.19,7.73,3.02l5.52-0.24l8.78,9.45l-2.64,15.6l-2.45-0.43
				l-0.1-5.09L453.93,202.05z"/>
			<path class="st8" d="M452.06,216.9c0,0,3.33-1.54,5.76,0"/>
			<path class="st8" d="M440.35,218.46c0,0,0.67-3.36,3.93-3.07c3.26,0.29,5.28,0.29,5.28,0.29s2.3,0,2.88,2.5
				c0.58,2.5-1.06,7.29-5.85,7.49S440.07,221.25,440.35,218.46z"/>
			<path class="st8" d="M469.44,218.46c0,0-0.67-3.36-3.93-3.07c-3.26,0.29-5.28,0.29-5.28,0.29s-2.3,0-2.88,2.5
				c-0.58,2.5,1.06,7.29,5.85,7.49C468,225.85,469.72,221.25,469.44,218.46z"/>
			<polyline class="st8" points="455.97,217.73 457.24,225.41 459.29,228.09 456.99,228.03 455.01,228.99 453.82,228.99 
				452.09,228.09 450.14,228.32 			"/>
			<polyline class="st8" points="448.58,231.71 449.34,232.6 453.73,232.6 454.88,233.63 455.9,232.64 460.38,232.51 461.02,231.8 
							"/>
			<line class="st8" x1="452.7" y1="234.97" x2="457.21" y2="234.97"/>
			<polyline class="st8" points="472.92,218.5 474.1,215.84 472.47,215.87 471.67,219.68 			"/>
			<polyline class="st8" points="437.63,220.45 436.55,216.8 434.95,216.86 436.13,219.33 			"/>
			<polyline class="st9" points="451.92,196.92 448.65,203.88 439.73,205.17 436.95,208.58 			"/>
			<polyline class="st9" points="451.82,193.08 447.41,199.85 440.79,199.61 437.33,202.15 			"/>
		</g>
		<g>
			<g>
				<g>
					<g>
						<path class="st10" d="M446.42,309.78c-0.05,0.02-0.06,0.02-0.09,0.03C446.38,309.8,446.42,309.78,446.42,309.78z"/>
					</g>
				</g>
				<g>
					<g>
						<path class="st10" d="M446.34,309.81C446.3,309.82,446.29,309.83,446.34,309.81L446.34,309.81z"/>
					</g>
				</g>
				<g>
					<g>
						<path class="st10" d="M467.77,289.42l-10.29,1.14l-13.15,9.32l2.1,9.9c0.66-0.22,5.83-2.35,7.04-3.11
							c1.21-0.76,0.98-3.03,0.98-3.03l1.74,0.83c0,0,1.06,2.27,1.89,4.24c0.83,1.97,2.88,0.61,2.88,0.61l0.15-2.12
							c1.14,1.06,2.72,0,2.72,0l0.3-7.8l-3.1-3.56l3.41,0.15c0,0,2.03,1.04,4.15,3.01c2.12,1.97,4.93-0.43,4.93-0.43l-6.21-6.36
							l0.98,0.38c0,0,3.94,2.42,5.52,2.42s1.82-1.96,1.82-1.96L467.77,289.42z"/>
					</g>
				</g>
			</g>
			<g>
				<g>
					<g>
						<polygon class="st11" points="470.29,298.19 457.08,317.31 485.01,312.9 499.47,292.53 						"/>
					</g>
					<g>
						<path d="M456.77,317.51l13.44-19.45l0.06-0.01l29.54-5.73l-14.71,20.73l-0.06,0.01L456.77,317.51z M470.38,298.32
							l-12.98,18.79l27.52-4.34l14.21-20.02L470.38,298.32z"/>
					</g>
				</g>
				<g>
					<g>
						<path class="st10" d="M494.76,301.21c0.08,0.15,0.35,0.4,0,1.56c-0.35,1.15-0.69,1.67-0.69,1.67v5.25l-1.21,3.06h1.03
							c0,0,1.34,1.73,0.53,3.46s-1.79,2.6-3.63,3.49s-4.61,1.18-4.61,1.18l-12.57-3l-9.69-3.34c0,0-0.52-0.17-0.52-0.69l-1.61-1.33
							c0,0-0.12-0.98,1.38-1.47c1.5-0.49,5.71,0.95,5.94,1.07c0.23,0.12,3.58,0.58,3.58,0.58s-3.86-1.73-6.75-2.42
							c0,0-1.1-3.58,2.6-2.94c3.69,0.63,7.84,2.6,7.84,2.6l2.65,1.12l1.21-0.55l-0.86-1.44c0,0-4.04-3.96-4.09-4.14
							c-0.06-0.18-1.1-1.4-0.17-2.03c0.92-0.63,3.29-0.46,4.44,0.69c1.15,1.15,5.25,5.07,5.25,5.07s0.4-0.17,1.67-0.17
							c1.27,0,2.95-1.51,3.09-1.96s0.14-2.77,1.35-4.15C492.1,300.98,494.24,300.29,494.76,301.21z"/>
					</g>
				</g>
			</g>
			<polyline class="st10" points="455.87,298.6 459.98,300.36 461.11,307.2 			"/>
			<line class="st10" x1="467.31" y1="292.22" x2="460.17" y2="293.33"/>
		</g>
		<line class="st5" x1="496.23" y1="310.84" x2="506.4" y2="306.48"/>
		<line class="st5" x1="501.07" y1="305.27" x2="504.22" y2="301.4"/>
		<polygon class="st2" points="412.72,501.34 402.63,507.78 386.05,510.01 384.64,513.96 393.11,518.66 415.73,518.59 
			418.79,515.62 419.73,518.61 430.97,518.79 429.33,503.72 		"/>
		<polygon class="st2" points="470.79,502.63 482.79,512.06 498.52,517.77 499.05,521.93 489.78,524.72 467.69,519.82 
			465.33,516.28 463.78,518.99 452.76,516.78 452.66,501.1 		"/>
	</g>
	<g>
		<polygon class="st12" points="217.59,489.1 218.8,500.39 231.71,498.37 230.9,486.07 219,488.29 		"/>
		<polygon class="st12" points="166.57,489.1 166.37,500.39 180.08,498.17 181.89,486.48 		"/>
		<polygon class="st13" points="179.35,496.45 193.73,504.28 211.4,507.52 212.7,511.83 203.38,516.44 179.13,515.2 176,511.86 
			174.84,515.01 162.78,514.63 165.31,498.56 		"/>
		<g>
			<polygon points="158.66,319.65 155.22,339.26 160.62,399.09 156.68,417.1 164.75,493.53 187.14,494.95 191.51,399.09 
				191.76,360.11 201.81,399.09 202.4,410.45 213.16,493.74 234.53,491.32 232.22,398.6 225.1,322.03 			"/>
			<polygon class="st14" points="190.9,337.67 210.15,337.55 228.66,330.56 230.26,328.23 204.02,326.39 186.36,328.35 			"/>
			<polygon class="st14" points="184.55,228.25 181.49,242.44 203.27,245.06 204.94,227.57 			"/>
			<g>
				<g>
					<polygon class="st13" points="223.58,242.02 217.8,240.12 190.97,241.38 163.22,237.44 158.28,238.46 159.4,330.47 
						177.73,330.12 209.23,326.07 225.1,322.03 					"/>
					<polygon class="st15" points="191.36,241.51 163.22,237.44 185.35,254.94 					"/>
					<polygon class="st15" points="194.2,255.89 217.8,240.12 190.97,241.38 					"/>
					<polyline class="st16" points="190.96,328.35 190.91,293.75 191.36,241.51 					"/>
					<g>
						<polygon class="st17" points="158.28,238.46 149.76,247.15 129.88,313.27 133.32,330.76 192.17,340.25 191.84,329.13 
							152.78,314.71 158.83,287.81 						"/>
						<polygon class="st17" points="223.66,241.97 252.4,308.52 246.93,321.45 244.12,323.76 226.1,322.46 229.14,310.8 
							223.61,279.86 						"/>
					</g>
					<line class="st16" x1="179.9" y1="265.26" x2="164.75" y2="264.68"/>
				</g>
			</g>
			<g>
				<polygon class="st12" points="178.59,317.96 161.32,319.05 160.96,321.78 178.22,330.14 183.31,322.69 				"/>
				<polygon class="st12" points="259.83,323.78 269.83,281.79 267.47,278.34 181.86,275.8 177.86,278.34 178.77,326.14 				"/>
				<polygon class="st12" points="259.83,323.78 260.01,327.05 178.22,330.14 178.77,326.14 				"/>
				<g>
					
						<ellipse transform="matrix(0.0916 -0.9958 0.9958 0.0916 -87.5305 501.2424)" class="st13" cx="230.97" cy="298.6" rx="4.53" ry="4.65"/>
					<path class="st13" d="M230.54,308.78c0,0,2.54-0.17,2.71-2.97c0,0-1.75,0.17-2.45,1.84c0,0-1.49-2.1-2.36-2.01
						C228.44,305.64,228.44,307.91,230.54,308.78z"/>
				</g>
			</g>
			<g>
				<polygon class="st14" points="212.54,211.34 216.02,213.13 211.91,222.37 208.89,222.51 205.47,231.94 197,236.66 
					189.17,235.78 181.86,229.87 179.5,219.93 176.17,218.59 173.89,209.88 177.07,207.52 180.77,200.05 198.12,196.25 
					211.94,197.05 212.81,207.21 				"/>
				<path d="M194.59,200.24l-2.6,2.72l-2.62-1.91l-1.76,2.34l-3-0.14l-1.76,2.79l-2.71-1.2l-0.11,3.69l-2.09,0.93l-4.1-5.64
					l-1.11-5.61l3.41-4.1l-0.28-5.54l4.7-3.08l4.85-0.24l2.37-3.44l5.14,0.92l3.67-0.52l1.16-0.35l1.71,1.34l3.71-0.65
					c0,0,3.98,2.1,4.97,4.18l3.19-0.33l4.07,3.23l1.95,3.91l-0.67,2.44l0.57,4.93l-2.81,4.33l0.21,3.71l-2.47,3.59l-1.97-0.93
					l0.1-5.09l-2.67-0.06l-0.08-3.22l-3.93,0.05l-2.08-3l-3.05,0.88L194.59,200.24z"/>
				<path class="st18" d="M191.14,192.01c0,0-3.21,0.84-1.56,4.41"/>
				<path class="st18" d="M185.49,191.07c0,0-0.22,2.89,1.37,3.87"/>
				<path class="st18" d="M185.23,196.82c0,0,0.67,2.06,3.39,2.44"/>
				<polyline class="st19" points="191.95,213.37 188.44,211.84 181.47,211.94 				"/>
				<path class="st19" d="M206.65,212.3l-8.05-0.38l-2.29,1.72l0.35,6.04l1.36,3.36c0,0-3.45,0.74-3.95,1.7c0,0-4.26-2.31-5.2-1.8"
					/>
				<polyline class="st19" points="177.74,214.24 177.6,210.58 175.54,210.37 176.71,213.25 				"/>
				<polyline class="st19" points="210.87,217.03 212.42,213.64 213.86,213.94 212.98,215.84 				"/>
				<polyline class="st19" points="187.66,226.92 189.2,227.97 198.83,227.87 200.34,226.9 				"/>
				<line class="st19" x1="191.03" y1="230.12" x2="197.57" y2="229.7"/>
				<line class="st19" x1="188.7" y1="224.42" x2="187.77" y2="225.89"/>
				<line class="st19" x1="190.11" y1="225.43" x2="189.92" y2="226.34"/>
				<line class="st19" x1="191.63" y1="225.4" x2="191.51" y2="226.37"/>
				<line class="st19" x1="193.55" y1="225.51" x2="193.55" y2="226.4"/>
				<line class="st19" x1="195.09" y1="225.61" x2="194.94" y2="226.39"/>
				<line class="st19" x1="196.67" y1="225.58" x2="197.34" y2="226.75"/>
				<line class="st19" x1="198.77" y1="225.22" x2="199.26" y2="226.42"/>
				<line class="st19" x1="185.77" y1="224.78" x2="185.89" y2="226.98"/>
				<line class="st19" x1="183.9" y1="225.04" x2="184.55" y2="228.25"/>
				<line class="st19" x1="181.73" y1="221.8" x2="182.07" y2="223.72"/>
				<line class="st19" x1="182.05" y1="224.48" x2="182.14" y2="225.61"/>
				<line class="st19" x1="182.61" y1="226.62" x2="182.84" y2="228.74"/>
				<line class="st19" x1="185.2" y1="229.24" x2="185.43" y2="230.85"/>
				<line class="st19" x1="186.64" y1="228.21" x2="186.71" y2="230.1"/>
				<line class="st19" x1="186.93" y1="231.15" x2="187.09" y2="232.27"/>
				<line class="st19" x1="187.99" y1="230.17" x2="188.24" y2="232.8"/>
				<line class="st19" x1="189.77" y1="231.95" x2="189.67" y2="233.49"/>
				<line class="st19" x1="191.52" y1="233.1" x2="191.48" y2="234.62"/>
				<line class="st19" x1="193.74" y1="230.88" x2="193.72" y2="232.09"/>
				<line class="st19" x1="195.05" y1="231.14" x2="195.11" y2="232.02"/>
				<line class="st19" x1="193.02" y1="233.39" x2="193.36" y2="234.93"/>
				<line class="st19" x1="195.26" y1="234.02" x2="195.52" y2="234.94"/>
				<line class="st19" x1="197.66" y1="232.99" x2="197.66" y2="234.82"/>
				<line class="st19" x1="199.32" y1="231.74" x2="199.47" y2="233.24"/>
				<line class="st19" x1="201.42" y1="230.04" x2="201.31" y2="232.34"/>
				<line class="st19" x1="201.46" y1="226.74" x2="201.5" y2="227.87"/>
				<line class="st19" x1="203.61" y1="227.57" x2="203.34" y2="230.15"/>
				<line class="st19" x1="203.97" y1="223.4" x2="203.84" y2="225.58"/>
				<line class="st19" x1="206.47" y1="221.33" x2="206.02" y2="223.55"/>
				<line class="st19" x1="205.44" y1="225.28" x2="204.94" y2="227.57"/>
				<line class="st19" x1="207.38" y1="223.74" x2="206.86" y2="225.91"/>
				<line class="st19" x1="205" y1="229.34" x2="204.75" y2="230.27"/>
			</g>
			<polyline class="st14" points="197.03,337.67 209.04,334.36 212.97,331.54 211.62,329.21 199.85,330.68 			"/>
		</g>
		<polygon class="st13" points="231.85,496.93 246.24,504.76 263.9,508.01 265.21,512.31 255.89,516.92 231.63,515.68 
			228.51,512.34 227.35,515.49 215.29,515.11 217.82,499.04 		"/>
	</g>
	<g>
		<polygon points="281.84,283.99 293.02,281.84 295.14,284.41 300.53,311.02 287.28,312.23 280.49,286.08 		"/>
		<g>
			<g>
				<g>
					<g>
						<g>
							<path class="st17" d="M305.91,263.56c0,0-2.2,46.67-2.15,45.71c0.05-0.95-16.4-6.18-16.4-6.18l1.92,13.83
								c0,0,34.4,15.56,35.48,14.73c0.23-0.18,17.19,5.87,17.19,5.87c4.99-15.34-29.27-78.26-29.27-78.26L305.91,263.56z"/>
						</g>
					</g>
				</g>
				<g>
					<g>
						<g>
							<g>
								<g>
									<g>
										<g>
											<g>
												<g>
													<g>
														<g>
															<g>
																<g>
																	<g>
																		<g>
																			<g>
																				<g>
																					<g>
																						<g>
																							<g>
																								<g>
																									<path class="st2" d="M308.58,486.79l-2.34,19.61c0,0-22.52,6.27-22.74,9.92l37.24,0.1l-0.02-2.72
																										l-1.56-9.3l-2.3-18.06L308.58,486.79z"/>
																								</g>
																							</g>
																						</g>
																					</g>
																				</g>
																			</g>
																		</g>
																	</g>
																</g>
															</g>
														</g>
													</g>
												</g>
											</g>
										</g>
									</g>
								</g>
							</g>
						</g>
					</g>
				</g>
				<g>
					<g>
						<g>
							<g>
								<g>
									<g>
										<g>
											<g>
												<g>
													<g>
														<g>
															<g>
																<g>
																	<g>
																		<g>
																			<g>
																				<g>
																					<g>
																						<g>
																							<g>
																								<g>
																									<path class="st2" d="M350.22,487.08l1.57,20.4c0,0-22.15,5.15-22.38,8.73l36.59,0.32l0-2.68l-2.09-6.28
																										l-1.54-20.62L350.22,487.08z"/>
																								</g>
																							</g>
																						</g>
																					</g>
																				</g>
																			</g>
																		</g>
																	</g>
																</g>
															</g>
														</g>
													</g>
												</g>
											</g>
										</g>
									</g>
								</g>
							</g>
						</g>
					</g>
					<g>
						<g>
							<g>
								<g>
									<g>
										<g>
											<g>
												<g>
													<g>
														<g>
															<g>
																<g>
																	<g>
																		<g>
																			<g>
																				<g>
																					<g>
																						<g>
																							<g>
																								<g>
																									<g>
																										<path class="st2" d="M360.07,502.83c0.72,0.2,1.22,1.02,1.05,1.75c-0.17,0.73-1,1.25-1.72,1.06
																											c-0.73-0.19-1.35-1.15-1.1-1.86c0.25-0.71,1.25-1.26,1.92-0.9"/>
																									</g>
																								</g>
																							</g>
																						</g>
																					</g>
																				</g>
																			</g>
																		</g>
																	</g>
																</g>
															</g>
														</g>
													</g>
												</g>
											</g>
										</g>
									</g>
								</g>
							</g>
						</g>
					</g>
				</g>
				<g>
					<g>
						<g>
							<g>
								<g>
									<path class="st20" d="M321.46,329.01c0,0-22.09,26.21-22.39,45.23c-0.3,19.02,3.77,55.32,6,88.84
										c2.05,30.74,1.17,43.32,1.17,43.32l14.05,1.17c0,0,2.65-22.57,2.34-41.28c-0.3-18.71,0.19-47.06,0.19-47.06
										c1.8-20.58,4.64-32.94,7.63-39.17c0,0,8.29-9.86,8.9-23.38c0.61-13.52-4.18-25.14-4.18-25.14L321.46,329.01z"/>
								</g>
							</g>
						</g>
					</g>
				</g>
				<g>
					<g>
						<g>
							<g>
								<g>
									<path class="st20" d="M318.73,365.94c0.33,1.03,13.31,38.84,17.66,57.33c4.35,18.49,8.81,31.51,9.66,46.54
										c0.98,17.3,5.75,37.67,5.75,37.67l12.11,0.1c0,0-0.39-35.5-3.4-60.5c-3.01-24.99-7.35-55.81-6.69-65.05
										c0.67-9.24-4.34-21.19-6.68-34.14c-2.34-12.95-0.72-15.84-0.72-15.84l-18.15-0.82L318.73,365.94z"/>
								</g>
							</g>
						</g>
					</g>
				</g>
				<g>
					<g>
						<g>
							<g>
								<path class="st2" d="M350.14,259.12l-37.47,0.13l-11.25,32.23l8.04,27.28l-19.93,87.05l18.93,5.37
									c3.52,0.43,29.7,1.78,33.21,1.25l23.71-6.15l-11.39-71.07l-8.66-13.25c0,0,9.89-26.32,11.98-34.83L350.14,259.12z"/>
							</g>
						</g>
					</g>
				</g>
				<path class="st13" d="M379.56,304.04c0,0-4.14-18.14-7.1-24.29c-2.92-6.07-9.27-16.2-9.27-16.2
					c-0.37-0.43-13.04-4.43-13.04-4.43c-3.52-0.01-1.28,1.53-1.42,2.22l6.92,31.16l6.74,20c0,0-0.28,44.5-0.54,44.37l11.16,0.94
					l6.32-28.64l2.69-15.06L379.56,304.04z"/>
				<polygon class="st3" points="349.12,409.65 352.19,379.21 360.93,406.47 				"/>
				<polygon class="st20" points="324.39,248.36 325.22,258.49 321.88,258.87 322.26,273.06 324.56,284.57 342.98,269.74 
					341.53,259.89 341.66,250.7 				"/>
				<g>
					<polygon class="st21" points="315.65,229.74 317.62,237.58 320.32,239.08 324.46,247.93 330.85,254.27 337.8,254.64 
						346.5,245.99 349.53,238.79 351.23,237.69 355.09,227.57 346.08,212.84 333.4,209.62 321.33,212.98 					"/>
					<path d="M330.78,213.89c0,0-6.3,10.92-11.19,13.71l0.17,6.99l-5.56-4.4l-2.09-11.28l2.97-9.29l5.77-5.83l7.78-3.27l4.29,1.39
						l6.4-1.9l7.82,2.19l8.07,9.36l2.15,8.5l-1.77,8.73l-5.08,6.25l-4.23-10.5l-4.24-0.78l-2.85-4.8L330.78,213.89z"/>
					<polyline class="st22" points="327.81,210.52 323.67,218.02 318.63,223.4 					"/>
					<polyline class="st22" points="327.57,206.3 322.47,214.46 319.5,216.67 					"/>
					<path class="st23" d="M345.5,228.51c0,0-5.66-2.66-9.48,2.9l0.29,6.3l2.01,2.56c0,0-2.98,0.74-3.99,2.26
						c0,0-2.57-2.19-3.88-2.11"/>
					<path class="st23" d="M332.44,230.01c0,0-5.24-3.38-9.49-0.05"/>
					<polyline class="st23" points="329.11,245.05 334.98,246.03 340.16,245.12 					"/>
					<polyline class="st23" points="332.43,247.53 334.94,248.37 336.99,247.11 					"/>
					<polygon points="343.28,280.28 338.7,286.99 335.58,279.25 337.02,261.26 342.47,255.34 344.44,247.94 346.46,246.08 
						347.31,243.77 353.2,252.05 353.78,263.65 344.8,286.07 					"/>
					<polyline class="st22" points="347.03,253.16 341.8,264.35 339.14,276.89 					"/>
				</g>
				<polygon class="st13" points="336.97,288.92 345.79,289.31 345.28,291.61 333.9,290.97 333.9,288.67 				"/>
			</g>
			<g>
				<g>
					<g>
						<g>
							<g>
								<g>
									<path class="st21" d="M293.75,302.73c0.06-0.79-0.63-1.44-1.43-1.41c-0.43,0.02-1,0.05-1.69,0.12
										c-1.8,0.18-7.13,2.8-7.27,3.86c-0.21,1.55,0.58,2.15,0.58,2.15s-1.04,1.38-0.66,2.52c0.33,0.98,1.89,1.31,1.89,1.31
										s-1.16,1.35,0.04,2.31c0.42,0.33,1.25,0.97,1.44,1.19c0,0,0.16,0.6,0.33,0.83c0.54,0.75,1.37,1.23,2.29,1.31l0.3,0.03
										c0.58,0.05,1.15-0.11,1.61-0.46c2.08-1.59,7.97-6.2,8.09-7.48c0,0,1.12-0.87,0.68-1.79c-0.44-0.92-2.11-0.52-2.11-0.52
										s0.81-0.62,0.42-1.58c-0.39-0.96-3.36-0.88-4.71-0.7c-1.07,0.14-4.07,0.63-4.07,0.63s3.99-1.37,4.23-2.05
										C293.73,302.91,293.74,302.82,293.75,302.73z"/>
								</g>
							</g>
						</g>
						<g>
							<g>
								<g>
									<g>
										<path class="st21" d="M299.27,309c0,0.01-0.14,0.1-0.4,0.24c-0.26,0.15-0.65,0.35-1.14,0.59
											c-0.97,0.48-2.34,1.09-3.88,1.68c-1.54,0.59-2.96,1.07-3.99,1.4c-0.51,0.16-0.93,0.29-1.22,0.37
											c-0.29,0.08-0.45,0.13-0.46,0.12c0-0.01,0.15-0.07,0.44-0.17c0.31-0.11,0.72-0.25,1.21-0.42
											c1.02-0.35,2.43-0.85,3.97-1.44c1.54-0.59,2.91-1.18,3.88-1.64c0.49-0.23,0.88-0.42,1.15-0.55
											C299.11,309.06,299.26,308.99,299.27,309z"/>
									</g>
								</g>
							</g>
						</g>
						<g>
							<g>
								<g>
									<g>
										<path class="st21" d="M298.01,306.66c0,0.01-0.15,0.04-0.44,0.09c-0.28,0.06-0.69,0.13-1.19,0.24
											c-1,0.22-2.36,0.6-3.86,1.07c-0.75,0.24-1.46,0.44-2.1,0.67c-0.64,0.22-1.2,0.45-1.67,0.65c-0.47,0.2-0.85,0.38-1.1,0.5
											c-0.26,0.12-0.4,0.19-0.41,0.18c0,0,0.03-0.03,0.09-0.07c0.06-0.04,0.16-0.1,0.29-0.17c0.25-0.14,0.62-0.33,1.09-0.55
											c0.47-0.21,1.03-0.45,1.67-0.69c0.64-0.23,1.36-0.45,2.1-0.68c1.49-0.47,2.87-0.83,3.88-1.03c0.5-0.1,0.92-0.16,1.2-0.2
											C297.85,306.66,298.01,306.65,298.01,306.66z"/>
									</g>
								</g>
							</g>
						</g>
						<g>
							<g>
								<g>
									<g>
										<path class="st21" d="M289.47,305.04c0.01,0.02-0.23,0.15-0.64,0.34c-0.41,0.19-0.98,0.43-1.61,0.69
											c-0.63,0.26-1.19,0.51-1.6,0.7c-0.4,0.19-0.65,0.31-0.66,0.29c-0.01-0.02,0.22-0.17,0.62-0.39
											c0.39-0.22,0.96-0.48,1.59-0.75c0.63-0.26,1.21-0.48,1.62-0.65C289.2,305.12,289.46,305.02,289.47,305.04z"/>
									</g>
								</g>
							</g>
						</g>
					</g>
					<g>
						<g>
							<g>
								<g>
									<path class="st21" d="M297.39,311.33c0.01,0.01-0.09,0.12-0.28,0.31c-0.19,0.19-0.46,0.46-0.82,0.79
										c-0.7,0.65-1.74,1.48-2.85,2.43c-0.28,0.24-0.54,0.48-0.81,0.7c-0.27,0.22-0.55,0.41-0.82,0.58
										c-0.54,0.34-1.08,0.56-1.55,0.68c-0.47,0.12-0.87,0.13-1.14,0.1c-0.13-0.01-0.24-0.03-0.31-0.04
										c-0.07-0.01-0.11-0.02-0.1-0.03c0-0.01,0.15,0.01,0.41,0.01c0.26,0.01,0.65-0.02,1.11-0.15c0.46-0.13,0.98-0.35,1.51-0.69
										c0.26-0.17,0.53-0.36,0.8-0.57c0.27-0.21,0.53-0.46,0.81-0.7c1.11-0.95,2.15-1.77,2.87-2.4c0.36-0.31,0.65-0.57,0.85-0.75
										C297.27,311.42,297.38,311.33,297.39,311.33z"/>
								</g>
							</g>
						</g>
					</g>
				</g>
			</g>
			<g>
				<path class="st24" d="M362.63,356.84l-1.07,2.21c-0.51-0.02-2.77,6.33-2.77,6.33s2.38,1.39,2.45,2.52
					c0.06,1.14,0.54,8.54,0.54,8.54s-1.14,3.83-0.61,5.38c0.38,1.1,1.89,2,1.89,2s1.51,0.48,2.6-1.09c0.77-1.11,1.06-1.55,1.18-1.71
					c0.03-0.04,0.07-0.06,0.11-0.08c0.31-0.18,0.9,1.09,2.56-2.01c0.69-0.04,2.38-5.12,3.03-7.06c0.69-2.06-1.28-9.88-1.28-9.88
					l1.75-4.17C373,357.81,369.34,353.04,362.63,356.84z"/>
				<polyline class="st24" points="358.79,365.37 357.27,374.08 359.02,378.65 360.09,376.77 360.5,373 362.11,365.88 				"/>
				<polyline class="st24" points="363.06,383.81 364.93,375.56 364.8,370.05 				"/>
				<polyline class="st24" points="366.92,380.95 367.89,373.95 367.89,366.55 				"/>
				<polyline class="st24" points="369.44,379.32 370.98,372.47 370.18,368.3 				"/>
			</g>
		</g>
		<line class="st25" x1="293.4" y1="284.4" x2="297.3" y2="302.68"/>
	</g>
	<g>
		<g>
			<line class="st26" x1="517.86" y1="291.31" x2="517.86" y2="287.61"/>
			<line class="st27" x1="517.86" y1="280.38" x2="517.86" y2="182.74"/>
			<polyline class="st26" points="517.86,179.13 517.86,175.43 514.15,175.43 			"/>
			<line class="st28" x1="506.44" y1="175.43" x2="417.72" y2="175.43"/>
			<polyline class="st26" points="413.86,175.43 410.16,175.43 410.16,171.72 			"/>
			<line class="st29" x1="410.16" y1="164.43" x2="410.16" y2="138.92"/>
			<line class="st26" x1="410.16" y1="135.28" x2="410.16" y2="131.58"/>
		</g>
	</g>
	<path class="st30" d="M285.52,259.24C285.52,259.24,285.52,271.95,285.52,259.24c0-12.71,0-67.94,0-67.94h68.98v-62.14"/>
	<polyline class="st30" points="246.19,264.69 246.19,181.35 323.64,181.35 323.64,130.37 	"/>
	<circle class="st31" cx="518.02" cy="296.92" r="5.75"/>
	<circle class="st31" cx="285.91" cy="269.61" r="5.75"/>
	<circle class="st31" cx="246.18" cy="266.97" r="5.75"/>
	<g>
		<g>
			<defs>
				<path id="SVGID_1_" d="M287.13,62.66c-24.62,0-44.58,20.93-44.58,46.76c0,2.93,0.26,5.79,0.75,8.57
					c-9.5,0.66-17.01,8.94-17.01,19.07c0,10.56,8.16,19.12,18.23,19.12h42.62h2.11h18.63h88.66h24.34h21.23h23.49h18.63
					c23.18-0.69,18.3-36.3-5.23-35.82c1.21-27.81-22.08-60.07-63.7-49.92c-0.71-6.74-3.06-16.79-8.28-26.1
					c-10.95-19.53-31.19-32.63-54.35-32.63c-29.9,0-54.94,21.85-61.4,51.15C289.91,62.74,288.53,62.66,287.13,62.66"/>
			</defs>
			<use xlink:href="#SVGID_1_"  style="overflow:visible;fill-rule:evenodd;clip-rule:evenodd;fill:#FFFFFF;"/>
			<clipPath id="SVGID_2_">
				<use xlink:href="#SVGID_1_"  style="overflow:visible;"/>
			</clipPath>
			<rect x="226.29" y="11.72" class="st32" width="281.13" height="144.47"/>
			
				<use xlink:href="#SVGID_1_"  style="overflow:visible;fill-rule:evenodd;clip-rule:evenodd;fill:none;stroke:#231F20;stroke-width:1.2727;stroke-linejoin:round;"/>
		</g>
		<path class="st33" d="M388.38,138.67l0.52-1.71c0.22-0.72,0.88-1.21,1.63-1.19c1.45,0.04,2.87-0.11,4.25-0.42
			c0.73-0.16,1.48,0.19,1.83,0.85l0.85,1.58c0.44,0.82,1.45,1.13,2.27,0.69l3.02-1.62c0.82-0.44,1.13-1.46,0.69-2.27L402.6,133
			c-0.35-0.66-0.23-1.48,0.31-1.99c1.03-0.97,1.94-2.08,2.71-3.3c0.4-0.63,1.18-0.91,1.89-0.69l1.71,0.52
			c0.89,0.27,1.83-0.23,2.1-1.12l0.99-3.28c0.27-0.89-0.23-1.82-1.12-2.1l-1.71-0.52c-0.72-0.22-1.21-0.88-1.19-1.63
			c0.04-1.44-0.11-2.87-0.42-4.25c-0.17-0.73,0.18-1.48,0.85-1.83l1.58-0.84c0.82-0.44,1.13-1.45,0.69-2.27l-1.61-3.02
			c-0.44-0.82-1.46-1.13-2.27-0.69l-1.58,0.84c-0.66,0.35-1.48,0.23-1.99-0.32c-0.97-1.02-2.08-1.94-3.3-2.71
			c-0.63-0.4-0.91-1.18-0.7-1.89l0.52-1.71c0.27-0.89-0.23-1.82-1.12-2.1l-3.28-0.99c-0.89-0.27-1.83,0.23-2.1,1.12l-0.52,1.71
			c-0.22,0.72-0.88,1.21-1.63,1.19c-1.44-0.04-2.87,0.11-4.24,0.42c-0.73,0.17-1.48-0.18-1.84-0.84l-0.84-1.58
			c-0.44-0.82-1.46-1.13-2.27-0.69l-3.02,1.61c-0.82,0.44-1.13,1.46-0.69,2.28l0.84,1.58c0.35,0.66,0.23,1.48-0.32,1.99
			c-1.02,0.97-1.94,2.08-2.71,3.3c-0.4,0.63-1.18,0.92-1.89,0.7l-1.71-0.52c-0.89-0.27-1.83,0.23-2.1,1.12l-1,3.28
			c-0.27,0.89,0.23,1.83,1.12,2.1l1.71,0.52c0.72,0.22,1.21,0.88,1.19,1.63c-0.04,1.44,0.11,2.87,0.42,4.24
			c0.17,0.73-0.18,1.48-0.84,1.83l-1.58,0.84c-0.82,0.44-1.13,1.46-0.69,2.28l1.61,3.02c0.44,0.82,1.46,1.13,2.28,0.69l1.58-0.84
			c0.66-0.35,1.48-0.23,1.99,0.32c0.97,1.03,2.08,1.94,3.3,2.71c0.63,0.4,0.91,1.17,0.7,1.89l-0.52,1.71
			c-0.27,0.89,0.23,1.83,1.12,2.09l3.28,0.99C387.17,140.06,388.11,139.55,388.38,138.67 M342.34,133.2l0.02-3.02
			c0.01-1.26,0.85-2.37,2.07-2.7c2.36-0.63,4.59-1.55,6.67-2.71c1.1-0.61,2.48-0.41,3.37,0.49l2.12,2.15
			c1.1,1.12,2.89,1.13,4.01,0.04l4.12-4.06c1.11-1.1,1.12-2.89,0.03-4.01l-2.12-2.15c-0.89-0.9-1.07-2.28-0.44-3.37
			c1.19-2.06,2.14-4.29,2.81-6.63c0.34-1.21,1.46-2.04,2.73-2.03l3.02,0.02c1.57,0.01,2.84-1.25,2.85-2.81l0.04-5.78
			c0.01-1.56-1.25-2.84-2.81-2.85l-3.02-0.02c-1.26-0.01-2.37-0.85-2.7-2.07c-0.63-2.35-1.54-4.59-2.7-6.67
			c-0.62-1.1-0.41-2.48,0.49-3.37l2.15-2.12c1.11-1.1,1.13-2.89,0.03-4l-4.05-4.12c-1.1-1.12-2.89-1.13-4.01-0.03l-2.15,2.12
			c-0.9,0.89-2.28,1.07-3.37,0.44c-2.07-1.19-4.29-2.14-6.63-2.81c-1.22-0.34-2.04-1.46-2.03-2.73l0.02-3.02
			c0.01-1.56-1.25-2.84-2.81-2.85l-5.78-0.04c-1.57-0.01-2.84,1.25-2.86,2.81l-0.02,3.01c-0.01,1.26-0.85,2.37-2.07,2.7
			c-2.35,0.62-4.59,1.54-6.67,2.7c-1.1,0.62-2.48,0.41-3.37-0.49l-2.12-2.15c-1.1-1.11-2.89-1.13-4.01-0.03l-4.12,4.05
			c-1.12,1.1-1.13,2.9-0.03,4.01l2.12,2.15c0.89,0.9,1.07,2.28,0.44,3.38c-1.19,2.06-2.14,4.29-2.8,6.63
			c-0.34,1.21-1.47,2.04-2.73,2.03L303,93.28c-1.56-0.01-2.85,1.25-2.85,2.81l-0.05,5.78c-0.01,1.56,1.25,2.84,2.82,2.86l3.02,0.02
			c1.26,0.01,2.37,0.85,2.7,2.07c0.63,2.35,1.54,4.58,2.7,6.66c0.62,1.1,0.41,2.48-0.49,3.37l-2.15,2.12
			c-1.11,1.1-1.13,2.9-0.03,4.01l4.06,4.11c1.1,1.12,2.89,1.13,4.01,0.03l2.15-2.12c0.9-0.89,2.28-1.07,3.37-0.44
			c2.06,1.2,4.28,2.14,6.63,2.81c1.21,0.35,2.04,1.46,2.03,2.73l-0.02,3.02c-0.01,1.56,1.25,2.84,2.81,2.85l5.78,0.04
			C341.05,136.03,342.33,134.77,342.34,133.2z M334.1,114.7c-6.49-1.11-11.7-6.4-12.71-12.9c-1.68-10.74,7.54-19.82,18.25-17.98
			c6.49,1.12,11.69,6.39,12.71,12.9C354.03,107.46,344.82,116.54,334.1,114.7z M386.8,126.76c-3.51-1.72-5.58-5.6-5.06-9.47
			c0.85-6.39,7.61-10,13.4-7.16c3.5,1.73,5.57,5.6,5.06,9.47C399.35,125.99,392.59,129.61,386.8,126.76z"/>
	</g>
</g>
</svg>
