<?xml version="1.0" encoding="utf-8"?>
<svg viewBox="122.933 199.93 363.14 77.861" xmlns="http://www.w3.org/2000/svg">
  <path d="M 133.724 263.763 L 122.933 263.763 L 137.772 204.246 L 148.563 204.246 L 133.724 263.763 Z" style="fill: rgb(255, 255, 255); paint-order: fill;" transform="matrix(1, 0, 0, 1, 7.105427357601002e-15, 7.105427357601002e-15)"/>
  <path d="M 485.501 233.756 C 485.12899999999996 235.25 484.46433333333334 236.86166666666668 483.507 238.591 C 482.55033333333336 240.32033333333334 481.2993333333333 241.925 479.754 243.405 C 478.20933333333335 244.88566666666668 476.365 246.124 474.221 247.12 C 472.07766666666663 248.116 469.65 248.614 466.938 248.614 L 447.473 248.614 L 450.029 238.363 L 469.494 238.363 C 470.96066666666667 238.363 472.20733333333334 237.91333333333333 473.234 237.014 C 474.2606666666667 236.11466666666666 474.93966666666665 235.001 475.271 233.673 C 475.62233333333336 232.26166666666668 475.44866666666667 231.15466666666669 474.75 230.352 C 474.0506666666667 229.55 473.06466666666665 229.149 471.792 229.149 L 452.326 229.149 C 450.86 229.149 449.6136666666667 229.59866666666667 448.587 230.498 C 447.56033333333335 231.39666666666668 446.8813333333334 232.51033333333334 446.55 233.839 L 442.794 248.905 C 442.4353333333333 250.34366666666665 442.6053333333333 251.464 443.304 252.266 C 444.00333333333333 253.06866666666667 445.017 253.47 446.345 253.47 L 465.728 253.47 L 463.161 263.763 L 443.696 263.763 C 442.202 263.763 440.65566666666666 263.5 439.057 262.974 C 437.459 262.44866666666667 436.0663333333334 261.598 434.879 260.422 C 433.69233333333335 259.24600000000004 432.837 257.7103333333333 432.313 255.815 C 431.7896666666667 253.91966666666667 431.866 251.61633333333333 432.542 248.905 L 436.319 233.756 C 436.69166666666666 232.26133333333334 437.35633333333334 230.64933333333335 438.313 228.92 C 439.2703333333333 227.19066666666666 440.52133333333336 225.58599999999998 442.066 224.106 C 443.61133333333333 222.626 445.4556666666667 221.38766666666666 447.599 220.391 C 449.743 219.39499999999998 452.17066666666665 218.897 454.882 218.897 L 474.348 218.897 C 475.842 218.897 477.388 219.16 478.986 219.686 C 480.5846666666667 220.21133333333333 481.9773333333333 221.06199999999998 483.164 222.238 C 484.35133333333334 223.41400000000002 485.20666666666665 224.94966666666667 485.73 226.845 C 486.254 228.74033333333333 486.17766666666665 231.04399999999998 485.501 233.756 Z" style="fill: rgb(255, 255, 255); paint-order: fill;" transform="matrix(1, 0, 0, 1, 7.105427357601002e-15, 7.105427357601002e-15)"/>
  <path d="M 429.48 248.614 C 429.01733333333334 250.46800000000002 428.36633333333333 252.13500000000002 427.527 253.615 C 426.68766666666664 255.0956666666667 425.741 256.39633333333336 424.687 257.517 C 423.63233333333335 258.63766666666663 422.495 259.592 421.275 260.38 C 420.0543333333333 261.16866666666664 418.82166666666666 261.812 417.577 262.31 C 416.33233333333334 262.808 415.1066666666666 263.17466666666667 413.9 263.41 C 412.69266666666664 263.6453333333333 411.57733333333334 263.763 410.554 263.763 L 381.335 263.763 L 384.025 252.972 L 413.161 252.972 C 414.62766666666664 252.972 415.8276666666667 252.59833333333333 416.761 251.851 C 417.69433333333336 251.10433333333333 418.337 250.02533333333332 418.689 248.614 C 419.2676666666667 245.73666666666668 418.1736666666667 244.298 415.407 244.298 L 398.681 244.298 C 396.301 244.298 394.38466666666665 243.883 392.932 243.053 C 391.4786666666667 242.22233333333332 390.3883333333333 241.18466666666666 389.661 239.94 C 388.9336666666667 238.69466666666668 388.5213333333333 237.35266666666666 388.424 235.914 C 388.32599999999996 234.47533333333334 388.4323333333333 233.13333333333333 388.743 231.888 C 389.34299999999996 229.48066666666665 390.277 227.45399999999998 391.545 225.808 C 392.8136666666667 224.16133333333332 394.22566666666665 222.82633333333334 395.781 221.803 C 397.337 220.779 398.93266666666665 220.03866666666667 400.568 219.582 C 402.204 219.12533333333332 403.686 218.897 405.014 218.897 L 431.535 218.897 L 428.844 229.688 L 402.406 229.688 C 401.85266666666666 229.688 401.40133333333335 229.75033333333332 401.052 229.875 C 400.7026666666667 229.99966666666668 400.42633333333333 230.16566666666668 400.223 230.373 C 400.019 230.58033333333333 399.8736666666666 230.80166666666668 399.787 231.037 C 399.701 231.27233333333334 399.63033333333334 231.50066666666666 399.575 231.722 C 399.49233333333336 232.16466666666668 399.48900000000003 232.51066666666665 399.565 232.76 C 399.64166666666665 233.00866666666667 399.77 233.18833333333333 399.95 233.299 C 400.1293333333333 233.40966666666668 400.349 233.472 400.609 233.486 C 400.86833333333334 233.5 401.1223333333333 233.507 401.371 233.507 L 418.097 233.507 C 420.8643333333333 233.507 423.092 234.005 424.78 235.001 C 426.46866666666665 235.997 427.71999999999997 237.249 428.534 238.757 C 429.348 240.26500000000001 429.804 241.90433333333334 429.902 243.675 C 430 245.44566666666665 429.8593333333333 247.09199999999998 429.48 248.614 Z" style="fill: rgb(255, 255, 255); paint-order: fill;" transform="matrix(1, 0, 0, 1, 7.105427357601002e-15, 7.105427357601002e-15)"/>
  <path d="M 375.493 263.763 L 364.702 263.763 L 375.888 218.897 L 386.679 218.897 L 375.493 263.763 Z" style="fill: rgb(255, 255, 255); paint-order: fill;" transform="matrix(1, 0, 0, 1, 7.105427357601002e-15, 7.105427357601002e-15)"/>
  <path d="M 388.976 209.683 L 378.185 209.683 L 380.617 199.93 L 391.408 199.93 L 388.976 209.683 Z" style="fill: rgb(255, 255, 255); paint-order: fill;" transform="matrix(1, 0, 0, 1, 7.105427357601002e-15, 7.105427357601002e-15)"/>
  <path d="M 333.841 263.763 L 323.049 263.763 L 330.469 234.005 C 330.821 232.59366666666668 330.7146666666667 231.52133333333333 330.15 230.788 C 329.58599999999996 230.05466666666666 328.5706666666666 229.688 327.104 229.688 L 313.076 229.688 L 304.58 263.763 L 293.789 263.763 L 303.641 224.251 C 303.827 223.50433333333334 304.13933333333335 222.80566666666667 304.578 222.155 C 305.01666666666665 221.505 305.54566666666665 220.93800000000002 306.165 220.454 C 306.7836666666667 219.96933333333334 307.45933333333335 219.58866666666668 308.192 219.312 C 308.9253333333333 219.03533333333334 309.66566666666665 218.897 310.413 218.897 L 329.878 218.897 C 331.372 218.897 332.91133333333335 219.16 334.496 219.686 C 336.08 220.21133333333333 337.502 221.05533333333332 338.762 222.218 L 339.59 218.897 L 354.199 218.897 C 355.223 218.897 356.273 219.01466666666667 357.349 219.25 C 358.4243333333333 219.48533333333333 359.4603333333333 219.852 360.457 220.35 C 361.45300000000003 220.848 362.36466666666666 221.49133333333333 363.192 222.28 C 364.01933333333335 223.06866666666667 364.68066666666664 224.02333333333334 365.176 225.144 C 365.67133333333334 226.26466666666667 365.97133333333335 227.558 366.076 229.024 C 366.1806666666667 230.49066666666667 366.002 232.15099999999998 365.54 234.005 L 358.12 263.763 L 347.329 263.763 L 354.749 234.005 C 355.101 232.59366666666668 355.01533333333333 231.52133333333333 354.492 230.788 C 353.96933333333334 230.05466666666666 352.975 229.688 351.509 229.688 L 341.797 229.688 C 341.8256666666667 231.016 341.64666666666665 232.455 341.26 234.005 L 333.841 263.763 Z" style="fill: rgb(255, 255, 255); paint-order: fill;" transform="matrix(1, 0, 0, 1, 7.105427357601002e-15, 7.105427357601002e-15)"/>
  <path d="M 284.721 234.088 C 285.09366666666665 232.59333333333333 284.9963333333333 231.48633333333333 284.429 230.767 C 283.861 230.04766666666666 282.8713333333333 229.688 281.46 229.688 L 262.078 229.688 C 260.63933333333335 229.688 259.455 230.05466666666666 258.525 230.788 C 257.59499999999997 231.52133333333333 256.954 232.59366666666668 256.602 234.005 L 252.96 248.614 C 252.608 250.02533333333332 252.71233333333333 251.10433333333333 253.273 251.851 C 253.83433333333335 252.59833333333333 254.83433333333335 252.972 256.273 252.972 L 275.655 252.972 C 277.12166666666667 252.972 278.3076666666667 252.59833333333333 279.213 251.851 C 280.119 251.10433333333333 280.748 250.02533333333332 281.1 248.614 L 284.721 234.088 Z" style="fill: rgb(255, 255, 255); paint-order: fill;" transform="matrix(1, 0, 0, 1, 7.105427357601002e-15, 7.105427357601002e-15)"/>
  <path d="M 291.891 248.614 C 291.42833333333334 250.46800000000002 290.77733333333333 252.13500000000002 289.938 253.615 C 289.09866666666665 255.0956666666667 288.152 256.39633333333336 287.098 257.517 C 286.04333333333335 258.63766666666663 284.906 259.592 283.686 260.38 C 282.4653333333333 261.16866666666664 281.23266666666666 261.812 279.988 262.31 C 278.74333333333334 262.808 277.5176666666666 263.17466666666667 276.311 263.41 C 275.10366666666664 263.6453333333333 273.98833333333334 263.763 272.965 263.763 L 253.499 263.763 C 252.005 263.763 250.43800000000002 263.5 248.798 262.974 C 247.15866666666668 262.44866666666667 245.73499999999999 261.584 244.527 260.38 C 243.319 259.1766666666667 242.44966666666667 257.61333333333334 241.919 255.69 C 241.389 253.76733333333334 241.47233333333332 251.40866666666668 242.169 248.614 L 245.811 234.005 C 246.501 231.23766666666668 247.59066666666666 228.89266666666668 249.08 226.97 C 250.56933333333333 225.04666666666668 252.218 223.48333333333335 254.026 222.28 C 255.83466666666666 221.076 257.68966666666665 220.21133333333333 259.591 219.686 C 261.493 219.16 263.1913333333333 218.897 264.686 218.897 L 284.151 218.897 C 286.91766666666666 218.897 289.1453333333333 219.39499999999998 290.834 220.391 C 292.5226666666667 221.38766666666666 293.77366666666666 222.64 294.587 224.148 C 295.401 225.65533333333332 295.85699999999997 227.29466666666667 295.955 229.066 C 296.053 230.83666666666667 295.9123333333333 232.483 295.533 234.005 L 291.891 248.614 Z" style="fill: rgb(255, 255, 255); paint-order: fill;" transform="matrix(1, 0, 0, 1, 7.105427357601002e-15, 7.105427357601002e-15)"/>
  <path d="M 244.372 229.688 L 220.092 229.688 C 218.62533333333334 229.688 217.427 230.05466666666666 216.497 230.788 C 215.56766666666667 231.52133333333333 214.927 232.59366666666668 214.575 234.005 L 207.155 263.763 L 196.364 263.763 L 203.784 234.005 C 204.246 232.15099999999998 204.895 230.49066666666667 205.731 229.024 C 206.567 227.558 207.519 226.26466666666667 208.587 225.144 C 209.655 224.02333333333334 210.79933333333332 223.06866666666667 212.02 222.28 C 213.24 221.49133333333333 214.47233333333332 220.848 215.717 220.35 C 216.96233333333333 219.852 218.18833333333333 219.48533333333333 219.395 219.25 C 220.6016666666667 219.01466666666667 221.703 218.897 222.699 218.897 L 247.062 218.897 L 244.372 229.688 Z" style="fill: rgb(255, 255, 255); paint-order: fill;" transform="matrix(1, 0, 0, 1, 7.105427357601002e-15, 7.105427357601002e-15)"/>
  <path d="M 194.677 248.614 C 194.21433333333334 250.46800000000002 193.56333333333333 252.13500000000002 192.724 253.615 C 191.88466666666667 255.0956666666667 190.938 256.39633333333336 189.884 257.517 C 188.82999999999998 258.63766666666663 187.69266666666667 259.592 186.472 260.38 C 185.252 261.16866666666664 184.01933333333332 261.812 182.774 262.31 C 181.52933333333334 262.808 180.31066666666666 263.17466666666667 179.118 263.41 C 177.92466666666667 263.6453333333333 176.816 263.763 175.792 263.763 L 156.327 263.763 L 159.017 252.972 L 178.483 252.972 C 179.92166666666665 252.972 181.09366666666665 252.59833333333333 181.999 251.851 C 182.905 251.10433333333333 183.534 250.02533333333332 183.886 248.614 L 187.508 234.088 C 187.88 232.59333333333333 187.78933333333333 231.48633333333333 187.236 230.767 C 186.682 230.04766666666666 185.69933333333333 229.688 184.288 229.688 L 164.906 229.688 C 163.43933333333334 229.688 162.24099999999999 230.05466666666666 161.311 230.788 C 160.381 231.52133333333333 159.74033333333333 232.59366666666668 159.389 234.005 L 148.471 277.791 L 137.68 277.791 L 148.598 234.005 C 149.06 232.15099999999998 149.709 230.49066666666667 150.545 229.024 C 151.381 227.558 152.333 226.26466666666667 153.401 225.144 C 154.469 224.02333333333334 155.613 223.06866666666667 156.833 222.28 C 158.05366666666666 221.49133333333333 159.28633333333332 220.848 160.531 220.35 C 161.77566666666667 219.852 163.00166666666667 219.48533333333333 164.209 219.25 C 165.41566666666668 219.01466666666667 166.517 218.897 167.513 218.897 L 186.979 218.897 C 188.83233333333334 218.897 190.43366666666665 219.13233333333332 191.783 219.603 C 193.13233333333332 220.073 194.27066666666667 220.69566666666665 195.198 221.471 C 196.12533333333334 222.24566666666666 196.85566666666668 223.14466666666667 197.389 224.168 C 197.92233333333334 225.192 198.29833333333332 226.26433333333333 198.517 227.385 C 198.73566666666667 228.50566666666666 198.82133333333334 229.633 198.774 230.767 C 198.726 231.90166666666667 198.57433333333333 232.981 198.319 234.005 L 194.677 248.614 Z" style="fill: rgb(255, 255, 255); paint-order: fill;" transform="matrix(1, 0, 0, 1, 7.105427357601002e-15, 7.105427357601002e-15)"/>
</svg>