<?xml version="1.0" encoding="utf-8"?>
<svg viewBox="59.04 170.971 432.965 129.767" xmlns="http://www.w3.org/2000/svg">
  <path d="M 133.724 263.763 L 122.933 263.763 L 137.772 204.246 L 148.563 204.246 L 133.724 263.763 Z" style="fill: rgb(51, 51, 51);" transform="matrix(1, 0, 0, 1, 7.105427357601002e-15, 8.881784197001252e-15)"/>
  <path d="M 485.501 233.756 C 485.12899999999996 235.25 484.46433333333334 236.86166666666668 483.507 238.591 C 482.55033333333336 240.32033333333334 481.2993333333333 241.925 479.754 243.405 C 478.20933333333335 244.88566666666668 476.365 246.124 474.221 247.12 C 472.07766666666663 248.116 469.65 248.614 466.938 248.614 L 447.473 248.614 L 450.029 238.363 L 469.494 238.363 C 470.96066666666667 238.363 472.20733333333334 237.91333333333333 473.234 237.014 C 474.2606666666667 236.11466666666666 474.93966666666665 235.001 475.271 233.673 C 475.62233333333336 232.26166666666668 475.44866666666667 231.15466666666669 474.75 230.352 C 474.0506666666667 229.55 473.06466666666665 229.149 471.792 229.149 L 452.326 229.149 C 450.86 229.149 449.6136666666667 229.59866666666667 448.587 230.498 C 447.56033333333335 231.39666666666668 446.8813333333334 232.51033333333334 446.55 233.839 L 442.794 248.905 C 442.4353333333333 250.34366666666665 442.6053333333333 251.464 443.304 252.266 C 444.00333333333333 253.06866666666667 445.017 253.47 446.345 253.47 L 465.728 253.47 L 463.161 263.763 L 443.696 263.763 C 442.202 263.763 440.65566666666666 263.5 439.057 262.974 C 437.459 262.44866666666667 436.0663333333334 261.598 434.879 260.422 C 433.69233333333335 259.24600000000004 432.837 257.7103333333333 432.313 255.815 C 431.7896666666667 253.91966666666667 431.866 251.61633333333333 432.542 248.905 L 436.319 233.756 C 436.69166666666666 232.26133333333334 437.35633333333334 230.64933333333335 438.313 228.92 C 439.2703333333333 227.19066666666666 440.52133333333336 225.58599999999998 442.066 224.106 C 443.61133333333333 222.626 445.4556666666667 221.38766666666666 447.599 220.391 C 449.743 219.39499999999998 452.17066666666665 218.897 454.882 218.897 L 474.348 218.897 C 475.842 218.897 477.388 219.16 478.986 219.686 C 480.5846666666667 220.21133333333333 481.9773333333333 221.06199999999998 483.164 222.238 C 484.35133333333334 223.41400000000002 485.20666666666665 224.94966666666667 485.73 226.845 C 486.254 228.74033333333333 486.17766666666665 231.04399999999998 485.501 233.756 Z" style="fill: rgb(51, 51, 51);" transform="matrix(1, 0, 0, 1, 7.105427357601002e-15, 8.881784197001252e-15)"/>
  <path d="M 429.48 248.614 C 429.01733333333334 250.46800000000002 428.36633333333333 252.13500000000002 427.527 253.615 C 426.68766666666664 255.0956666666667 425.741 256.39633333333336 424.687 257.517 C 423.63233333333335 258.63766666666663 422.495 259.592 421.275 260.38 C 420.0543333333333 261.16866666666664 418.82166666666666 261.812 417.577 262.31 C 416.33233333333334 262.808 415.1066666666666 263.17466666666667 413.9 263.41 C 412.69266666666664 263.6453333333333 411.57733333333334 263.763 410.554 263.763 L 381.335 263.763 L 384.025 252.972 L 413.161 252.972 C 414.62766666666664 252.972 415.8276666666667 252.59833333333333 416.761 251.851 C 417.69433333333336 251.10433333333333 418.337 250.02533333333332 418.689 248.614 C 419.2676666666667 245.73666666666668 418.1736666666667 244.298 415.407 244.298 L 398.681 244.298 C 396.301 244.298 394.38466666666665 243.883 392.932 243.053 C 391.4786666666667 242.22233333333332 390.3883333333333 241.18466666666666 389.661 239.94 C 388.9336666666667 238.69466666666668 388.5213333333333 237.35266666666666 388.424 235.914 C 388.32599999999996 234.47533333333334 388.4323333333333 233.13333333333333 388.743 231.888 C 389.34299999999996 229.48066666666665 390.277 227.45399999999998 391.545 225.808 C 392.8136666666667 224.16133333333332 394.22566666666665 222.82633333333334 395.781 221.803 C 397.337 220.779 398.93266666666665 220.03866666666667 400.568 219.582 C 402.204 219.12533333333332 403.686 218.897 405.014 218.897 L 431.535 218.897 L 428.844 229.688 L 402.406 229.688 C 401.85266666666666 229.688 401.40133333333335 229.75033333333332 401.052 229.875 C 400.7026666666667 229.99966666666668 400.42633333333333 230.16566666666668 400.223 230.373 C 400.019 230.58033333333333 399.8736666666666 230.80166666666668 399.787 231.037 C 399.701 231.27233333333334 399.63033333333334 231.50066666666666 399.575 231.722 C 399.49233333333336 232.16466666666668 399.48900000000003 232.51066666666665 399.565 232.76 C 399.64166666666665 233.00866666666667 399.77 233.18833333333333 399.95 233.299 C 400.1293333333333 233.40966666666668 400.349 233.472 400.609 233.486 C 400.86833333333334 233.5 401.1223333333333 233.507 401.371 233.507 L 418.097 233.507 C 420.8643333333333 233.507 423.092 234.005 424.78 235.001 C 426.46866666666665 235.997 427.71999999999997 237.249 428.534 238.757 C 429.348 240.26500000000001 429.804 241.90433333333334 429.902 243.675 C 430 245.44566666666665 429.8593333333333 247.09199999999998 429.48 248.614 Z" style="fill: rgb(51, 51, 51);" transform="matrix(1, 0, 0, 1, 7.105427357601002e-15, 8.881784197001252e-15)"/>
  <path d="M 375.493 263.763 L 364.702 263.763 L 375.888 218.897 L 386.679 218.897 L 375.493 263.763 Z" style="fill: rgb(51, 51, 51);" transform="matrix(1, 0, 0, 1, 7.105427357601002e-15, 8.881784197001252e-15)"/>
  <path d="M 388.976 209.683 L 378.185 209.683 L 380.617 199.93 L 391.408 199.93 L 388.976 209.683 Z" style="fill: rgb(51, 51, 51);" transform="matrix(1, 0, 0, 1, 7.105427357601002e-15, 8.881784197001252e-15)"/>
  <path d="M 333.841 263.763 L 323.049 263.763 L 330.469 234.005 C 330.821 232.59366666666668 330.7146666666667 231.52133333333333 330.15 230.788 C 329.58599999999996 230.05466666666666 328.5706666666666 229.688 327.104 229.688 L 313.076 229.688 L 304.58 263.763 L 293.789 263.763 L 303.641 224.251 C 303.827 223.50433333333334 304.13933333333335 222.80566666666667 304.578 222.155 C 305.01666666666665 221.505 305.54566666666665 220.93800000000002 306.165 220.454 C 306.7836666666667 219.96933333333334 307.45933333333335 219.58866666666668 308.192 219.312 C 308.9253333333333 219.03533333333334 309.66566666666665 218.897 310.413 218.897 L 329.878 218.897 C 331.372 218.897 332.91133333333335 219.16 334.496 219.686 C 336.08 220.21133333333333 337.502 221.05533333333332 338.762 222.218 L 339.59 218.897 L 354.199 218.897 C 355.223 218.897 356.273 219.01466666666667 357.349 219.25 C 358.4243333333333 219.48533333333333 359.4603333333333 219.852 360.457 220.35 C 361.45300000000003 220.848 362.36466666666666 221.49133333333333 363.192 222.28 C 364.01933333333335 223.06866666666667 364.68066666666664 224.02333333333334 365.176 225.144 C 365.67133333333334 226.26466666666667 365.97133333333335 227.558 366.076 229.024 C 366.1806666666667 230.49066666666667 366.002 232.15099999999998 365.54 234.005 L 358.12 263.763 L 347.329 263.763 L 354.749 234.005 C 355.101 232.59366666666668 355.01533333333333 231.52133333333333 354.492 230.788 C 353.96933333333334 230.05466666666666 352.975 229.688 351.509 229.688 L 341.797 229.688 C 341.8256666666667 231.016 341.64666666666665 232.455 341.26 234.005 L 333.841 263.763 Z" style="fill: rgb(51, 51, 51);" transform="matrix(1, 0, 0, 1, 7.105427357601002e-15, 8.881784197001252e-15)"/>
  <path d="M 284.721 234.088 C 285.09366666666665 232.59333333333333 284.9963333333333 231.48633333333333 284.429 230.767 C 283.861 230.04766666666666 282.8713333333333 229.688 281.46 229.688 L 262.078 229.688 C 260.63933333333335 229.688 259.455 230.05466666666666 258.525 230.788 C 257.59499999999997 231.52133333333333 256.954 232.59366666666668 256.602 234.005 L 252.96 248.614 C 252.608 250.02533333333332 252.71233333333333 251.10433333333333 253.273 251.851 C 253.83433333333335 252.59833333333333 254.83433333333335 252.972 256.273 252.972 L 275.655 252.972 C 277.12166666666667 252.972 278.3076666666667 252.59833333333333 279.213 251.851 C 280.119 251.10433333333333 280.748 250.02533333333332 281.1 248.614 L 284.721 234.088 Z" style="fill: rgb(51, 51, 51);" transform="matrix(1, 0, 0, 1, 7.105427357601002e-15, 8.881784197001252e-15)"/>
  <path d="M 291.891 248.614 C 291.42833333333334 250.46800000000002 290.77733333333333 252.13500000000002 289.938 253.615 C 289.09866666666665 255.0956666666667 288.152 256.39633333333336 287.098 257.517 C 286.04333333333335 258.63766666666663 284.906 259.592 283.686 260.38 C 282.4653333333333 261.16866666666664 281.23266666666666 261.812 279.988 262.31 C 278.74333333333334 262.808 277.5176666666666 263.17466666666667 276.311 263.41 C 275.10366666666664 263.6453333333333 273.98833333333334 263.763 272.965 263.763 L 253.499 263.763 C 252.005 263.763 250.43800000000002 263.5 248.798 262.974 C 247.15866666666668 262.44866666666667 245.73499999999999 261.584 244.527 260.38 C 243.319 259.1766666666667 242.44966666666667 257.61333333333334 241.919 255.69 C 241.389 253.76733333333334 241.47233333333332 251.40866666666668 242.169 248.614 L 245.811 234.005 C 246.501 231.23766666666668 247.59066666666666 228.89266666666668 249.08 226.97 C 250.56933333333333 225.04666666666668 252.218 223.48333333333335 254.026 222.28 C 255.83466666666666 221.076 257.68966666666665 220.21133333333333 259.591 219.686 C 261.493 219.16 263.1913333333333 218.897 264.686 218.897 L 284.151 218.897 C 286.91766666666666 218.897 289.1453333333333 219.39499999999998 290.834 220.391 C 292.5226666666667 221.38766666666666 293.77366666666666 222.64 294.587 224.148 C 295.401 225.65533333333332 295.85699999999997 227.29466666666667 295.955 229.066 C 296.053 230.83666666666667 295.9123333333333 232.483 295.533 234.005 L 291.891 248.614 Z" style="fill: rgb(51, 51, 51);" transform="matrix(1, 0, 0, 1, 7.105427357601002e-15, 8.881784197001252e-15)"/>
  <path d="M 244.372 229.688 L 220.092 229.688 C 218.62533333333334 229.688 217.427 230.05466666666666 216.497 230.788 C 215.56766666666667 231.52133333333333 214.927 232.59366666666668 214.575 234.005 L 207.155 263.763 L 196.364 263.763 L 203.784 234.005 C 204.246 232.15099999999998 204.895 230.49066666666667 205.731 229.024 C 206.567 227.558 207.519 226.26466666666667 208.587 225.144 C 209.655 224.02333333333334 210.79933333333332 223.06866666666667 212.02 222.28 C 213.24 221.49133333333333 214.47233333333332 220.848 215.717 220.35 C 216.96233333333333 219.852 218.18833333333333 219.48533333333333 219.395 219.25 C 220.6016666666667 219.01466666666667 221.703 218.897 222.699 218.897 L 247.062 218.897 L 244.372 229.688 Z" style="fill: rgb(51, 51, 51);" transform="matrix(1, 0, 0, 1, 7.105427357601002e-15, 8.881784197001252e-15)"/>
  <path d="M 194.677 248.614 C 194.21433333333334 250.46800000000002 193.56333333333333 252.13500000000002 192.724 253.615 C 191.88466666666667 255.0956666666667 190.938 256.39633333333336 189.884 257.517 C 188.82999999999998 258.63766666666663 187.69266666666667 259.592 186.472 260.38 C 185.252 261.16866666666664 184.01933333333332 261.812 182.774 262.31 C 181.52933333333334 262.808 180.31066666666666 263.17466666666667 179.118 263.41 C 177.92466666666667 263.6453333333333 176.816 263.763 175.792 263.763 L 156.327 263.763 L 159.017 252.972 L 178.483 252.972 C 179.92166666666665 252.972 181.09366666666665 252.59833333333333 181.999 251.851 C 182.905 251.10433333333333 183.534 250.02533333333332 183.886 248.614 L 187.508 234.088 C 187.88 232.59333333333333 187.78933333333333 231.48633333333333 187.236 230.767 C 186.682 230.04766666666666 185.69933333333333 229.688 184.288 229.688 L 164.906 229.688 C 163.43933333333334 229.688 162.24099999999999 230.05466666666666 161.311 230.788 C 160.381 231.52133333333333 159.74033333333333 232.59366666666668 159.389 234.005 L 148.471 277.791 L 137.68 277.791 L 148.598 234.005 C 149.06 232.15099999999998 149.709 230.49066666666667 150.545 229.024 C 151.381 227.558 152.333 226.26466666666667 153.401 225.144 C 154.469 224.02333333333334 155.613 223.06866666666667 156.833 222.28 C 158.05366666666666 221.49133333333333 159.28633333333332 220.848 160.531 220.35 C 161.77566666666667 219.852 163.00166666666667 219.48533333333333 164.209 219.25 C 165.41566666666668 219.01466666666667 166.517 218.897 167.513 218.897 L 186.979 218.897 C 188.83233333333334 218.897 190.43366666666665 219.13233333333332 191.783 219.603 C 193.13233333333332 220.073 194.27066666666667 220.69566666666665 195.198 221.471 C 196.12533333333334 222.24566666666666 196.85566666666668 223.14466666666667 197.389 224.168 C 197.92233333333334 225.192 198.29833333333332 226.26433333333333 198.517 227.385 C 198.73566666666667 228.50566666666666 198.82133333333334 229.633 198.774 230.767 C 198.726 231.90166666666667 198.57433333333333 232.981 198.319 234.005 L 194.677 248.614 Z" style="fill: rgb(51, 51, 51);" transform="matrix(1, 0, 0, 1, 7.105427357601002e-15, 8.881784197001252e-15)"/>
  <g transform="matrix(0.6648941040039062, 0, 0, 0.6648941040039062, 42.55318069458007, 194.44444274902344)">
    <path d="m41.171 110.94c0.96123 2.3354 0.88606 2.0665 1.7262 3.2473-0.92758 1.7796 2.0012 4.7781 5.4869 5.5682 1.1232 0.8091 1.5195 0.53974 3.9158 1.5116 6.057 1.5076 13.786 0.66539 18.524 0.54394 4.3014-0.2996 8.5917-1.6381 10.457-2.3662 3.3802-1.3193 5.5009-2.6288 7.0549-5.1949 2.7107-4.476 1.7775-8.0796-0.62975-10.071 2.6765-2.6696 3.9632-7.0315 2.9982-10.286 3.8047-2.6885 4.8363-9.6269 4.1598-15.813-0.34147-3.1228-1.8273-5.3043-2.7917-6.6414 0.71031-5.5431-0.47235-11.171-2.9516-15.175-1.7077-2.7582-5.1804-6.1575-8.6007-6.2439s-11.105 2.3299-12.116-2.7797 3.9683-12.162 5.1306-19.57c0.71468-4.5547-3.0597-9.9355-5.5532-13.459-2.4865-3.5137-5.9389-5.4207-10.297-7.45-3.5878-1.6707-9.2689-1.1983-11.759 2.3912-2.6645 3.8412-1.8348 10.082-0.83287 14.702 0.9058 4.1764 2.6032 8.1113 3.1953 12.415 0.58086 4.2212 1.8772 11.973 0.81909 15.777-3.2244 3.0056-6.5066 3.0495-10.12 5.0426-3.3924 1.8712-5.1628 6.0836-4.4382 9.8268 0.51308 2.6507 3.4096 4.43 1.1908 7.1714-2.6474 3.2708-4.2574 8.2065-0.90247 11.119s2.851 4.1748 3.3514 4.6407 0.59966 1.6028-0.60209 4.7588c-1.9405 5.0961-2.6165 5.5114 1.3364 9.1161 1.4685 1.3392-1.5256 6.4459 2.2481 7.2188z" fill="#fff"/>
    <path d="M 70.824 121.82 C 66.08579999999999 121.94144999999999 58.357 122.78362999999999 52.3 121.27605999999999 C 55.6569 121.47925999999998 58.549 121.05288999999999 60.0864 120.89068999999999 C 63.4631 120.5345 67.19279999999999 119.57609 69.9453 118.60128999999999 C 73.0644 117.49678999999999 73.67320000000001 117.04529 75.6707 115.86178999999998 C 75.41438 117.17748999999999 74.79178999999999 118.53548999999998 73.804 119.44638999999998 C 77.1988 118.51233999999998 84.5 116.10858999999998 86.492 113.18778999999998 C 88.42960000000001 110.34708999999998 88.6011 107.29438999999998 85.49606 104.79498999999998 C 84.37326 103.94711999999998 84.02446 102.20388999999999 85.80693 103.01838999999998 C 86.38262999999999 102.27548999999998 87.77942999999999 99.73298999999999 88.11112999999999 97.98348999999999 C 88.80469999999998 94.32518999999999 87.26303999999999 88.12098999999999 84.18292999999998 85.58048999999998 C 86.17212999999998 86.36387999999998 88.95992999999999 89.36098999999999 90.04602999999999 91.03588999999998 C 92.92732999999998 88.06438999999997 93.77982999999999 82.90178999999998 93.11362999999999 77.98188999999998 C 92.24863999999998 71.59438999999998 90.01482999999999 69.80368999999997 84.73872999999999 66.65388999999998 C 87.88103 67.17236999999997 89.35952999999999 68.26308999999998 90.64312999999999 69.49988999999998 C 91.07395999999999 65.30678999999998 89.53032999999999 60.91018999999998 87.57032999999998 57.23688999999998 C 86.14692999999998 54.56948999999998 83.44992999999998 51.87148999999998 80.51992999999999 50.028289999999984 C 83.94032999999999 50.114629999999984 87.41302999999999 53.51388999999998 89.12062999999999 56.27218999999998 C 91.59983 60.276589999999985 92.78253 65.90458999999998 92.07222999999999 71.44718999999998 C 93.03661999999998 72.78418999999998 94.52242999999999 74.96578999999998 94.86393 78.08858999999998 C 95.54041 84.27488999999998 94.50883 91.21358999999998 90.70412999999999 93.90158999999998 C 91.66914999999999 97.15598999999999 90.38251 101.51788999999998 87.70593 104.18758999999999 C 90.11313 106.17888999999998 91.04643 109.78238999999999 88.33568 114.25858999999998 C 86.78168 116.82468999999999 84.66098 118.13408999999999 81.28078 119.45348999999999 C 79.41517999999999 120.18163999999999 75.12498 121.52008999999998 70.82378 121.81969 L 70.824 121.82 Z"/>
    <path d="M 53.23300000000001 38.291399999999996 C 54.78780000000001 34.554199999999994 61.30540000000001 36.2461 65.15100000000001 36.1063 C 68.23030000000001 38.9816 62.45710000000001 37.604499999999994 60.76290000000001 37.947199999999995 C 58.49390000000001 37.499019999999994 54.83650000000001 40.772099999999995 53.23330000000001 38.291399999999996 L 53.23300000000001 38.291399999999996 Z"/>
    <path d="M 79.14500000000001 52.1134 C 81.3568 54.2178 84.09980000000002 57.763999999999996 81.73200000000001 60.8533 C 82.04681000000001 57.4595 78.80560000000001 55.046 79.14500000000001 52.1134 Z"/>
    <path d="M 51.358000000000004 70.3714 C 47.75020000000001 68.8197 47.834700000000005 66.8059 52.5003 67.23949999999999 C 58.26990000000001 67.77573 64.35730000000001 66.34558999999999 69.8583 65.6411 C 73.4326 65.18339999999999 79.6065 64.4626 82.0793 65.98911 C 77.63300000000001 66.77681 72.9805 66.86216999999999 68.73830000000001 68.16771 C 63.82900000000001 69.67881 52.106300000000005 70.69361 51.35730000000001 70.37131 L 51.358000000000004 70.3714 Z"/>
    <path d="M 80.596 81.45739999999999 C 84.02000000000001 79.1686 80.41309 71.58749999999999 83.6639 70.67739999999999 C 84.9007 74.127 85.8776 81.26839999999999 80.8132 81.69839999999999 L 80.59599999999999 81.45814999999999 L 80.59598999999999 81.45813999999999 L 80.596 81.45739999999999 Z"/>
    <path d="M 53.449999999999996 87.362 C 49.500899999999994 84.25919999999999 50.5265 83.47489999999999 52.869989999999994 84.0454 C 55.36218999999999 84.65198 61.502289999999995 84.97002 63.28599 84.5484 C 67.27969 83.60422 75.42799 81.9044 78.75299 84.91386 C 75.25829 84.33696 68.64498999999999 86.01856 64.28999 86.72906 C 61.85849 87.12569 55.38329 88.88056 53.450990000000004 87.36200000000001 L 53.449999999999996 87.362 Z"/>
    <path d="M 82.6 97.05569999999999 C 83.8108 93.99619999999999 80.29799999999999 88.42989999999999 82.19145999999999 87.49359999999999 C 83.12356999999999 90.47789999999999 87.04875999999999 93.58049999999999 84.07906 96.25759999999998 C 83.92327 96.65709999999999 83.09327 98.11439999999999 82.60006 97.05564999999999 L 82.6 97.05569999999999 Z"/>
    <path d="M 61.945 106.08599999999998 C 60.0711 105.71217999999999 54.9168 101.75269999999999 57.4943 101.28989999999999 C 61.288700000000006 102.33019999999999 65.4706 104.36169999999998 69.58930000000001 103.28669999999998 C 73.7014 102.21329999999998 78.7141 101.31289999999998 82.50930000000001 103.00081999999998 C 78.50150000000001 103.54448999999998 75.76420000000002 104.51531999999997 71.89130000000002 105.23621999999997 C 68.76180000000002 105.81880999999997 65.21060000000001 106.73731999999997 61.94530000000002 106.08591999999997 L 61.945 106.08599999999998 Z"/>
    <path d="M 48.385 119.76399999999998 C 46.3056 119.39840999999998 41.901399999999995 116.75149999999998 42.8981 114.19579999999998 C 43.73829 115.91229999999997 48.9582 116.81199999999998 48.385 119.76399999999998 Z"/>
    <path d="M 38.189 89.85499999999999 C 37.6886 89.38909 38.19259 88.12729999999999 34.8376 85.2143 C 31.48261 82.3013 33.0927 77.36569999999999 35.74007 74.0953 C 37.958870000000005 71.354 35.06233 69.57459999999999 34.54927 66.92389999999999 C 33.82474 63.18079999999999 35.59517 58.968299999999985 38.98747 57.09709999999999 C 42.600970000000004 55.10399999999999 45.883070000000004 55.06009999999999 49.10747 52.05449999999999 C 50.16557 48.25009999999999 48.86924 40.49849999999999 48.28838 36.27749999999999 C 47.69623 31.97419999999999 45.99888 28.03929999999999 45.09307999999999 23.86249999999999 C 44.091179999999994 19.24289999999999 43.261379999999996 13.00149999999999 45.92594999999999 9.16049999999999 C 48.415949999999995 5.57099999999999 54.097049999999996 5.0985999999999905 57.68494999999999 6.7692999999999905 C 62.04274999999999 8.79859999999999 65.49525 10.70549999999999 67.98195 14.21929999999999 C 70.47555 17.74309999999999 74.24985 23.123899999999992 73.53515 27.67829999999999 C 72.37275 35.08609999999999 67.39275 42.13829999999999 68.40455 47.248299999999986 C 65.96775 43.09379999999999 71.27805000000001 33.68629999999999 71.74255 28.026299999999985 C 72.17491 22.705999999999985 68.97834999999999 18.510299999999987 66.51415 15.199299999999985 C 64.93105 13.072399999999984 61.28425 10.191199999999984 57.80755 8.822799999999985 C 54.96395 7.703599999999985 51.11435 6.473599999999985 47.98635 9.994399999999985 C 45.13815 13.012999999999984 46.04545 19.806599999999985 46.97545 23.390399999999985 C 48.26465 28.358599999999985 49.795550000000006 33.157099999999986 50.51185 39.07539999999999 C 50.97382 42.89219999999999 51.165060000000004 48.009199999999986 50.77422 52.05239999999999 C 52.38912 52.77149999999999 57.84632 50.488699999999994 60.97922 49.82319999999999 C 65.23992 48.918119999999995 70.42752 46.81199999999999 74.68922 49.446099999999994 C 68.52892 48.93046 63.87122000000001 50.385059999999996 58.46222 51.943 C 54.42882 53.1046 50.47292 54.6123 46.49922 55.897099999999995 C 43.45312 57.160399999999996 39.92832 58.35979999999999 37.78382 60.7818 C 35.85722 62.957699999999996 35.11042 65.33879999999999 37.64765 67.8152 C 41.03175 71.1182 37.02136 74.979 35.036249999999995 77.5998 C 32.36964999999999 81.1204 36.914649999999995 83.90990000000001 38.80005 86.3752 C 40.85875 89.06710000000001 39.30919 93.54790000000001 37.9634 96.68020000000001 C 36.5692 99.92560000000002 38.9921 99.93540000000002 40.9775 103.7592 C 42.1226 105.9646 39.8767 108.78370000000001 41.17236 110.947 C 37.39866 110.1741 40.39272 105.0674 38.92426 103.7282 C 34.97136 100.1235 35.647259999999996 99.7082 37.58786 94.6121 C 38.78966 91.4562 38.69036 90.3192 38.189949999999996 89.8533 L 38.189 89.85499999999999 Z"/>
  </g>
</svg>