<?xml version="1.0" encoding="utf-8"?>
<svg xmlns="http://www.w3.org/2000/svg" viewBox="0 0 64 64" width="512" height="512">
  <linearGradient id="1KOO0lgtaq_hZGCmmfPvVa" x1="38" x2="38" y1="37" y2="43" gradientUnits="userSpaceOnUse" spreadMethod="reflect">
    <stop offset="0" stop-color="#6dc7ff" />
    <stop offset="1" stop-color="#e6abff" />
  </linearGradient>
  <path fill="url(#1KOO0lgtaq_hZGCmmfPvVa)" d="M55,42H21c-1.105,0-2-0.895-2-2v-2h36c1.105,0,2,0.895,2,2v0C57,41.105,56.105,42,55,42z" />
  <linearGradient id="1KOO0lgtaq_hZGCmmfPvVb" x1="32" x2="32" y1="7.5" y2="55.821" gradientUnits="userSpaceOnUse" spreadMethod="reflect">
    <stop offset="0" stop-color="#1a6dff" />
    <stop offset="1" stop-color="#c822ff" />
  </linearGradient>
  <path fill="url(#1KOO0lgtaq_hZGCmmfPvVb)" d="M55,37h-4v-1c0-1.654-1.346-3-3-3h-3.586l-5-5l5-5H48c1.654,0,3-1.346,3-3s-1.346-3-3-3H28 c-1.654,0-3,1.346-3,3s1.346,3,3,3h3.586l5,5l-5,5H28c-1.654,0-3,1.346-3,3v1h-5V12c0-1.654-1.346-3-3-3H9.5C7.57,9,6,10.57,6,12.5 S7.57,16,9.5,16H13c1.654,0,3-1.346,3-3v-1h-2v1c0,0.552-0.448,1-1,1H9.5C8.673,14,8,13.327,8,12.5S8.673,11,9.5,11H17 c0.552,0,1,0.448,1,1v25v1v2c0,1.654,1.346,3,3,3h34c1.654,0,3-1.346,3-3S56.654,37,55,37z M27,20c0-0.552,0.448-1,1-1h20 c0.552,0,1,0.448,1,1s-0.448,1-1,1H28C27.448,21,27,20.552,27,20z M34.414,23h7.172L38,26.586L34.414,23z M38,29.414L41.586,33 h-7.172L38,29.414z M27,36c0-0.552,0.448-1,1-1h20c0.552,0,1,0.448,1,1v1H27V36z M55,41H21c-0.552,0-1-0.448-1-1v-1h5h26h4 c0.552,0,1,0.448,1,1S55.552,41,55,41z" />
  <linearGradient id="1KOO0lgtaq_hZGCmmfPvVc" x1="38" x2="38" y1="7.5" y2="55.821" gradientUnits="userSpaceOnUse" spreadMethod="reflect">
    <stop offset="0" stop-color="#1a6dff" />
    <stop offset="1" stop-color="#c822ff" />
  </linearGradient>
  <path fill="url(#1KOO0lgtaq_hZGCmmfPvVc)" d="M50,45c-2.415,0-4.434,1.721-4.899,4H30.899c-0.465-2.279-2.484-4-4.899-4 c-2.757,0-5,2.243-5,5s2.243,5,5,5c2.415,0,4.434-1.721,4.899-4h14.202c0.465,2.279,2.484,4,4.899,4c2.757,0,5-2.243,5-5 S52.757,45,50,45z M26,53c-1.654,0-3-1.346-3-3s1.346-3,3-3s3,1.346,3,3S27.654,53,26,53z M50,53c-1.654,0-3-1.346-3-3s1.346-3,3-3 s3,1.346,3,3S51.654,53,50,53z" />
</svg>