<?xml version="1.0" encoding="utf-8"?>
<svg xmlns="http://www.w3.org/2000/svg" viewBox="0 0 64 64" width="512" height="512">
  <linearGradient id="eDyoI_LKgG86AusTid_w9a" x1="33.5" x2="33.5" y1="27.25" y2="36.583" gradientUnits="userSpaceOnUse">
    <stop offset="0" stop-color="#6dc7ff" />
    <stop offset="1" stop-color="#e6abff" />
  </linearGradient>
  <path fill="url(#eDyoI_LKgG86AusTid_w9a)" d="M39.501,31.134L28.5,24.783c-0.667-0.385-1.5,0.096-1.5,0.866v12.702c0,0.77,0.833,1.251,1.5,0.866l11.001-6.351C40.167,32.481,40.167,31.519,39.501,31.134z" />
  <linearGradient id="eDyoI_LKgG86AusTid_w9b" x1="32" x2="32" y1="11.417" y2="47.781" gradientUnits="userSpaceOnUse">
    <stop offset="0" stop-color="#1a6dff" />
    <stop offset="1" stop-color="#c822ff" />
  </linearGradient>
  <path fill="url(#eDyoI_LKgG86AusTid_w9b)" d="M53,9H11c-1.654,0-3,1.346-3,3v40c0,1.654,1.346,3,3,3h14h28c1.654,0,3-1.346,3-3V12 C56,10.346,54.654,9,53,9z M45,11h4v4h-4V11z M39,11h4v4h-4V11z M33,11h4v4h-4V11z M27,11h4v4h-4V11z M21,11h4v4h-4V11z M15,11h4v4 h-4V11z M10,12c0-0.551,0.449-1,1-1h2v4h-3V12z M13,53h-2c-0.551,0-1-0.449-1-1v-3h3V53z M19,53h-4v-4h4V53z M25,53h-4v-4h4V53z M31,53h-4v-4h4V53z M37,53h-4v-4h4V53z M43,53h-4v-4h4V53z M49,53h-4v-4h4V53z M54,52c0,0.551-0.449,1-1,1h-2v-4h3V52z M54,47H10 V17h44V47z M54,13v2h-3v-4h2c0.551,0,1,0.449,1,1V13z" />
  <linearGradient id="eDyoI_LKgG86AusTid_w9c" x1="33.501" x2="33.501" y1="11.417" y2="47.781" gradientUnits="userSpaceOnUse">
    <stop offset="0" stop-color="#1a6dff" />
    <stop offset="1" stop-color="#c822ff" />
  </linearGradient>
  <path fill="url(#eDyoI_LKgG86AusTid_w9c)" d="M27,40.083c0.313,0.181,0.657,0.271,1,0.271c0.344,0,0.687-0.09,1-0.271l11-6.352 c0.626-0.361,1-1.009,1-1.732s-0.374-1.371-1-1.732v0l-11-6.351c-0.625-0.361-1.374-0.362-2,0c-0.626,0.361-1,1.009-1,1.732v12.702 C26,39.074,26.374,39.722,27,40.083z M28,25.649L39,32l-11,6.351V25.649z" />
</svg>