<?xml version="1.0" encoding="utf-8"?>
<svg xmlns="http://www.w3.org/2000/svg" viewBox="0 0 64 64" width="512" height="512">
  <linearGradient id="k1WVhqmX4fiPMxf7ree2Ba" x1="32" x2="32" y1="-32.502" y2="-39.502" gradientTransform="matrix(1 0 0 -1 0 -18)" gradientUnits="userSpaceOnUse" spreadMethod="reflect">
    <stop offset="0" stop-color="#6dc7ff" />
    <stop offset="1" stop-color="#e6abff" />
  </linearGradient>
  <path fill="url(#k1WVhqmX4fiPMxf7ree2Ba)" d="M32 15.001999999999999A3 3 0 1 0 32 21.002A3 3 0 1 0 32 15.001999999999999Z" />
  <linearGradient id="k1WVhqmX4fiPMxf7ree2Bb" x1="48" x2="48" y1="28.834" y2="45.167" gradientUnits="userSpaceOnUse" spreadMethod="reflect">
    <stop offset="0" stop-color="#6dc7ff" />
    <stop offset="1" stop-color="#e6abff" />
  </linearGradient>
  <path fill="url(#k1WVhqmX4fiPMxf7ree2Bb)" d="M47 30H49V44H47z" />
  <linearGradient id="k1WVhqmX4fiPMxf7ree2Bc" x1="16" x2="16" y1="28.834" y2="45.167" gradientUnits="userSpaceOnUse" spreadMethod="reflect">
    <stop offset="0" stop-color="#6dc7ff" />
    <stop offset="1" stop-color="#e6abff" />
  </linearGradient>
  <path fill="url(#k1WVhqmX4fiPMxf7ree2Bc)" d="M15 30H17V44H15z" />
  <linearGradient id="k1WVhqmX4fiPMxf7ree2Bd" x1="32" x2="32" y1="24.167" y2="49.834" gradientUnits="userSpaceOnUse" spreadMethod="reflect">
    <stop offset="0" stop-color="#6dc7ff" />
    <stop offset="1" stop-color="#e6abff" />
  </linearGradient>
  <path fill="url(#k1WVhqmX4fiPMxf7ree2Bd)" d="M21,26v22h22V26H21z M37,33h-8v3h6c1.103,0,2,0.897,2,2v3c0,1.103-0.897,2-2,2h-2v2h-2v-2h-4 v-2h8v-3h-6c-1.103,0-2-0.897-2-2v-3c0-1.103,0.897-2,2-2h2v-2h2v2h4V33z" />
  <linearGradient id="k1WVhqmX4fiPMxf7ree2Be" x1="32" x2="32" y1="5.998" y2="58" gradientUnits="userSpaceOnUse" spreadMethod="reflect">
    <stop offset="0" stop-color="#1a6dff" />
    <stop offset="1" stop-color="#c822ff" />
  </linearGradient>
  <path fill="url(#k1WVhqmX4fiPMxf7ree2Be)" d="M32,22c-2.206,0-4-1.794-4-4s1.794-4,4-4s4,1.794,4,4S34.206,22,32,22z M32,16 c-1.103,0-2,0.897-2,2s0.897,2,2,2s2-0.897,2-2S33.103,16,32,16z M40.5,20c-0.827,0-1.5-0.673-1.5-1.5s0.673-1.5,1.5-1.5 s1.5,0.673,1.5,1.5S41.327,20,40.5,20z M40.5,18.499V18.5V18.499z M23.5,20c-0.827,0-1.5-0.673-1.5-1.5s0.673-1.5,1.5-1.5 s1.5,0.673,1.5,1.5S24.327,20,23.5,20z M23.5,18.499V18.5V18.499z M56,26c1.103,0,2-0.891,2-1.989v-0.483 c0-0.641-0.313-1.246-0.857-1.634L34.806,6.858c-1.705-1.147-3.906-1.147-5.611,0L6.836,21.909C6.312,22.282,6,22.887,6,23.528 v0.483C6,25.109,6.897,26,8,26h3v22.002c-1.654,0-3,1.346-3,3v1.184c-1.161,0.415-2,1.514-2,2.816V58h52v-2.998 c0-1.302-0.839-2.401-2-2.816v-1.184c0-1.654-1.346-3-3-3V26H56z M56,55.002V56H8v-0.998C8,54.45,8.448,54,9,54h46 C55.552,54,56,54.45,56,55.002z M54,51.002V52H10v-0.998C10,50.45,10.448,50,11,50h10h6h10h6h10C53.552,50,54,50.45,54,51.002z M19,30v14h-6V30H19z M13,28v-2h6v2H13z M19,46v2h-6v-2H19z M21,48V26h2h4h2h6h2h2h4v22h-4h-2h-2h-6h-2h-4H21z M51,30v14h-6V30H51z M45,28v-2h6v2H45z M51,46v2h-6v-2H51z M43,24h-6H27v0.008l-6,0.001V24H11H8l-0.025-0.452L30.312,8.514 c0.512-0.346,1.1-0.517,1.688-0.517s1.176,0.173,1.688,0.519L56,23.526L56.003,24c0,0-0.001,0-0.003,0h-3H43z" />
</svg>