<?xml version="1.0" encoding="utf-8"?>
<svg xmlns="http://www.w3.org/2000/svg" viewBox="0 0 64 64" width="512" height="512">
  <linearGradient id="YLinLmj~Sz8T99pZT_n9ua" x1="36" x2="36" y1="47.128" y2="52.152" gradientUnits="userSpaceOnUse">
    <stop offset="0" stop-color="#6dc7ff" />
    <stop offset="1" stop-color="#e6abff" />
  </linearGradient>
  <path fill="url(#YLinLmj~Sz8T99pZT_n9ua)" d="M35.168,53.752l-4.003-6.004C30.667,47.001,31.203,46,32.1,46H39.9c0.898,0,1.433,1.001,0.935,1.748l-4.003,6.004C36.436,54.346,35.564,54.346,35.168,53.752z" />
  <linearGradient id="YLinLmj~Sz8T99pZT_n9ub" x1="27" x2="27" y1="35.213" y2="40.538" gradientUnits="userSpaceOnUse">
    <stop offset="0" stop-color="#6dc7ff" />
    <stop offset="1" stop-color="#e6abff" />
  </linearGradient>
  <path fill="url(#YLinLmj~Sz8T99pZT_n9ub)" d="M26.168,34.248l-4.003,6.004C21.667,40.999,22.203,42,23.1,42H30.9c0.898,0,1.433-1.001,0.935-1.748l-4.003-6.004C27.436,33.654,26.564,33.654,26.168,34.248z" />
  <linearGradient id="YLinLmj~Sz8T99pZT_n9uc" x1="36" x2="36" y1="10.319" y2="57.865" gradientUnits="userSpaceOnUse">
    <stop offset="0" stop-color="#1a6dff" />
    <stop offset="1" stop-color="#c822ff" />
  </linearGradient>
  <path fill="url(#YLinLmj~Sz8T99pZT_n9uc)" d="M39.9,45H37V33h-2v12h-2.9c-0.785,0-1.502,0.43-1.873,1.122 c-0.37,0.692-0.329,1.527,0.106,2.18l4.003,6.005c0.372,0.558,0.994,0.891,1.664,0.891s1.292-0.333,1.664-0.891l4.002-6.004 c0.436-0.653,0.477-1.488,0.106-2.181C41.402,45.43,40.685,45,39.9,45z M40.003,47.192l-4,6.008L36,53.197l-4.003-6.006 c-0.011-0.017-0.041-0.061-0.006-0.126C32.026,47,32.08,47,32.1,47h7.8c0.02,0,0.074,0,0.109,0.065 C40.044,47.131,40.014,47.175,40.003,47.192z" />
  <linearGradient id="YLinLmj~Sz8T99pZT_n9ud" x1="32" x2="32" y1="10.319" y2="57.865" gradientUnits="userSpaceOnUse">
    <stop offset="0" stop-color="#1a6dff" />
    <stop offset="1" stop-color="#c822ff" />
  </linearGradient>
  <path fill="url(#YLinLmj~Sz8T99pZT_n9ud)" d="M51.201,26.294C51.727,24.93,52,23.492,52,22c0-6.617-5.383-12-12-12 c-5.162,0-9.657,3.283-11.317,8.022c-0.061-0.05-0.13-0.089-0.192-0.137C26.933,16.679,24.973,16,23,16c-4.962,0-9,4.037-9,9v3 c-4.411,0-8,3.589-8,8s3.589,8,8,8h1v1c0,1.654,1.346,3,3,3h2v-2h-2c-0.551,0-1-0.448-1-1v-1h3v-2h-6c-3.309,0-6-2.691-6-6 c0-3.309,2.691-6,6-6h4v-2h-2v-3c0-3.859,3.14-7,7-7c2.592,0,5.065,1.53,6.235,3.839C29.721,22.789,30,23.861,30,25h2 c0-1.456-0.355-2.827-0.968-4.045c-0.006-0.011-0.013-0.021-0.019-0.032c-0.184-0.359-0.387-0.706-0.616-1.036 c-0.016-0.023-0.132-0.144-0.126-0.168C31.32,15.22,35.332,12,40,12c5.514,0,10,4.486,10,10c0,1.403-0.298,2.744-0.854,4.008 L46.002,26l-0.005,2l3.141,0.008C52.922,28.082,56,31.219,56,35c0,3.859-3.14,7-7,7h-5v2h3v1c0,0.552-0.449,1-1,1h-2v2h2 c1.654,0,3-1.346,3-3v-1c4.962,0,9-4.037,9-9C58,30.838,55.097,27.293,51.201,26.294z" />
  <linearGradient id="YLinLmj~Sz8T99pZT_n9ue" x1="27" x2="27" y1="10.319" y2="57.865" gradientUnits="userSpaceOnUse">
    <stop offset="0" stop-color="#1a6dff" />
    <stop offset="1" stop-color="#c822ff" />
  </linearGradient>
  <path fill="url(#YLinLmj~Sz8T99pZT_n9ue)" d="M32.773,41.878c0.37-0.692,0.329-1.527-0.106-2.18l-4.003-6.005 c-0.372-0.558-0.994-0.891-1.664-0.891s-1.292,0.333-1.664,0.891l-4.002,6.004c-0.436,0.653-0.477,1.488-0.106,2.181 C21.598,42.57,22.315,43,23.1,43H26v12h2V43h2.9C31.685,43,32.402,42.57,32.773,41.878z M23.1,41c-0.02,0-0.074,0-0.109-0.065 c-0.035-0.065-0.005-0.109,0.006-0.127L27,34.803l4.003,6.006c0.011,0.017,0.041,0.061,0.006,0.126C30.974,41,30.92,41,30.9,41 H23.1z" />
  <linearGradient id="YLinLmj~Sz8T99pZT_n9uf" x1="44" x2="44" y1="10.319" y2="57.865" gradientUnits="userSpaceOnUse">
    <stop offset="0" stop-color="#1a6dff" />
    <stop offset="1" stop-color="#c822ff" />
  </linearGradient>
  <path fill="url(#YLinLmj~Sz8T99pZT_n9uf)" d="M46,22h2c0-4.411-3.589-8-8-8v2C43.309,16,46,18.691,46,22z" />
  <linearGradient id="YLinLmj~Sz8T99pZT_n9ug" x1="42" x2="42" y1="10.319" y2="57.865" gradientUnits="userSpaceOnUse">
    <stop offset="0" stop-color="#1a6dff" />
    <stop offset="1" stop-color="#c822ff" />
  </linearGradient>
  <path fill="url(#YLinLmj~Sz8T99pZT_n9ug)" d="M40,20c1.103,0,2,0.897,2,2h2c0-2.206-1.794-4-4-4V20z" />
  <linearGradient id="YLinLmj~Sz8T99pZT_n9uh" x1="20.5" x2="20.5" y1="10.319" y2="57.865" gradientUnits="userSpaceOnUse">
    <stop offset="0" stop-color="#1a6dff" />
    <stop offset="1" stop-color="#c822ff" />
  </linearGradient>
  <path fill="url(#YLinLmj~Sz8T99pZT_n9uh)" d="M23,20c-2.757,0-5,2.243-5,5h2c0-1.654,1.346-3,3-3V20z" />
</svg>