<?xml version="1.0" encoding="utf-8"?>
<svg xmlns="http://www.w3.org/2000/svg" viewBox="0 0 64 64" width="512" height="512">
  <linearGradient id="XwxUo41cJrAP6cazscBlva" x1="32" x2="32" y1="10.404" y2="52.214" gradientUnits="userSpaceOnUse">
    <stop offset="0" stop-color="#1a6dff" />
    <stop offset="1" stop-color="#c822ff" />
  </linearGradient>
  <path fill="url(#XwxUo41cJrAP6cazscBlva)" d="M41.5,10h-13c-7.896,0-14.508,5.579-16.118,13H9c-1.654,0-3,1.346-3,3v18 c0,1.654,1.346,3,3,3h4.904c0.591,0,1.093,0.451,1.096,1c0,1.654-1.346,3-3,3v2h3c3.319,0,8.108-2.465,8.89-6h6.527l2.036,2.407 c0.551,0.888,1.496,1.415,2.547,1.415s1.996-0.527,2.547-1.415l3.538-4.158l0.104-0.148c0.725-1.255,1.966-2.132,3.403-2.405 C52.361,41.224,58,34.412,58,26.5C58,17.402,50.598,10,41.5,10z M22,45v1c0,2.238-3.142,4.432-5.938,4.906 C16.652,50.081,17,49.069,17,47.972C16.99,46.333,15.602,45,13.904,45H9c-0.552,0-1-0.449-1-1V26c0-0.551,0.448-1,1-1h3.076 C12.031,25.495,12,25.994,12,26.5c0,7.912,5.639,14.724,13.407,16.197c1.395,0.265,2.596,1.106,3.329,2.303H22z M44.22,40.732 c-1.979,0.375-3.692,1.572-4.715,3.288l-3.534,4.154l-0.104,0.147c-0.261,0.452-0.692,0.5-0.866,0.5s-0.605-0.049-0.866-0.5 l-3.639-4.301c-1.022-1.716-2.736-2.913-4.715-3.288C18.954,39.438,14,33.452,14,26.5C14,18.505,20.505,12,28.5,12h13 C49.495,12,56,18.505,56,26.5C56,33.452,51.046,39.438,44.22,40.732z" />
  <linearGradient id="XwxUo41cJrAP6cazscBlvb" x1="35" x2="35" y1="10.404" y2="52.214" gradientUnits="userSpaceOnUse">
    <stop offset="0" stop-color="#1a6dff" />
    <stop offset="1" stop-color="#c822ff" />
  </linearGradient>
  <rect width="12" height="2" x="29" y="15" fill="url(#XwxUo41cJrAP6cazscBlvb)" />
  <linearGradient id="XwxUo41cJrAP6cazscBlvc" x1="28" x2="28" y1="23.085" y2="28.575" gradientUnits="userSpaceOnUse">
    <stop offset="0" stop-color="#6dc7ff" />
    <stop offset="1" stop-color="#e6abff" />
  </linearGradient>
  <circle cx="28" cy="26" r="3" fill="url(#XwxUo41cJrAP6cazscBlvc)" />
  <linearGradient id="XwxUo41cJrAP6cazscBlvd" x1="42" x2="42" y1="23.021" y2="28.899" gradientUnits="userSpaceOnUse">
    <stop offset="0" stop-color="#6dc7ff" />
    <stop offset="1" stop-color="#e6abff" />
  </linearGradient>
  <circle cx="42" cy="26" r="3" fill="url(#XwxUo41cJrAP6cazscBlvd)" />
  <linearGradient id="XwxUo41cJrAP6cazscBlve" x1="35" x2="35" y1="31.128" y2="37.924" gradientUnits="userSpaceOnUse">
    <stop offset="0" stop-color="#6dc7ff" />
    <stop offset="1" stop-color="#e6abff" />
  </linearGradient>
  <path fill="url(#XwxUo41cJrAP6cazscBlve)" d="M35,38L35,38c-2.761,0-5-2.239-5-5v-1c0-0.552,0.448-1,1-1h8c0.552,0,1,0.448,1,1v1C40,35.761,37.761,38,35,38z" />
</svg>