<?xml version="1.0" encoding="utf-8"?>
<svg xmlns="http://www.w3.org/2000/svg" viewBox="0 0 32 32" width="512" height="512">
  <path d="M5 6C4.449219 6 4 6.449219 4 7C4 7.550781 4.449219 8 5 8L7.21875 8L9.84375 18.5C10.066406 19.390625 10.863281 20 11.78125 20L24.25 20C25.152344 20 25.917969 19.402344 26.15625 18.53125L28.75 9L26.65625 9L24.25 18L11.78125 18L9.15625 7.5C8.933594 6.609375 8.136719 6 7.21875 6 Z M 23 20C21.355469 20 20 21.355469 20 23C20 24.644531 21.355469 26 23 26C24.644531 26 26 24.644531 26 23C26 21.355469 24.644531 20 23 20 Z M 14 20C12.355469 20 11 21.355469 11 23C11 24.644531 12.355469 26 14 26C15.644531 26 17 24.644531 17 23C17 21.355469 15.644531 20 14 20 Z M 18 6L14 10L17 10L17 15L19 15L19 10L22 10 Z M 14 22C14.5625 22 15 22.4375 15 23C15 23.5625 14.5625 24 14 24C13.4375 24 13 23.5625 13 23C13 22.4375 13.4375 22 14 22 Z M 23 22C23.5625 22 24 22.4375 24 23C24 23.5625 23.5625 24 23 24C22.4375 24 22 23.5625 22 23C22 22.4375 22.4375 22 23 22Z" fill="#5B5B5B" />
</svg>