<?xml version="1.0" encoding="utf-8"?>
<svg xmlns="http://www.w3.org/2000/svg" viewBox="0 0 64 64" width="512" height="512">
  <linearGradient id="2mbeXzMdOEqJXMdkNFwuBa" x1="20" x2="20" y1="22.5" y2="33.68" gradientUnits="userSpaceOnUse" spreadMethod="reflect">
    <stop offset="0" stop-color="#6dc7ff" />
    <stop offset="1" stop-color="#e6abff" />
  </linearGradient>
  <path fill="url(#2mbeXzMdOEqJXMdkNFwuBa)" d="M30,23c0,6-4.477,10-10,10s-10-4-10-10H30z" />
  <linearGradient id="2mbeXzMdOEqJXMdkNFwuBb" x1="20" x2="20" y1="7" y2="57.26" gradientUnits="userSpaceOnUse" spreadMethod="reflect">
    <stop offset="0" stop-color="#1a6dff" />
    <stop offset="1" stop-color="#c822ff" />
  </linearGradient>
  <path fill="url(#2mbeXzMdOEqJXMdkNFwuBb)" d="M6,23c0,7.382,5.747,13.433,13,13.949V40v7c0,3.859-3.141,7-7,7h-2v2h20v-2h-2 c-3.859,0-7-3.141-7-7v-7v-3.051C28.253,36.433,34,30.382,34,23V8H6V23z M22.355,54h-4.711c0.974-0.787,1.777-1.773,2.355-2.896 C20.578,52.227,21.381,53.213,22.355,54z M8,10h24v13c0,6.617-5.383,12-12,12S8,29.617,8,23V10z" />
  <linearGradient id="2mbeXzMdOEqJXMdkNFwuBc" x1="49" x2="49" y1="7" y2="57.26" gradientUnits="userSpaceOnUse" spreadMethod="reflect">
    <stop offset="0" stop-color="#1a6dff" />
    <stop offset="1" stop-color="#c822ff" />
  </linearGradient>
  <path fill="url(#2mbeXzMdOEqJXMdkNFwuBc)" d="M56,8v14c0,3.859-3.141,7-7,7s-7-3.141-7-7V8h-2v14c0,3.867,2.456,7.163,5.887,8.434 L44.31,50.936c-0.1,1.302,0.352,2.599,1.239,3.557S47.694,56,49,56s2.563-0.55,3.451-1.508s1.339-2.255,1.239-3.558l-1.577-20.501 C55.544,29.163,58,25.867,58,22V8H56z M51.696,51.088c0.059,0.76-0.194,1.486-0.713,2.046c-1.035,1.117-2.932,1.117-3.967,0 c-0.519-0.56-0.771-1.286-0.713-2.045l1.552-20.17C48.231,30.967,48.611,31,49,31s0.769-0.033,1.145-0.081L51.696,51.088z" />
  <linearGradient id="2mbeXzMdOEqJXMdkNFwuBd" x1="49" x2="49" y1="7" y2="57.26" gradientUnits="userSpaceOnUse" spreadMethod="reflect">
    <stop offset="0" stop-color="#1a6dff" />
    <stop offset="1" stop-color="#c822ff" />
  </linearGradient>
  <path fill="url(#2mbeXzMdOEqJXMdkNFwuBd)" d="M48 10H50V22H48z" />
  <linearGradient id="2mbeXzMdOEqJXMdkNFwuBe" x1="20" x2="20" y1="7" y2="57.26" gradientUnits="userSpaceOnUse" spreadMethod="reflect">
    <stop offset="0" stop-color="#1a6dff" />
    <stop offset="1" stop-color="#c822ff" />
  </linearGradient>
  <path fill="url(#2mbeXzMdOEqJXMdkNFwuBe)" d="M10 12H30V14H10z" />
  <linearGradient id="2mbeXzMdOEqJXMdkNFwuBf" x1="49" x2="49" y1="7" y2="57.26" gradientUnits="userSpaceOnUse" spreadMethod="reflect">
    <stop offset="0" stop-color="#1a6dff" />
    <stop offset="1" stop-color="#c822ff" />
  </linearGradient>
  <path fill="url(#2mbeXzMdOEqJXMdkNFwuBf)" d="M49,26c2.415,0,4.434-1.721,4.899-4L54,21V10h-2v11c0,1.654-1.346,3-3,3s-3-1.346-3-3V10h-2 v11l0.101,1C44.566,24.279,46.585,26,49,26z" />
</svg>