<?xml version="1.0" encoding="utf-8"?>
<svg xmlns="http://www.w3.org/2000/svg" viewBox="0 0 64 64" width="512" height="512">
  <path d="M6.71875 2C5.226563 2 3.980469 3.070313 3.75 4.546875L2 15.9375C0.742188 24.089844 4.847656 32.0625 12.207031 35.78125L17.328125 38.371094C17.679688 38.546875 17.894531 38.921875 17.875 39.316406L17.160156 52.519531C17.089844 53.84375 16.175781 54.949219 14.886719 55.269531L9.28125 56.652344C7.9375 56.984375 7 58.183594 7 59.566406L7 60C7 61.101563 7.898438 62 9 62L33 62C34.101563 62 35 61.101563 35 60L35 59.566406C35 58.183594 34.0625 56.984375 32.71875 56.652344L27.113281 55.269531C25.824219 54.949219 24.910156 53.84375 24.839844 52.515625L24.125 39.3125C24.105469 38.917969 24.320313 38.546875 24.671875 38.367188L29.792969 35.78125C37.152344 32.0625 41.257813 24.089844 40 15.9375L38.25 4.546875C38.019531 3.070313 36.773438 2 35.28125 2 Z M 49.734375 2C48.25 2 46.976563 3.105469 46.765625 4.570313L44.324219 21.503906C44.078125 23.199219 44.707031 24.882813 46 26L49.972656 29.433594L48.308594 56.949219C48.210938 58.535156 48.757813 60.046875 49.847656 61.203125C50.9375 62.363281 52.410156 63 54 63C55.589844 63 57.066406 62.363281 58.15625 61.203125C59.246094 60.046875 59.792969 58.535156 59.695313 56.949219L58.027344 29.4375L61.949219 26.132813C63.273438 25.015625 63.921875 23.320313 63.675781 21.601563L61.234375 4.574219C61.023438 3.105469 59.75 2 58.265625 2 Z M 6.71875 4L35.28125 4C35.78125 4 36.195313 4.355469 36.269531 4.851563L38.027344 16.238281C39.148438 23.535156 35.476563 30.671875 28.890625 34L23.769531 36.582031C22.710938 37.121094 22.066406 38.234375 22.128906 39.421875L22.84375 52.625C22.960938 54.835938 24.488281 56.679688 26.636719 57.210938L32.238281 58.59375C32.6875 58.707031 33 59.105469 33 59.566406L33 60L9 60L9 59.566406C9 59.105469 9.3125 58.703125 9.757813 58.59375L15.363281 57.210938C17.515625 56.679688 19.039063 54.835938 19.15625 52.625L19.871094 39.421875C19.933594 38.234375 19.292969 37.121094 18.230469 36.582031L13.109375 33.996094C6.523438 30.671875 2.851563 23.535156 3.976563 16.238281L4.320313 14L26 14C26.554688 14 27 13.554688 27 13C27 12.445313 26.554688 12 26 12L4.625 12L5.726563 4.851563C5.804688 4.355469 6.21875 4 6.71875 4 Z M 49.734375 4L51 4L50 19.9375C49.96875 20.488281 50.386719 20.964844 50.9375 21C50.957031 21 50.980469 21 51 21C51.523438 21 51.964844 20.59375 52 20.0625L53 4.0625C53 4.042969 52.988281 4.023438 52.988281 4L55.011719 4C55.011719 4.023438 55 4.042969 55 4.0625L56 20.0625C56.035156 20.59375 56.476563 21 57 21C57.019531 21 57.042969 21 57.0625 21C57.613281 20.964844 58.03125 20.488281 58 19.9375L57 4L58.265625 4C58.761719 4 59.1875 4.367188 59.253906 4.859375L61.695313 21.886719C61.84375 22.917969 61.457031 23.933594 60.660156 24.605469L56.355469 28.234375C56.335938 28.253906 56.328125 28.277344 56.3125 28.292969C56.261719 28.339844 56.222656 28.394531 56.183594 28.453125C56.148438 28.503906 56.113281 28.554688 56.089844 28.609375C56.066406 28.667969 56.054688 28.726563 56.039063 28.785156C56.023438 28.855469 56.011719 28.921875 56.011719 28.988281C56.011719 29.015625 56 29.035156 56 29.0625L56.179688 32L51.820313 32L52 29.0625C52 29.039063 51.988281 29.019531 51.988281 29C51.988281 28.925781 51.976563 28.859375 51.960938 28.789063C51.949219 28.730469 51.9375 28.671875 51.914063 28.621094C51.890625 28.558594 51.851563 28.507813 51.816406 28.453125C51.777344 28.398438 51.742188 28.347656 51.695313 28.296875C51.679688 28.28125 51.671875 28.257813 51.65625 28.246094L47.308594 24.488281C46.53125 23.816406 46.15625 22.808594 46.300781 21.792969L48.742188 4.859375C48.8125 4.367188 49.238281 4 49.734375 4 Z M 30 12C29.445313 12 29 12.445313 29 13C29 13.554688 29.445313 14 30 14L34 14C34.554688 14 35 13.554688 35 13C35 12.445313 34.554688 12 34 12 Z M 9.546875 18.371094C9.417969 18.382813 9.289063 18.421875 9.167969 18.488281L7.261719 19.5625C6.78125 19.832031 6.609375 20.445313 6.878906 20.925781C7.0625 21.25 7.402344 21.4375 7.75 21.4375C7.917969 21.4375 8.085938 21.394531 8.242188 21.308594L10.148438 20.234375C10.628906 19.964844 10.800781 19.355469 10.53125 18.875C10.324219 18.511719 9.933594 18.324219 9.546875 18.371094 Z M 11.832031 22.6875C11.578125 22.675781 11.316406 22.757813 11.113281 22.941406L9.425781 24.460938C9.015625 24.828125 8.980469 25.460938 9.351563 25.871094C9.546875 26.089844 9.820313 26.203125 10.09375 26.203125C10.332031 26.203125 10.570313 26.121094 10.761719 25.949219L12.449219 24.433594C12.859375 24.0625 12.894531 23.429688 12.527344 23.019531C12.339844 22.8125 12.089844 22.703125 11.832031 22.6875 Z M 14.875 26.015625C14.621094 26.054688 14.382813 26.191406 14.21875 26.414063L12.863281 28.269531C12.539063 28.714844 12.636719 29.339844 13.082031 29.667969C13.261719 29.796875 13.46875 29.859375 13.671875 29.859375C13.980469 29.859375 14.285156 29.714844 14.480469 29.449219L15.835938 27.59375C16.160156 27.148438 16.0625 26.519531 15.617188 26.195313C15.394531 26.03125 15.125 25.976563 14.875 26.015625 Z M 19.199219 28.089844C18.808594 28.078125 18.433594 28.300781 18.261719 28.675781L17.328125 30.746094C17.101563 31.25 17.328125 31.84375 17.832031 32.066406C17.964844 32.128906 18.105469 32.15625 18.242188 32.15625C18.625 32.15625 18.988281 31.9375 19.15625 31.566406L20.085938 29.5C20.3125 28.992188 20.089844 28.402344 19.582031 28.175781C19.457031 28.121094 19.328125 28.089844 19.199219 28.089844 Z M 51.699219 34L56.300781 34L56.421875 36L51.578125 36 Z M 51.453125 38L56.542969 38L57.699219 57.066406C57.761719 58.101563 57.40625 59.082031 56.699219 59.832031C55.988281 60.585938 55.03125 61 54 61C52.96875 61 52.011719 60.585938 51.300781 59.832031C50.59375 59.082031 50.238281 58.101563 50.300781 57.066406Z" fill="#5B5B5B" />
</svg>