<?xml version="1.0" encoding="utf-8"?>
<svg xmlns="http://www.w3.org/2000/svg" viewBox="0 0 64 64" width="512" height="512">
  <linearGradient id="n1CKQtXvQIKS2RSzGvKIHa" x1="13" x2="24" y1="20.5" y2="20.5" gradientUnits="userSpaceOnUse" spreadMethod="reflect">
    <stop offset="0" stop-color="#6dc7ff" />
    <stop offset="1" stop-color="#e6abff" />
  </linearGradient>
  <path fill="url(#n1CKQtXvQIKS2RSzGvKIHa)" d="M21.5,26c-0.64,0-1.279-0.244-1.768-0.732l-6-6c-0.977-0.976-0.977-2.559,0-3.535 c0.977-0.977,2.559-0.977,3.535,0l6,6c0.977,0.976,0.977,2.559,0,3.535C22.779,25.756,22.14,26,21.5,26z" />
  <linearGradient id="n1CKQtXvQIKS2RSzGvKIHb" x1="34" x2="34" y1="43" y2="45" gradientUnits="userSpaceOnUse" spreadMethod="reflect">
    <stop offset="0" stop-color="#6dc7ff" />
    <stop offset="1" stop-color="#e6abff" />
  </linearGradient>
  <path fill="url(#n1CKQtXvQIKS2RSzGvKIHb)" d="M20 43H48V45H20z" />
  <linearGradient id="n1CKQtXvQIKS2RSzGvKIHc" x1="49.499" x2="49.499" y1="312.472" y2="294.515" gradientTransform="matrix(1 0 0 -1 0 318)" gradientUnits="userSpaceOnUse" spreadMethod="reflect">
    <stop offset="0" stop-color="#6dc7ff" />
    <stop offset="1" stop-color="#e6abff" />
  </linearGradient>
  <path fill="url(#n1CKQtXvQIKS2RSzGvKIHc)" d="M56.999,12H52V7c0-0.552-0.448-1-1-1h-3c-0.552,0-1,0.448-1,1v5h-5c-0.552,0-1,0.448-1,1v3 c0,0.552,0.448,1,1,1h5v5c0,0.552,0.448,1,1,1h3c0.552,0,1-0.448,1-1v-5h4.999c0.552,0,1-0.448,1-1v-3 C57.999,12.448,57.551,12,56.999,12z" />
  <linearGradient id="n1CKQtXvQIKS2RSzGvKIHd" x1="16" x2="16" y1="18" y2="57.97" gradientUnits="userSpaceOnUse" spreadMethod="reflect">
    <stop offset="0" stop-color="#1a6dff" />
    <stop offset="1" stop-color="#c822ff" />
  </linearGradient>
  <path fill="url(#n1CKQtXvQIKS2RSzGvKIHd)" d="M16,58c-2.206,0-4-1.794-4-4s1.794-4,4-4s4,1.794,4,4S18.206,58,16,58z M16,52 c-1.103,0-2,0.897-2,2s0.897,2,2,2s2-0.897,2-2S17.103,52,16,52z" />
  <linearGradient id="n1CKQtXvQIKS2RSzGvKIHe" x1="52" x2="52" y1="18" y2="57.97" gradientUnits="userSpaceOnUse" spreadMethod="reflect">
    <stop offset="0" stop-color="#1a6dff" />
    <stop offset="1" stop-color="#c822ff" />
  </linearGradient>
  <path fill="url(#n1CKQtXvQIKS2RSzGvKIHe)" d="M52,58c-2.206,0-4-1.794-4-4s1.794-4,4-4s4,1.794,4,4S54.206,58,52,58z M52,52 c-1.103,0-2,0.897-2,2s0.897,2,2,2s2-0.897,2-2S53.103,52,52,52z" />
  <linearGradient id="n1CKQtXvQIKS2RSzGvKIHf" x1="34" x2="34" y1="18" y2="57.97" gradientUnits="userSpaceOnUse" spreadMethod="reflect">
    <stop offset="0" stop-color="#1a6dff" />
    <stop offset="1" stop-color="#c822ff" />
  </linearGradient>
  <path fill="url(#n1CKQtXvQIKS2RSzGvKIHf)" d="M19 53H49V55H19z" />
  <linearGradient id="n1CKQtXvQIKS2RSzGvKIHg" x1="34" x2="34" y1="18" y2="57.97" gradientUnits="userSpaceOnUse" spreadMethod="reflect">
    <stop offset="0" stop-color="#1a6dff" />
    <stop offset="1" stop-color="#c822ff" />
  </linearGradient>
  <path fill="url(#n1CKQtXvQIKS2RSzGvKIHg)" d="M53,51h-2c0-1.103-0.897-2-2-2H19c-1.103,0-2,0.897-2,2h-2c0-2.206,1.794-4,4-4h30 C51.206,47,53,48.794,53,51z" />
  <linearGradient id="n1CKQtXvQIKS2RSzGvKIHh" x1="34" x2="34" y1="18" y2="57.97" gradientUnits="userSpaceOnUse" spreadMethod="reflect">
    <stop offset="0" stop-color="#1a6dff" />
    <stop offset="1" stop-color="#c822ff" />
  </linearGradient>
  <path fill="url(#n1CKQtXvQIKS2RSzGvKIHh)" d="M27 31H41V33H27z" />
  <linearGradient id="n1CKQtXvQIKS2RSzGvKIHi" x1="34" x2="34" y1="18.167" y2="57.572" gradientUnits="userSpaceOnUse" spreadMethod="reflect">
    <stop offset="0" stop-color="#1a6dff" />
    <stop offset="1" stop-color="#c822ff" />
  </linearGradient>
  <path fill="url(#n1CKQtXvQIKS2RSzGvKIHi)" d="M25,40V30c0-0.551,0.448-1,1-1h16c0.552,0,1,0.449,1,1v10h2V30c0-1.654-1.346-3-3-3H26 c-1.654,0-3,1.346-3,3v10H25z" />
  <linearGradient id="n1CKQtXvQIKS2RSzGvKIHj" x1="32.001" x2="32.001" y1="18.167" y2="57.572" gradientUnits="userSpaceOnUse" spreadMethod="reflect">
    <stop offset="0" stop-color="#1a6dff" />
    <stop offset="1" stop-color="#c822ff" />
  </linearGradient>
  <path fill="url(#n1CKQtXvQIKS2RSzGvKIHj)" d="M58,31H44v2h14c0.552,0,1,0.449,1,1v4c0,0.551-0.448,1-1,1H21.313 c-1.068,0-2.072-0.416-2.828-1.171L5.298,24.643c-0.396-0.397-0.396-1.043,0-1.44l2.854-2.854c0.396-0.396,1.043-0.396,1.439,0 l10.894,10.894c0.944,0.944,2.196,1.543,3.515,1.707v-2.022c-0.789-0.148-1.53-0.527-2.101-1.098L11.006,18.935 c-1.176-1.177-3.092-1.176-4.268,0l-2.854,2.854c-1.177,1.177-1.177,3.091,0,4.268L17.07,39.243C18.203,40.376,19.71,41,21.313,41 H58c1.654,0,3-1.346,3-3v-4C61,32.346,59.654,31,58,31z" />
</svg>