<?xml version="1.0" encoding="utf-8"?>
<svg xmlns="http://www.w3.org/2000/svg" x="0" y="0" viewBox="0 0 128 128" width="512" height="512">
  <path fill="#fff" d="M51,99v-7c0-5.5,4.5-10,10-10h63v17H51z" />
  <path fill="#fff" d="M39,99v-7c0-5.5-4.5-10-10-10H4l0,17L39,99z" />
  <path fill="#444b54" d="M64,37c-1.7,0-3-1.3-3-3V4c0-1.7,1.3-3,3-3s3,1.3,3,3v30C67,35.7,65.7,37,64,37z" />
  <path fill="#444b54" d="M79,22H49c-1.7,0-3-1.3-3-3s1.3-3,3-3h30c1.7,0,3,1.3,3,3S80.7,22,79,22z" />
  <path fill="#444b54" d="M124,76c-1.7,0-3,1.3-3,3H61c-7.2,0-13,5.8-13,13v4h-6v-4c0-7.2-5.8-13-13-13H7V64c0-1.7-1.3-3-3-3s-3,1.3-3,3 v60c0,1.7,1.3,3,3,3s3-1.3,3-3v-22h114v22c0,1.7,1.3,3,3,3s3-1.3,3-3V79C127,77.3,125.7,76,124,76z M7,85h22c3.9,0,7,3.1,7,7v4H7 V85z M54,96v-4c0-3.9,3.1-7,7-7h60v11H54z" />
</svg>