<?xml version="1.0" encoding="utf-8"?>
<svg xmlns="http://www.w3.org/2000/svg" viewBox="0 0 64 64" width="512" height="512">
  <linearGradient id="IWHogYQOYrq1ehkD6Jo4fa" x1="7.006" x2="7.006" y1="25.808" y2="29.687" gradientUnits="userSpaceOnUse">
    <stop offset="0" stop-color="#6dc7ff" />
    <stop offset="1" stop-color="#e6abff" />
  </linearGradient>
  <path fill="url(#IWHogYQOYrq1ehkD6Jo4fa)" d="M8.663,31.007l2.173-3.912C11.358,26.155,10.678,25,9.603,25H4.426c-1.089,0-1.777,1.169-1.248,2.121l2.159,3.886C6.062,32.312,7.938,32.312,8.663,31.007z" />
  <linearGradient id="IWHogYQOYrq1ehkD6Jo4fb" x1="57.006" x2="57.006" y1="25.808" y2="29.687" gradientUnits="userSpaceOnUse">
    <stop offset="0" stop-color="#6dc7ff" />
    <stop offset="1" stop-color="#e6abff" />
  </linearGradient>
  <path fill="url(#IWHogYQOYrq1ehkD6Jo4fb)" d="M58.663,25.978l2.173,3.912c0.522,0.94-0.158,2.095-1.233,2.095h-5.177c-1.089,0-1.777-1.169-1.248-2.121l2.159-3.886C56.062,24.674,57.938,24.674,58.663,25.978z" />
  <linearGradient id="IWHogYQOYrq1ehkD6Jo4fc" x1="36.5" x2="36.5" y1="-1895.167" y2="-1900.669" gradientTransform="matrix(1 0 0 -1 0 -1866)" gradientUnits="userSpaceOnUse">
    <stop offset="0" stop-color="#6dc7ff" />
    <stop offset="1" stop-color="#e6abff" />
  </linearGradient>
  <path fill="url(#IWHogYQOYrq1ehkD6Jo4fc)" d="M36.5,29.5c-1.379,0-2.5,1.121-2.5,2.5s1.121,2.5,2.5,2.5S39,33.379,39,32S37.879,29.5,36.5,29.5z" />
  <linearGradient id="IWHogYQOYrq1ehkD6Jo4fd" x1="27.5" x2="27.5" y1="-1895.167" y2="-1900.669" gradientTransform="matrix(1 0 0 -1 0 -1866)" gradientUnits="userSpaceOnUse">
    <stop offset="0" stop-color="#6dc7ff" />
    <stop offset="1" stop-color="#e6abff" />
  </linearGradient>
  <path fill="url(#IWHogYQOYrq1ehkD6Jo4fd)" d="M27.5,29.5c-1.379,0-2.5,1.121-2.5,2.5s1.121,2.5,2.5,2.5S30,33.379,30,32S28.879,29.5,27.5,29.5z" />
  <linearGradient id="IWHogYQOYrq1ehkD6Jo4fe" x1="32" x2="32" y1="-1902.833" y2="-1907.334" gradientTransform="matrix(1 0 0 -1 0 -1866)" gradientUnits="userSpaceOnUse">
    <stop offset="0" stop-color="#6dc7ff" />
    <stop offset="1" stop-color="#e6abff" />
  </linearGradient>
  <path fill="url(#IWHogYQOYrq1ehkD6Jo4fe)" d="M28,37c0,2.211,1.789,4,4,4s4-1.789,4-4H28z" />
  <linearGradient id="IWHogYQOYrq1ehkD6Jo4ff" x1="28.405" x2="28.405" y1="6.362" y2="59.342" gradientUnits="userSpaceOnUse">
    <stop offset="0" stop-color="#1a6dff" />
    <stop offset="1" stop-color="#c822ff" />
  </linearGradient>
  <path fill="url(#IWHogYQOYrq1ehkD6Jo4ff)" d="M9.537,31.492l2.173-3.911c0.419-0.754,0.408-1.649-0.029-2.393 C11.243,24.444,10.466,24,9.603,24H9.386C12.744,14.524,21.86,8,32,8c8.771,0,16.84,4.782,21.061,12.48l1.754-0.961 C50.243,11.181,41.501,6,32,6C20.778,6,10.713,13.374,7.274,24H4.426c-0.869,0-1.651,0.447-2.092,1.196 c-0.441,0.75-0.452,1.65-0.029,2.41l2.158,3.886C4.981,32.427,5.931,32.985,7,32.985S9.018,32.427,9.537,31.492z M6.211,30.521 l-2.158-3.887c-0.104-0.186-0.041-0.346,0.005-0.424C4.104,26.132,4.213,26,4.426,26h5.177c0.205,0,0.31,0.127,0.354,0.202 c0.044,0.076,0.104,0.229,0.005,0.408l-2.173,3.911C7.557,30.94,7.16,30.985,7,30.985S6.443,30.94,6.211,30.521z" />
  <linearGradient id="IWHogYQOYrq1ehkD6Jo4fg" x1="34.273" x2="34.273" y1="6.362" y2="59.342" gradientUnits="userSpaceOnUse">
    <stop offset="0" stop-color="#1a6dff" />
    <stop offset="1" stop-color="#c822ff" />
  </linearGradient>
  <path fill="url(#IWHogYQOYrq1ehkD6Jo4fg)" d="M61.71,29.404l-2.173-3.911C59.018,24.559,58.069,24,57,24s-2.019,0.559-2.537,1.493 l-2.158,3.885c-0.423,0.761-0.412,1.661,0.029,2.411c0.44,0.749,1.223,1.196,2.092,1.196h1.549 c-0.223,5.476-2.287,10.484-5.591,14.421c-0.067-0.153-0.135-0.307-0.193-0.46c-2.057-2.661-4.654-4.832-7.643-6.379 c0.977-1.352,1.691-2.895,2.09-4.566H45c2.758,0,5-2.242,5-5s-2.242-5-5-5h-0.051C44.434,19.301,38.828,14,32,14 s-12.434,5.301-12.949,12H19c-2.758,0-5,2.242-5,5s2.242,5,5,5h0.363c0.398,1.672,1.113,3.219,2.09,4.57 c-2.998,1.55-5.608,3.736-7.669,6.409c-0.058,0.133-0.118,0.266-0.176,0.398c-2.494-2.969-4.304-6.552-5.12-10.538l-1.959,0.4 c0.971,4.744,3.238,8.961,6.367,12.346c1.28,1.385,2.697,2.63,4.241,3.713C21.429,56.309,26.719,58,32,58 c3.177,0,6.349-0.596,9.314-1.735c1.365-0.524,2.686-1.164,3.944-1.911c7.357-4.38,12.377-12.284,12.718-21.369h1.627 c0.863,0,1.641-0.444,2.078-1.188C62.118,31.054,62.129,30.158,61.71,29.404z M45,28c1.652,0,3,1.348,3,3s-1.348,3-3,3V28z M19,34 c-1.652,0-3-1.348-3-3s1.348-3,3-3V34z M40.285,19.789C39.875,19.926,39.445,20,39,20c-2.055,0-3.734-1.563-3.957-3.563 C37.105,17.031,38.914,18.215,40.285,19.789z M32,16c0.34,0,0.672,0.02,1.004,0.051C33.031,19.336,35.711,22,39,22 c0.871,0,1.707-0.199,2.48-0.555c0.336,0.578,0.621,1.188,0.855,1.824C41.293,23.746,40.164,24,39,24 c-4.395,0-7.969-3.563-7.996-7.949C31.332,16.02,31.664,16,32,16z M22.805,20.984C22.867,20.988,22.934,21,23,21 c2.129,0,3.859-1.676,3.977-3.773c0.629-0.324,1.293-0.59,1.984-0.789C28.977,16.625,29,16.813,29,17c0,3.309-2.691,6-6,6 c-0.406,0-0.801-0.047-1.191-0.121C22.078,22.211,22.414,21.578,22.805,20.984z M21,33v-6c0-0.754,0.078-1.488,0.223-2.199 C21.801,24.934,22.395,25,23,25c3.113,0,5.813-1.793,7.133-4.395C31.801,23.805,35.148,26,39,26c1.336,0,2.629-0.285,3.84-0.789 C42.938,25.793,43,26.391,43,27v6c0,6.066-4.934,11-11,11S21,39.066,21,33z M22.773,42.145C25.129,44.523,28.395,46,32,46 s6.871-1.477,9.227-3.855c0.715,0.352,1.41,0.73,2.078,1.156C40.313,46.293,36.266,48,32,48s-8.309-1.707-11.305-4.699 C21.363,42.875,22.059,42.492,22.773,42.145z M19.059,44.473C22.445,47.984,27.09,50,32,50s9.555-2.016,12.941-5.527 c1.578,1.238,2.975,2.698,4.155,4.35c-0.014,0.014-0.027,0.029-0.041,0.043c-0.204,0.206-0.414,0.406-0.625,0.605 c-2.099,1.971-4.545,3.546-7.203,4.653c-2.667,1.11-5.531,1.749-8.419,1.856c-2.468,0.092-4.949-0.214-7.325-0.889 c-3.058-0.868-5.935-2.35-8.422-4.33c-0.392-0.312-0.774-0.636-1.145-0.972c-0.087-0.078-1.048-0.889-1.003-0.978 C16.091,47.163,17.481,45.707,19.059,44.473z M59.957,30.783c-0.045,0.075-0.149,0.202-0.354,0.202h-5.177 c-0.213,0-0.322-0.132-0.368-0.211c-0.046-0.078-0.108-0.238-0.005-0.425l2.158-3.886C56.443,26.045,56.84,26,57,26 s0.557,0.045,0.789,0.464l2.173,3.911C60.062,30.554,60.001,30.707,59.957,30.783z" />
</svg>