<?xml version="1.0" encoding="utf-8"?>
<svg xmlns="http://www.w3.org/2000/svg" viewBox="0 0 64 64" width="512" height="512">
  <linearGradient id="FOk3Jlgonn8dpEPlABDRja" x1="41" x2="41" y1="10.417" y2="23.236" gradientUnits="userSpaceOnUse" spreadMethod="reflect">
    <stop offset="0" stop-color="#6dc7ff" />
    <stop offset="1" stop-color="#e6abff" />
  </linearGradient>
  <path fill="url(#FOk3Jlgonn8dpEPlABDRja)" d="M45.535,18.885C45.217,18.718,45,18.384,45,18v-3c0-1.104-0.896-2-2-2h-1v-1 c0-0.552-0.448-1-1-1s-1,0.448-1,1v1h-1c-1.104,0-2,0.896-2,2v3c0,0.385-0.217,0.719-0.535,0.886C36.162,19.045,36,19.385,36,19.727 v0.274C36,20.553,36.447,21,36.999,21H39c0,1.104,0.896,2,2,2s2-0.896,2-2h2c0.552,0,1-0.448,1-1v-0.273 C46,19.385,45.838,19.045,45.535,18.885z" />
  <linearGradient id="FOk3Jlgonn8dpEPlABDRjb" x1="32" x2="32" y1="4.833" y2="58.566" gradientUnits="userSpaceOnUse" spreadMethod="reflect">
    <stop offset="0" stop-color="#1a6dff" />
    <stop offset="1" stop-color="#c822ff" />
  </linearGradient>
  <path fill="url(#FOk3Jlgonn8dpEPlABDRjb)" d="M53,6H29c-1.654,0-3,1.346-3,3v3H13c-1.654,0-3,1.346-3,3v5H9.5C8.673,20,8,20.673,8,21.5v3 C8,25.327,8.673,26,9.5,26H10v4H9.5C8.673,30,8,30.673,8,31.5v3C8,35.327,8.673,36,9.5,36H10v19c0,1.654,1.346,3,3,3h28 c1.654,0,3-1.346,3-3V28h9c1.654,0,3-1.346,3-3V9C56,7.346,54.654,6,53,6z M26,20H16v-2h10V20z M16,46h6v-2h-6v-2h4v-2h-4V22h10v10 c0,1.654,1.346,3,3,3h1.172c0.802,0,1.555-0.312,2.121-0.879L38,28.415V48H16V46z M42,55c0,0.552-0.448,1-1,1H13 c-0.552,0-1-0.448-1-1V15c0-0.552,0.448-1,1-1h13v2H16c-1.103,0-2,0.897-2,2v30c0,1.103,0.897,2,2,2h22c1.103,0,2-0.897,2-2V28h2V55 z M54,25c0,0.552-0.448,1-1,1H38.828c-0.79,0-1.563,0.32-2.12,0.878l-5.829,5.829C30.692,32.893,30.436,33,30.172,33H29 c-0.552,0-1-0.448-1-1V9c0-0.552,0.448-1,1-1h24c0.552,0,1,0.448,1,1V25z" />
  <linearGradient id="FOk3Jlgonn8dpEPlABDRjc" x1="27" x2="27" y1="4.833" y2="58.566" gradientUnits="userSpaceOnUse" spreadMethod="reflect">
    <stop offset="0" stop-color="#1a6dff" />
    <stop offset="1" stop-color="#c822ff" />
  </linearGradient>
  <path fill="url(#FOk3Jlgonn8dpEPlABDRjc)" d="M24 52H30V54H24z" />
</svg>