<?xml version="1.0" encoding="utf-8"?>
<svg xmlns="http://www.w3.org/2000/svg" viewBox="0 0 64 64" width="512" height="512">
  <linearGradient id="Qw4w0WwQEeyKjHpsxmdLGa" x1="32" x2="32" y1="18" y2="28.128" gradientUnits="userSpaceOnUse" spreadMethod="reflect">
    <stop offset="0" stop-color="#6dc7ff" />
    <stop offset="1" stop-color="#e6abff" />
  </linearGradient>
  <path fill="url(#Qw4w0WwQEeyKjHpsxmdLGa)" d="M40,28H24V18h16V28z M26,26h12v-6H26V26z" />
  <linearGradient id="Qw4w0WwQEeyKjHpsxmdLGb" x1="32" x2="32" y1="43.625" y2="46.262" gradientUnits="userSpaceOnUse" spreadMethod="reflect">
    <stop offset="0" stop-color="#6dc7ff" />
    <stop offset="1" stop-color="#e6abff" />
  </linearGradient>
  <path fill="url(#Qw4w0WwQEeyKjHpsxmdLGb)" d="M28 44H36V46H28z" />
  <linearGradient id="Qw4w0WwQEeyKjHpsxmdLGc" x1="32" x2="32" y1="48" y2="50.158" gradientUnits="userSpaceOnUse" spreadMethod="reflect">
    <stop offset="0" stop-color="#6dc7ff" />
    <stop offset="1" stop-color="#e6abff" />
  </linearGradient>
  <path fill="url(#Qw4w0WwQEeyKjHpsxmdLGc)" d="M28 48H36V50H28z" />
  <linearGradient id="Qw4w0WwQEeyKjHpsxmdLGd" x1="50" x2="50" y1="43.625" y2="46.262" gradientUnits="userSpaceOnUse" spreadMethod="reflect">
    <stop offset="0" stop-color="#6dc7ff" />
    <stop offset="1" stop-color="#e6abff" />
  </linearGradient>
  <path fill="url(#Qw4w0WwQEeyKjHpsxmdLGd)" d="M46 44H54V46H46z" />
  <linearGradient id="Qw4w0WwQEeyKjHpsxmdLGe" x1="50" x2="50" y1="48" y2="50.158" gradientUnits="userSpaceOnUse" spreadMethod="reflect">
    <stop offset="0" stop-color="#6dc7ff" />
    <stop offset="1" stop-color="#e6abff" />
  </linearGradient>
  <path fill="url(#Qw4w0WwQEeyKjHpsxmdLGe)" d="M46 48H54V50H46z" />
  <linearGradient id="Qw4w0WwQEeyKjHpsxmdLGf" x1="14" x2="14" y1="43.625" y2="46.262" gradientUnits="userSpaceOnUse" spreadMethod="reflect">
    <stop offset="0" stop-color="#6dc7ff" />
    <stop offset="1" stop-color="#e6abff" />
  </linearGradient>
  <path fill="url(#Qw4w0WwQEeyKjHpsxmdLGf)" d="M10 44H18V46H10z" />
  <linearGradient id="Qw4w0WwQEeyKjHpsxmdLGg" x1="14" x2="14" y1="48" y2="50.158" gradientUnits="userSpaceOnUse" spreadMethod="reflect">
    <stop offset="0" stop-color="#6dc7ff" />
    <stop offset="1" stop-color="#e6abff" />
  </linearGradient>
  <path fill="url(#Qw4w0WwQEeyKjHpsxmdLGg)" d="M10 48H18V50H10z" />
  <linearGradient id="Qw4w0WwQEeyKjHpsxmdLGh" x1="32" x2="32" y1="9.75" y2="54.5" gradientUnits="userSpaceOnUse" spreadMethod="reflect">
    <stop offset="0" stop-color="#1a6dff" />
    <stop offset="1" stop-color="#c822ff" />
  </linearGradient>
  <path fill="url(#Qw4w0WwQEeyKjHpsxmdLGh)" d="M55,40h-2v-2c0-1.103-0.897-2-2-2V24.816c1.162-0.414,2-1.514,2-2.816c0-1.654-1.346-3-3-3 c-1.302,0-2.401,0.839-2.816,2H44v-8c0-1.654-1.346-3-3-3H23c-1.654,0-3,1.346-3,3v8h-3.184c-0.415-1.161-1.514-2-2.816-2 c-1.654,0-3,1.346-3,3c0,1.302,0.838,2.402,2,2.816V36c-1.103,0-2,0.897-2,2v2H9c-1.654,0-3,1.346-3,3v8c0,1.654,1.346,3,3,3h10 c1.654,0,3-1.346,3-3v-8c0-1.654-1.346-3-3-3h-2v-2c0-1.103-0.897-2-2-2V24.816c0.847-0.302,1.514-0.969,1.816-1.816H20v6 c0,1.654,1.346,3,3,3h6v0.5c0,0.827,0.673,1.5,1.5,1.5H31v2c-1.103,0-2,0.897-2,2v2h-2c-1.654,0-3,1.346-3,3v8c0,1.654,1.346,3,3,3 h10c1.654,0,3-1.346,3-3v-8c0-1.654-1.346-3-3-3h-2v-2c0-1.103-0.897-2-2-2v-2h0.5c0.827,0,1.5-0.673,1.5-1.5V32h6 c1.654,0,3-1.346,3-3v-6h3.185c0.302,0.847,0.968,1.514,1.815,1.816V36c-1.103,0-2,0.897-2,2v2h-2c-1.654,0-3,1.346-3,3v8 c0,1.654,1.346,3,3,3h10c1.654,0,3-1.346,3-3v-8C58,41.346,56.654,40,55,40z M19,42c0.552,0,1,0.448,1,1v8c0,0.552-0.448,1-1,1H9 c-0.552,0-1-0.448-1-1v-8c0-0.552,0.448-1,1-1H19z M15,40h-2v-2h2V40z M14,23c-0.552,0-1-0.448-1-1s0.448-1,1-1s1,0.448,1,1 S14.552,23,14,23z M37,42c0.552,0,1,0.448,1,1v8c0,0.552-0.448,1-1,1H27c-0.552,0-1-0.448-1-1v-8c0-0.552,0.448-1,1-1H37z M31,40v-2 h2v2H31z M23,12h18c0.552,0,1,0.448,1,1v1H22v-1C22,12.448,22.448,12,23,12z M41,30H23c-0.552,0-1-0.448-1-1V16h20v13 C42,29.552,41.552,30,41,30z M50,21c0.552,0,1,0.448,1,1s-0.448,1-1,1s-1-0.448-1-1S49.448,21,50,21z M49,38h2v2h-2V38z M56,51 c0,0.552-0.448,1-1,1H45c-0.552,0-1-0.448-1-1v-8c0-0.552,0.448-1,1-1h10c0.552,0,1,0.448,1,1V51z" />
</svg>