<?xml version="1.0" encoding="utf-8"?>
<svg xmlns="http://www.w3.org/2000/svg" x="0" y="0" viewBox="0 0 64 64" width="512" height="512">
  <linearGradient id="SVGID_1_" x1="32" x2="32" y1="6.745" y2="55.017" gradientUnits="userSpaceOnUse">
    <stop offset="0" stop-color="#1a6dff" />
    <stop offset="1" stop-color="#c822ff" />
  </linearGradient>
  <path fill="url(#SVGID_1_)" d="M32,6C17.7,6,6,17.7,6,32c0,14.3,11.7,26,26,26s26-11.7,26-26C58,17.7,46.3,6,32,6z M32,56 C18.8,56,8,45.2,8,32C8,18.8,18.8,8,32,8c13.2,0,24,10.8,24,24C56,45.2,45.2,56,32,56z" />
  <linearGradient id="SVGID_2_" x1="32" x2="32" y1="6.745" y2="55.017" gradientUnits="userSpaceOnUse">
    <stop offset="0" stop-color="#1a6dff" />
    <stop offset="1" stop-color="#c822ff" />
  </linearGradient>
  <path fill="url(#SVGID_2_)" d="M32,12c-11,0-20,9-20,20s9,20,20,20s20-9,20-20S43,12,32,12z M33,20.3c2.8,3.2,8,9.7,8,14c0,4.6-3.5,8.4-8,8.9 V20.3z M31,28.6l-3.7-3.7c1.3-1.8,2.7-3.4,3.7-4.6V28.6z M26.2,26.6l4.8,4.8v6.2l-7-7C24.5,29.2,25.3,27.9,26.2,26.6z M23.2,32.6 l7.8,7.8v2.8c-4.5-0.5-8-4.3-8-8.9C23,33.8,23.1,33.2,23.2,32.6z M36.6,49.4c-0.8,0.2-1.7,0-2.4-0.6c-0.8-0.6-1.2-1.5-1.2-2.4v-1.2 c5.6-0.5,10-5.2,10-10.9c0-6.6-9.9-16.8-10.3-17.3L32,16.3L31.3,17C30.9,17.5,21,27.7,21,34.3c0,5.7,4.4,10.4,10,10.9v1.1 c0,1-0.4,1.9-1.2,2.5c-0.7,0.5-1.6,0.7-2.4,0.6C19.7,47.3,14,40.3,14,32c0-9.9,8.1-18,18-18s18,8.1,18,18 C50,40.3,44.3,47.3,36.6,49.4z" />
  <linearGradient id="SVGID_3_" x1="37" x2="37" y1="26.149" y2="39.608" gradientUnits="userSpaceOnUse">
    <stop offset="0" stop-color="#6dc7ff" />
    <stop offset="1" stop-color="#e6abff" />
  </linearGradient>
  <path fill="url(#SVGID_3_)" d="M35,26v14.6c2.4-1.1,4-3.5,4-6.3C39,32.3,37.2,29.1,35,26z" />
</svg>