<?xml version="1.0" encoding="utf-8"?>
<svg xmlns="http://www.w3.org/2000/svg" viewBox="0 0 64 64" width="512" height="512">
  <linearGradient id="bC7uesLDAfZ9STW6bzR29a" x1="32" x2="32" y1="4.25" y2="59.278" gradientUnits="userSpaceOnUse" spreadMethod="reflect">
    <stop offset="0" stop-color="#1a6dff" />
    <stop offset="1" stop-color="#c822ff" />
  </linearGradient>
  <path fill="url(#bC7uesLDAfZ9STW6bzR29a)" d="M55,34.364c0-1.545-1.052-3.038-2.869-4.137c1.035-1.588,1.317-3.184,0.766-4.497 c-0.599-1.427-2.15-2.406-4.255-2.732c0.342-1.859-0.015-3.441-1.031-4.445c-0.963-0.949-2.484-1.314-4.267-1.047 c-0.457-1.611-1.341-2.744-2.546-3.237c-1.626-0.666-3.75-0.059-5.681,1.62l1.313,1.51c1.309-1.139,2.726-1.641,3.611-1.278 c0.752,0.308,1.332,1.325,1.551,2.724l0.173,1.102l1.076-0.292c1.493-0.403,2.75-0.284,3.365,0.323 c0.651,0.643,0.739,2.023,0.229,3.602l-0.408,1.263l1.327,0.044c1.861,0.063,3.313,0.697,3.7,1.619 c0.352,0.84-0.103,2.147-1.187,3.413l-0.869,1.015l1.219,0.548C51.907,32.239,53,33.371,53,34.364c0,0.91-0.929,1.948-2.425,2.711 l-1.191,0.606l0.918,0.972c1.266,1.338,1.835,2.794,1.451,3.709c-0.414,0.988-2.096,1.683-4.107,1.625l-1.597-0.025l0.675,1.448 c0.737,1.579,1.018,3.637,0.129,4.515c-0.682,0.673-2.197,0.739-3.862,0.169l-1.244-0.425L41.67,50.98 c-0.103,1.727-0.743,3.077-1.63,3.439c-0.893,0.368-2.318-0.146-3.635-1.3l-0.981-0.86l-0.576,1.171C34.082,54.991,32.964,56,32,56 s-2.082-1.009-2.849-2.569l-0.576-1.171l-0.981,0.86c-1.317,1.154-2.745,1.663-3.635,1.3c-1.219-0.498-1.703-2.539-1.637-4.225 l0.063-1.581l-1.455,0.623c-1.839,0.786-3.663,0.806-4.432,0.047c-0.71-0.703-0.75-2.264-0.1-3.977l0.471-1.241l-1.324-0.11 c-1.681-0.139-2.946-0.749-3.3-1.594c-0.384-0.915,0.186-2.371,1.451-3.709l0.918-0.972l-1.191-0.606 C11.929,36.313,11,35.274,11,34.364c0-0.993,1.093-2.125,2.784-2.885l1.219-0.548l-0.869-1.015 c-1.084-1.266-1.539-2.573-1.187-3.413c0.33-0.787,1.443-1.371,2.978-1.563l1.117-0.139l-0.27-1.093 c-0.338-1.372-0.199-2.528,0.374-3.095c0.681-0.672,2.198-0.738,3.861-0.169l1.244,0.426l0.078-1.313 c0.103-1.728,0.743-3.077,1.63-3.439c0.893-0.368,2.319,0.145,3.634,1.3l1.319-1.504c-1.939-1.701-4.073-2.319-5.711-1.647 c-1.373,0.562-2.348,2.004-2.721,3.961c-1.967-0.407-3.69-0.073-4.741,0.963c-0.924,0.913-1.303,2.294-1.104,3.954 c-1.75,0.428-3.013,1.341-3.535,2.584c-0.551,1.313-0.269,2.909,0.766,4.497C10.052,31.326,9,32.819,9,34.364 c0,1.421,0.878,2.788,2.449,3.862c-1.252,1.703-1.646,3.481-1.048,4.909c0.55,1.312,1.892,2.24,3.76,2.638 c-0.499,2.049-0.174,3.841,0.931,4.934c1.333,1.316,3.419,1.342,5.28,0.837c0.208,1.943,1.019,3.987,2.829,4.728 c1.372,0.561,3.091,0.22,4.754-0.906C29.058,57.034,30.516,58,32,58s2.942-0.966,4.043-2.635c1.664,1.126,3.383,1.467,4.754,0.906 c1.373-0.563,2.348-2.005,2.72-3.962c1.968,0.413,3.692,0.075,4.741-0.962c1.388-1.37,1.349-3.563,0.789-5.438 c1.913-0.24,3.829-1.053,4.551-2.774c0.599-1.428,0.205-3.206-1.048-4.909C54.122,37.152,55,35.785,55,34.364z" />
  <linearGradient id="bC7uesLDAfZ9STW6bzR29b" x1="35.5" x2="35.5" y1="4.25" y2="59.278" gradientUnits="userSpaceOnUse" spreadMethod="reflect">
    <stop offset="0" stop-color="#1a6dff" />
    <stop offset="1" stop-color="#c822ff" />
  </linearGradient>
  <path fill="url(#bC7uesLDAfZ9STW6bzR29b)" d="M28,23c0,2.206,1.794,4,4,4s4-1.794,4-4c0-1.859-1.28-3.411-3-3.858V12c0-2.206,1.794-4,4-4 s4,1.794,4,4v1h2v-1c0-3.309-2.691-6-6-6s-6,2.691-6,6v7.142C29.28,19.589,28,21.141,28,23z M32,21c1.103,0,2,0.897,2,2 s-0.897,2-2,2s-2-0.897-2-2S30.897,21,32,21z" />
  <linearGradient id="bC7uesLDAfZ9STW6bzR29c" x1="21.127" x2="21.127" y1="29.375" y2="42.982" gradientUnits="userSpaceOnUse" spreadMethod="reflect">
    <stop offset="0" stop-color="#6dc7ff" />
    <stop offset="1" stop-color="#e6abff" />
  </linearGradient>
  <path fill="url(#bC7uesLDAfZ9STW6bzR29c)" d="M18.594,40.014c0.476,0.289,1.377,0.595,2.125,0.595c0.918,0,1.326-0.374,1.326-0.918 c0-0.561-0.34-0.85-1.36-1.207c-1.615-0.561-2.295-1.445-2.278-2.414c0-1.462,1.207-2.601,3.127-2.601 c0.918,0,1.717,0.238,2.193,0.493l-0.408,1.479c-0.357-0.204-1.02-0.476-1.751-0.476c-0.748,0-1.156,0.357-1.156,0.867 c0,0.527,0.391,0.782,1.445,1.156c1.496,0.544,2.193,1.309,2.209,2.533c0,1.496-1.173,2.583-3.365,2.583 c-1.003,0-1.904-0.238-2.516-0.578L18.594,40.014z" />
  <linearGradient id="bC7uesLDAfZ9STW6bzR29d" x1="28.738" x2="28.738" y1="29.375" y2="42.982" gradientUnits="userSpaceOnUse" spreadMethod="reflect">
    <stop offset="0" stop-color="#6dc7ff" />
    <stop offset="1" stop-color="#e6abff" />
  </linearGradient>
  <path fill="url(#bC7uesLDAfZ9STW6bzR29d)" d="M30.442,42l-0.136-1h-0.051c-0.51,1-1.376,1.113-2.448,1.113c-1.666,0-2.66-1.203-2.66-2.461 c0-2.091,1.853-3.14,4.853-3.123v-0.136c0-0.544-0.161-1.445-1.623-1.445c-0.816,0-1.636,0.255-2.197,0.612l-0.393-1.36 c0.612-0.374,1.585-0.731,2.894-0.731c2.652,0,3.319,1.683,3.319,3.485v2.992C32,40.694,32.244,42,32.329,42H30.442z M30,37.889 c-1-0.034-2.805,0.289-2.805,1.547c0,0.816,0.569,1.189,1.232,1.189c0.833,0,1.381-0.544,1.568-1.139 C30.047,39.334,30,39.164,30,39.028V37.889z" />
  <linearGradient id="bC7uesLDAfZ9STW6bzR29e" x1="35" x2="35" y1="29.375" y2="42.982" gradientUnits="userSpaceOnUse" spreadMethod="reflect">
    <stop offset="0" stop-color="#6dc7ff" />
    <stop offset="1" stop-color="#e6abff" />
  </linearGradient>
  <path fill="url(#bC7uesLDAfZ9STW6bzR29e)" d="M34,30h2v12h-2V30z" />
  <linearGradient id="bC7uesLDAfZ9STW6bzR29f" x1="42.007" x2="42.007" y1="29.375" y2="42.982" gradientUnits="userSpaceOnUse" spreadMethod="reflect">
    <stop offset="0" stop-color="#6dc7ff" />
    <stop offset="1" stop-color="#e6abff" />
  </linearGradient>
  <path fill="url(#bC7uesLDAfZ9STW6bzR29f)" d="M40.205,39c0.051,1,1.224,1.833,2.55,1.833c0.969,0,1.666-0.291,2.295-0.528l0.306,1.368 c-0.714,0.289-1.7,0.471-2.89,0.471c-2.686,0-4.267-1.668-4.267-4.201c0-2.294,1.394-4.463,4.046-4.463 c2.686,0,3.569,2.514,3.569,4.333c0,0.391-0.034,0.188-0.068,1.188H40.205z M43.843,37c0.017-1-0.323-2.022-1.717-2.022 c-1.292,0-1.836,1.022-1.921,2.022H43.843z" />
</svg>