<?xml version="1.0" encoding="utf-8"?>
<svg xmlns="http://www.w3.org/2000/svg" viewBox="0 0 80 80" width="480" height="480">
  <path d="M40 5.007813C38.585938 5.007813 37.167969 5.542969 36.09375 6.617188L33.8125 8.898438L30.828125 7.664063C28.023438 6.5 24.777344 7.847656 23.617188 10.652344L22.382813 13.636719L19.15625 13.636719C16.117188 13.636719 13.636719 16.117188 13.636719 19.15625L13.636719 22.382813L10.652344 23.617188C7.84375 24.78125 6.503906 28.023438 7.664063 30.828125L8.898438 33.8125L6.617188 36.09375C4.46875 38.242188 4.46875 41.753906 6.617188 43.902344L8.898438 46.1875L7.664063 49.167969C6.5 51.972656 7.84375 55.21875 10.652344 56.378906L13.636719 57.613281L13.636719 60.84375C13.636719 63.882813 16.117188 66.363281 19.15625 66.363281L22.382813 66.363281L23.617188 69.347656C24.777344 72.152344 28.023438 73.496094 30.828125 72.335938L33.8125 71.097656L36.09375 73.382813C38.242188 75.53125 41.753906 75.53125 43.902344 73.382813L46.1875 71.097656L49.167969 72.335938C51.972656 73.496094 55.21875 72.152344 56.378906 69.347656L57.613281 66.363281L60.84375 66.363281C63.882813 66.363281 66.363281 63.882813 66.363281 60.84375L66.363281 57.613281L69.347656 56.378906C72.152344 55.21875 73.496094 51.972656 72.335938 49.167969L71.097656 46.1875L73.382813 43.902344C75.53125 41.753906 75.53125 38.242188 73.382813 36.09375L71.097656 33.8125L72.335938 30.828125C73.496094 28.023438 72.152344 24.777344 69.347656 23.617188L66.363281 22.382813L66.363281 19.15625C66.363281 16.117188 63.882813 13.636719 60.84375 13.636719L57.613281 13.636719L56.378906 10.652344C55.21875 7.84375 51.972656 6.503906 49.167969 7.664063L46.1875 8.898438L43.902344 6.617188C42.828125 5.542969 41.414063 5.007813 40 5.007813 Z M 40 6.992188C40.898438 6.992188 41.796875 7.339844 42.488281 8.03125L45.71875 11.257813L49.933594 9.511719C51.738281 8.761719 53.785156 9.609375 54.53125 11.417969L56.28125 15.636719L60.84375 15.636719C62.800781 15.636719 64.363281 17.199219 64.363281 19.15625L64.363281 23.71875L68.582031 25.46875C70.390625 26.214844 71.238281 28.257813 70.488281 30.066406L68.742188 34.28125L71.96875 37.511719C73.351563 38.894531 73.351563 41.105469 71.96875 42.488281L68.742188 45.71875L70.488281 49.933594C71.238281 51.738281 70.390625 53.785156 68.582031 54.53125L64.363281 56.28125L64.363281 60.84375C64.363281 62.800781 62.800781 64.363281 60.84375 64.363281L56.28125 64.363281L54.53125 68.582031C53.785156 70.390625 51.742188 71.238281 49.933594 70.488281L45.71875 68.742188L42.488281 71.96875C41.105469 73.351563 38.890625 73.351563 37.511719 71.96875L34.28125 68.742188L30.0625 70.488281C28.257813 71.238281 26.214844 70.390625 25.46875 68.582031L23.71875 64.363281L19.15625 64.363281C17.199219 64.363281 15.636719 62.800781 15.636719 60.84375L15.636719 56.28125L11.417969 54.53125C9.609375 53.785156 8.761719 51.742188 9.511719 49.933594L11.257813 45.71875L8.03125 42.488281C6.648438 41.105469 6.648438 38.890625 8.03125 37.511719L11.257813 34.28125L9.511719 30.0625C8.761719 28.257813 9.609375 26.214844 11.417969 25.46875L15.636719 23.71875L15.636719 19.15625C15.636719 17.199219 17.199219 15.636719 19.15625 15.636719L23.71875 15.636719L25.46875 11.417969C26.214844 9.609375 28.257813 8.765625 30.0625 9.511719L34.28125 11.257813L37.511719 8.03125C38.199219 7.339844 39.101563 6.992188 40 6.992188 Z M 40 9C39.449219 9 39 9.449219 39 10C39 10.550781 39.449219 11 40 11C40.550781 11 41 10.550781 41 10C41 9.449219 40.550781 9 40 9 Z M 28.527344 11.28125C28.394531 11.28125 28.261719 11.308594 28.136719 11.359375C27.625 11.570313 27.382813 12.15625 27.59375 12.667969C27.808594 13.175781 28.390625 13.417969 28.902344 13.207031C29.414063 12.996094 29.65625 12.410156 29.441406 11.902344C29.289063 11.53125 28.929688 11.285156 28.527344 11.28125 Z M 51.503906 11.28125C51.089844 11.273438 50.714844 11.519531 50.558594 11.902344C50.34375 12.410156 50.585938 12.996094 51.097656 13.207031C51.609375 13.417969 52.191406 13.175781 52.40625 12.667969C52.617188 12.15625 52.375 11.570313 51.863281 11.359375C51.75 11.3125 51.628906 11.285156 51.503906 11.28125 Z M 40 14C39.449219 14 39 14.449219 39 15C39 15.550781 39.449219 16 40 16C40.550781 16 41 15.550781 41 15C41 14.449219 40.550781 14 40 14 Z M 35.125 14.480469C35.058594 14.480469 34.992188 14.488281 34.925781 14.5C34.386719 14.609375 34.035156 15.132813 34.140625 15.675781C34.25 16.21875 34.777344 16.570313 35.316406 16.460938C35.859375 16.351563 36.210938 15.828125 36.105469 15.285156C36.011719 14.820313 35.601563 14.484375 35.125 14.480469 Z M 44.902344 14.480469C44.414063 14.46875 43.992188 14.808594 43.894531 15.285156C43.789063 15.828125 44.140625 16.351563 44.683594 16.460938C45.222656 16.570313 45.75 16.21875 45.859375 15.675781C45.964844 15.132813 45.613281 14.609375 45.074219 14.5C45.015625 14.488281 44.960938 14.480469 44.902344 14.480469 Z M 30.441406 15.902344C30.308594 15.902344 30.175781 15.925781 30.050781 15.980469C29.539063 16.191406 29.296875 16.773438 29.511719 17.285156C29.722656 17.796875 30.304688 18.039063 30.816406 17.828125C31.328125 17.613281 31.570313 17.03125 31.359375 16.519531C31.203125 16.148438 30.84375 15.90625 30.441406 15.902344 Z M 49.589844 15.902344C49.175781 15.894531 48.800781 16.136719 48.640625 16.519531C48.429688 17.03125 48.671875 17.613281 49.183594 17.828125C49.695313 18.039063 50.277344 17.796875 50.488281 17.285156C50.703125 16.773438 50.460938 16.191406 49.949219 15.980469C49.835938 15.929688 49.710938 15.90625 49.589844 15.902344 Z M 18.800781 17.785156C18.53125 17.785156 18.269531 17.890625 18.078125 18.078125C17.691406 18.46875 17.691406 19.105469 18.078125 19.496094C18.46875 19.882813 19.105469 19.882813 19.496094 19.496094C19.882813 19.105469 19.882813 18.46875 19.496094 18.078125C19.308594 17.894531 19.0625 17.789063 18.800781 17.785156 Z M 61.226563 17.785156C60.957031 17.785156 60.695313 17.890625 60.503906 18.078125C60.117188 18.46875 60.117188 19.105469 60.503906 19.496094C60.894531 19.882813 61.53125 19.882813 61.921875 19.496094C62.308594 19.105469 62.308594 18.46875 61.921875 18.078125C61.734375 17.894531 61.488281 17.789063 61.226563 17.785156 Z M 53.90625 18.210938C53.566406 18.203125 53.246094 18.371094 53.058594 18.65625C52.75 19.117188 52.875 19.738281 53.332031 20.042969C53.792969 20.347656 54.414063 20.226563 54.71875 19.765625C55.027344 19.304688 54.902344 18.6875 54.445313 18.378906C54.285156 18.273438 54.097656 18.214844 53.90625 18.210938 Z M 26.125 18.214844C25.921875 18.210938 25.722656 18.269531 25.558594 18.378906C25.097656 18.6875 24.972656 19.308594 25.28125 19.765625C25.585938 20.226563 26.207031 20.351563 26.667969 20.042969C27.125 19.738281 27.25 19.117188 26.941406 18.65625C26.761719 18.382813 26.453125 18.214844 26.125 18.214844 Z M 22.335938 21.324219C22.066406 21.316406 21.804688 21.421875 21.613281 21.613281C21.222656 22.003906 21.222656 22.640625 21.613281 23.03125C21.800781 23.21875 22.054688 23.324219 22.320313 23.324219C22.585938 23.324219 22.839844 23.21875 23.03125 23.03125C23.417969 22.640625 23.417969 22.003906 23.03125 21.613281C22.84375 21.429688 22.597656 21.324219 22.335938 21.324219 Z M 57.691406 21.324219C57.421875 21.320313 57.160156 21.425781 56.96875 21.613281C56.582031 22.003906 56.582031 22.640625 56.96875 23.03125C57.359375 23.417969 57.996094 23.417969 58.386719 23.03125C58.773438 22.640625 58.773438 22.003906 58.386719 21.613281C58.199219 21.429688 57.953125 21.324219 57.691406 21.324219 Z M 60.796875 25.109375C60.59375 25.105469 60.398438 25.164063 60.230469 25.277344C59.773438 25.585938 59.648438 26.203125 59.953125 26.664063C60.261719 27.121094 60.882813 27.246094 61.34375 26.9375C61.800781 26.632813 61.925781 26.011719 61.621094 25.550781C61.433594 25.277344 61.128906 25.113281 60.796875 25.109375 Z M 19.234375 25.109375C18.890625 25.105469 18.570313 25.273438 18.382813 25.554688C18.074219 26.015625 18.199219 26.632813 18.65625 26.941406C19.117188 27.25 19.738281 27.125 20.046875 26.667969C20.351563 26.207031 20.226563 25.585938 19.769531 25.28125C19.609375 25.171875 19.425781 25.113281 19.234375 25.109375 Z M 12.304688 27.515625C11.890625 27.507813 11.515625 27.753906 11.359375 28.136719C11.148438 28.644531 11.390625 29.230469 11.902344 29.441406C12.410156 29.652344 12.996094 29.410156 13.207031 28.902344C13.417969 28.390625 13.175781 27.804688 12.667969 27.59375C12.550781 27.546875 12.429688 27.519531 12.304688 27.515625 Z M 67.722656 27.515625C67.589844 27.515625 67.457031 27.542969 67.332031 27.59375C66.824219 27.804688 66.582031 28.390625 66.792969 28.902344C67.003906 29.410156 67.589844 29.652344 68.097656 29.441406C68.609375 29.230469 68.851563 28.644531 68.640625 28.136719C68.488281 27.761719 68.125 27.519531 67.722656 27.515625 Z M 63.105469 29.433594C62.96875 29.429688 62.839844 29.457031 62.714844 29.507813C62.203125 29.71875 61.960938 30.304688 62.171875 30.8125C62.386719 31.324219 62.96875 31.566406 63.480469 31.355469C63.992188 31.144531 64.234375 30.558594 64.019531 30.046875C63.867188 29.675781 63.503906 29.433594 63.105469 29.433594 Z M 16.925781 29.433594C16.515625 29.425781 16.140625 29.667969 15.980469 30.046875C15.769531 30.558594 16.011719 31.144531 16.519531 31.355469C17.03125 31.566406 17.617188 31.324219 17.828125 30.8125C18.039063 30.304688 17.796875 29.71875 17.285156 29.507813C17.171875 29.460938 17.050781 29.4375 16.925781 29.433594 Z M 23.996094 34.640625C21.472656 34.640625 19.800781 36 19.800781 38.046875C19.800781 39.726563 20.761719 40.742188 22.8125 41.203125L24.269531 41.539063C25.714844 41.875 26.332031 42.351563 26.332031 43.164063C26.332031 44.109375 25.371094 44.789063 24.046875 44.789063C22.613281 44.789063 21.613281 44.140625 21.488281 43.132813L19.519531 43.132813C19.621094 45.179688 21.332031 46.476563 23.921875 46.476563C26.65625 46.476563 28.347656 45.109375 28.347656 42.914063C28.347656 41.195313 27.386719 40.242188 25.097656 39.726563L23.800781 39.429688C22.402344 39.109375 21.832031 38.664063 21.832031 37.90625C21.832031 36.945313 22.691406 36.320313 23.988281 36.320313C25.222656 36.320313 26.097656 36.945313 26.238281 37.9375L28.171875 37.9375C28.074219 36 26.363281 34.640625 23.996094 34.640625 Z M 42.789063 34.921875L42.789063 46.195313L49.976563 46.195313L49.976563 44.429688L44.804688 44.429688L44.804688 34.921875 Z M 52.546875 34.921875L52.546875 46.195313L59.84375 46.195313L59.84375 44.453125L54.5625 44.453125L54.5625 41.296875L59.558594 41.296875L59.558594 39.65625L54.5625 39.65625L54.5625 36.664063L59.84375 36.664063L59.84375 34.921875 Z M 34.179688 34.921875L30.179688 46.195313L32.21875 46.195313L33.1875 43.3125L37.335938 43.3125L38.289063 46.195313L40.453125 46.195313L36.445313 34.921875 Z M 35.203125 37.070313L35.335938 37.070313L36.863281 41.71875L33.65625 41.71875 Z M 10 39C9.449219 39 9 39.449219 9 40C9 40.550781 9.449219 41 10 41C10.550781 41 11 40.550781 11 40C11 39.449219 10.550781 39 10 39 Z M 70 39C69.449219 39 69 39.449219 69 40C69 40.550781 69.449219 41 70 41C70.550781 41 71 40.550781 71 40C71 39.449219 70.550781 39 70 39 Z M 16.910156 48.566406C16.777344 48.566406 16.644531 48.589844 16.519531 48.640625C16.011719 48.855469 15.769531 49.4375 15.980469 49.949219C16.191406 50.460938 16.777344 50.703125 17.285156 50.488281C17.796875 50.277344 18.039063 49.695313 17.828125 49.183594C17.675781 48.8125 17.3125 48.570313 16.910156 48.566406 Z M 63.121094 48.566406C62.707031 48.558594 62.332031 48.800781 62.171875 49.183594C61.960938 49.695313 62.203125 50.277344 62.714844 50.488281C62.960938 50.589844 63.234375 50.589844 63.480469 50.488281C63.726563 50.386719 63.921875 50.191406 64.019531 49.949219C64.234375 49.4375 63.992188 48.851563 63.480469 48.640625C63.367188 48.59375 63.242188 48.570313 63.121094 48.566406 Z M 12.292969 50.480469C12.160156 50.480469 12.027344 50.503906 11.902344 50.558594C11.390625 50.769531 11.148438 51.351563 11.359375 51.863281C11.574219 52.375 12.15625 52.617188 12.667969 52.40625C13.179688 52.191406 13.421875 51.609375 13.207031 51.097656C13.054688 50.726563 12.695313 50.484375 12.292969 50.480469 Z M 67.738281 50.480469C67.324219 50.472656 66.949219 50.714844 66.792969 51.097656C66.582031 51.609375 66.824219 52.191406 67.332031 52.40625C67.578125 52.503906 67.855469 52.503906 68.101563 52.402344C68.34375 52.300781 68.539063 52.105469 68.640625 51.859375C68.851563 51.351563 68.609375 50.765625 68.097656 50.554688C67.984375 50.507813 67.863281 50.484375 67.738281 50.480469 Z M 60.808594 52.886719C60.464844 52.878906 60.144531 53.046875 59.957031 53.328125C59.808594 53.550781 59.753906 53.820313 59.808594 54.082031C59.859375 54.34375 60.011719 54.570313 60.234375 54.71875C60.691406 55.023438 61.3125 54.902344 61.621094 54.441406C61.925781 53.980469 61.800781 53.363281 61.34375 53.054688C61.183594 52.949219 61 52.890625 60.808594 52.886719 Z M 19.222656 52.890625C19.023438 52.886719 18.824219 52.945313 18.65625 53.058594C18.199219 53.363281 18.074219 53.984375 18.382813 54.441406C18.691406 54.902344 19.308594 55.027344 19.769531 54.71875C20.230469 54.414063 20.351563 53.792969 20.046875 53.332031C19.863281 53.058594 19.554688 52.890625 19.222656 52.890625 Z M 22.335938 56.675781C22.066406 56.675781 21.804688 56.78125 21.613281 56.96875C21.226563 57.359375 21.226563 57.996094 21.613281 58.386719C22.003906 58.773438 22.640625 58.773438 23.03125 58.386719C23.417969 57.996094 23.417969 57.359375 23.03125 56.96875C22.84375 56.785156 22.597656 56.679688 22.335938 56.675781 Z M 57.691406 56.675781C57.421875 56.675781 57.160156 56.78125 56.96875 56.96875C56.582031 57.359375 56.582031 57.996094 56.96875 58.386719C57.359375 58.773438 57.996094 58.773438 58.386719 58.386719C58.773438 57.996094 58.773438 57.359375 58.386719 56.96875C58.199219 56.785156 57.953125 56.679688 57.691406 56.675781 Z M 26.128906 59.785156C25.789063 59.777344 25.46875 59.945313 25.28125 60.230469C25.132813 60.449219 25.078125 60.71875 25.132813 60.980469C25.183594 61.242188 25.335938 61.46875 25.558594 61.617188C25.777344 61.765625 26.046875 61.820313 26.308594 61.765625C26.570313 61.714844 26.796875 61.5625 26.945313 61.339844C27.25 60.878906 27.128906 60.257813 26.667969 59.953125C26.507813 59.847656 26.324219 59.789063 26.128906 59.785156 Z M 53.902344 59.785156C53.699219 59.78125 53.5 59.839844 53.332031 59.953125C52.875 60.261719 52.75 60.878906 53.058594 61.339844C53.363281 61.800781 53.984375 61.921875 54.445313 61.617188C54.667969 61.46875 54.820313 61.242188 54.871094 60.980469C54.921875 60.71875 54.867188 60.449219 54.71875 60.230469C54.539063 59.953125 54.230469 59.789063 53.902344 59.785156 Z M 18.800781 60.214844C18.53125 60.207031 18.269531 60.3125 18.078125 60.503906C17.6875 60.894531 17.6875 61.53125 18.078125 61.921875C18.46875 62.308594 19.101563 62.308594 19.492188 61.921875C19.882813 61.53125 19.882813 60.894531 19.492188 60.503906C19.308594 60.320313 19.0625 60.21875 18.800781 60.214844 Z M 61.226563 60.214844C60.957031 60.210938 60.695313 60.316406 60.503906 60.503906C60.117188 60.894531 60.117188 61.53125 60.503906 61.921875C60.894531 62.308594 61.53125 62.308594 61.921875 61.921875C62.308594 61.53125 62.308594 60.894531 61.921875 60.503906C61.734375 60.320313 61.488281 60.214844 61.226563 60.214844 Z M 30.453125 62.09375C30.042969 62.085938 29.667969 62.332031 29.511719 62.714844C29.296875 63.222656 29.539063 63.808594 30.050781 64.019531C30.5625 64.230469 31.144531 63.988281 31.359375 63.480469C31.570313 62.96875 31.328125 62.382813 30.816406 62.171875C30.703125 62.125 30.578125 62.097656 30.453125 62.09375 Z M 49.578125 62.09375C49.441406 62.09375 49.308594 62.121094 49.1875 62.171875C48.675781 62.382813 48.433594 62.96875 48.644531 63.480469C48.855469 63.988281 49.441406 64.230469 49.953125 64.019531C50.460938 63.808594 50.703125 63.222656 50.492188 62.714844C50.339844 62.34375 49.976563 62.097656 49.578125 62.09375 Z M 35.152344 63.519531C34.664063 63.507813 34.238281 63.847656 34.140625 64.324219C34.089844 64.585938 34.144531 64.855469 34.292969 65.074219C34.441406 65.296875 34.667969 65.449219 34.929688 65.5C35.472656 65.609375 35.996094 65.257813 36.105469 64.714844C36.15625 64.453125 36.101563 64.183594 35.957031 63.964844C35.808594 63.742188 35.578125 63.589844 35.316406 63.539063C35.261719 63.527344 35.207031 63.519531 35.152344 63.519531 Z M 44.882813 63.519531C44.816406 63.519531 44.75 63.527344 44.683594 63.539063C44.421875 63.589844 44.195313 63.742188 44.046875 63.964844C43.898438 64.183594 43.84375 64.453125 43.894531 64.714844C43.949219 64.976563 44.101563 65.207031 44.320313 65.351563C44.542969 65.5 44.8125 65.554688 45.074219 65.5C45.617188 65.394531 45.96875 64.867188 45.859375 64.328125C45.765625 63.859375 45.359375 63.523438 44.882813 63.519531 Z M 40 64C39.449219 64 39 64.449219 39 65C39 65.550781 39.449219 66 40 66C40.550781 66 41 65.550781 41 65C41 64.449219 40.550781 64 40 64 Z M 51.488281 66.714844C51.355469 66.714844 51.222656 66.738281 51.097656 66.792969C50.589844 67.003906 50.347656 67.585938 50.558594 68.097656C50.769531 68.605469 51.355469 68.847656 51.863281 68.640625C52.109375 68.539063 52.304688 68.34375 52.40625 68.097656C52.507813 67.851563 52.507813 67.578125 52.40625 67.332031C52.253906 66.960938 51.890625 66.71875 51.488281 66.714844 Z M 28.542969 66.71875C28.128906 66.707031 27.753906 66.953125 27.59375 67.332031C27.496094 67.578125 27.496094 67.855469 27.597656 68.101563C27.699219 68.34375 27.894531 68.539063 28.140625 68.640625C28.648438 68.851563 29.234375 68.609375 29.445313 68.097656C29.546875 67.855469 29.546875 67.578125 29.445313 67.332031C29.34375 67.089844 29.148438 66.894531 28.902344 66.792969C28.789063 66.746094 28.667969 66.71875 28.542969 66.71875 Z M 40 69C39.449219 69 39 69.449219 39 70C39 70.550781 39.449219 71 40 71C40.550781 71 41 70.550781 41 70C41 69.449219 40.550781 69 40 69Z" fill="#5B5B5B" />
</svg>