<?xml version="1.0" encoding="utf-8"?>
<svg xmlns="http://www.w3.org/2000/svg" viewBox="0 0 64 64" width="512" height="512">
  <linearGradient id="EEOdznRgQcFm6tzblODl7a" x1="32" x2="32" y1="7.755" y2="29.042" gradientUnits="userSpaceOnUse" spreadMethod="reflect">
    <stop offset="0" stop-color="#6dc7ff" />
    <stop offset="1" stop-color="#e6abff" />
  </linearGradient>
  <path fill="url(#EEOdznRgQcFm6tzblODl7a)" d="M29.753,9.698L8.086,24.459C7.407,24.922,7,25.692,7,26.515v0 c0,1.996,2.229,3.177,3.876,2.055l18.877-12.861c1.356-0.924,3.139-0.924,4.495,0L53.124,28.57C54.771,29.692,57,28.51,57,26.515v0 c0-0.823-0.407-1.593-1.086-2.055L34.247,9.698C32.891,8.774,31.109,8.774,29.753,9.698z" />
  <linearGradient id="EEOdznRgQcFm6tzblODl7b" x1="32" x2="32" y1="7.5" y2="56.655" gradientUnits="userSpaceOnUse" spreadMethod="reflect">
    <stop offset="0" stop-color="#1a6dff" />
    <stop offset="1" stop-color="#c822ff" />
  </linearGradient>
  <path fill="url(#EEOdznRgQcFm6tzblODl7b)" d="M56,48.005C56,46.902,55.103,46,54,46H38c-2.548,0-4.775,1.373-6,3.414 C30.775,47.373,28.548,46,26,46H10c-1.103,0-2,0.902-2,2.005V52H6v2h21c0,1,0.897,2,2,2h6c1.103,0,2-1,2-2h21v-2h-2V48.005z M27,52 H10v-4h16c2.757,0,5,2.248,5,5.005V54h-2C29,53,28.103,52,27,52z M35,54h-2v-0.995C33,50.248,35.243,48,38,48h16v4H37 C35.897,52,35,53,35,54z" />
  <linearGradient id="EEOdznRgQcFm6tzblODl7c" x1="32" x2="32" y1="7.505" y2="56.654" gradientUnits="userSpaceOnUse" spreadMethod="reflect">
    <stop offset="0" stop-color="#1a6dff" />
    <stop offset="1" stop-color="#c822ff" />
  </linearGradient>
  <path fill="url(#EEOdznRgQcFm6tzblODl7c)" d="M7.855,29.598c0.671,0.354,1.422,0.468,2.145,0.358V44h2V29.015l18.315-12.479 c1.023-0.695,2.347-0.695,3.368,0L52,29.014V44h2V29.962c0.172,0.026,0.345,0.04,0.519,0.04c0.557,0,1.114-0.134,1.626-0.404 C57.289,28.992,58,27.811,58,26.515c0-1.155-0.569-2.232-1.522-2.882L34.81,8.871c-1.707-1.164-3.912-1.164-5.619,0L7.523,23.633 C6.569,24.282,6,25.359,6,26.515C6,27.811,6.711,28.992,7.855,29.598z M8.649,25.285l21.666-14.762c1.023-0.695,2.347-0.695,3.368,0 l21.668,14.762C55.758,25.563,56,26.022,56,26.515c0,0.562-0.296,1.053-0.79,1.314c-0.494,0.26-1.063,0.229-1.522-0.085 L34.81,14.883c-0.854-0.582-1.831-0.872-2.81-0.872s-1.957,0.29-2.811,0.872L10.313,27.744c-0.462,0.315-1.028,0.347-1.523,0.085 C8.296,27.567,8,27.076,8,26.515C8,26.022,8.242,25.563,8.649,25.285z" />
  <linearGradient id="EEOdznRgQcFm6tzblODl7d" x1="32.5" x2="32.5" y1="7.5" y2="56.655" gradientUnits="userSpaceOnUse" spreadMethod="reflect">
    <stop offset="0" stop-color="#1a6dff" />
    <stop offset="1" stop-color="#c822ff" />
  </linearGradient>
  <path fill="url(#EEOdznRgQcFm6tzblODl7d)" d="M38,44V33.005C38,31.902,37.103,31,36,31h-7c-1.103,0-2,0.902-2,2.005V44h2v-7h7v7H38z M29,35 v-2h7v2H29z" />
  <linearGradient id="EEOdznRgQcFm6tzblODl7e" x1="44" x2="44" y1="7.5" y2="56.655" gradientUnits="userSpaceOnUse" spreadMethod="reflect">
    <stop offset="0" stop-color="#1a6dff" />
    <stop offset="1" stop-color="#c822ff" />
  </linearGradient>
  <path fill="url(#EEOdznRgQcFm6tzblODl7e)" d="M48,33c0-1.105-0.895-2-2-2h-4c-1.105,0-2,0.895-2,2v4c0,1.105,0.895,2,2,2h4 c1.105,0,2-0.895,2-2V33z M46,37h-4v-4h4V37z" />
  <linearGradient id="EEOdznRgQcFm6tzblODl7f" x1="21" x2="21" y1="7.5" y2="56.655" gradientUnits="userSpaceOnUse" spreadMethod="reflect">
    <stop offset="0" stop-color="#1a6dff" />
    <stop offset="1" stop-color="#c822ff" />
  </linearGradient>
  <path fill="url(#EEOdznRgQcFm6tzblODl7f)" d="M25,33c0-1.105-0.895-2-2-2h-4c-1.105,0-2,0.895-2,2v4c0,1.105,0.895,2,2,2h4 c1.105,0,2-0.895,2-2V33z M23,37h-4v-4h4V37z" />
</svg>