<?xml version="1.0" encoding="utf-8"?>
<svg xmlns="http://www.w3.org/2000/svg" viewBox="0 0 64 64" width="512" height="512">
  <linearGradient id="ONWHnU1j4tTQORaoKh7DKa" x1="38" x2="38" y1="46.875" y2="49.334" gradientUnits="userSpaceOnUse" spreadMethod="reflect">
    <stop offset="0" stop-color="#6dc7ff" />
    <stop offset="1" stop-color="#e6abff" />
  </linearGradient>
  <path fill="url(#ONWHnU1j4tTQORaoKh7DKa)" d="M33 47H43V49H33z" />
  <linearGradient id="ONWHnU1j4tTQORaoKh7DKb" x1="31" x2="31" y1="51" y2="53.222" gradientUnits="userSpaceOnUse" spreadMethod="reflect">
    <stop offset="0" stop-color="#6dc7ff" />
    <stop offset="1" stop-color="#e6abff" />
  </linearGradient>
  <path fill="url(#ONWHnU1j4tTQORaoKh7DKb)" d="M25 51H37V53H25z" />
  <linearGradient id="ONWHnU1j4tTQORaoKh7DKc" x1="38" x2="38" y1="13.813" y2="16.501" gradientUnits="userSpaceOnUse" spreadMethod="reflect">
    <stop offset="0" stop-color="#6dc7ff" />
    <stop offset="1" stop-color="#e6abff" />
  </linearGradient>
  <path fill="url(#ONWHnU1j4tTQORaoKh7DKc)" d="M33 14H43V16H33z" />
  <linearGradient id="ONWHnU1j4tTQORaoKh7DKd" x1="31" x2="31" y1="9.875" y2="12.156" gradientUnits="userSpaceOnUse" spreadMethod="reflect">
    <stop offset="0" stop-color="#6dc7ff" />
    <stop offset="1" stop-color="#e6abff" />
  </linearGradient>
  <path fill="url(#ONWHnU1j4tTQORaoKh7DKd)" d="M25 10H37V12H25z" />
  <linearGradient id="ONWHnU1j4tTQORaoKh7DKe" x1="32" x2="32" y1="9.375" y2="54.829" gradientUnits="userSpaceOnUse" spreadMethod="reflect">
    <stop offset="0" stop-color="#1a6dff" />
    <stop offset="1" stop-color="#c822ff" />
  </linearGradient>
  <path fill="url(#ONWHnU1j4tTQORaoKh7DKe)" d="M40,20h-8.638L21.31,11.623C20.053,10.576,18.461,10,16.827,10H14c-1.104,0-2,0.897-2,2v8h-2 v3.382l-4-2v21.236l4-2V44h2v8c0,1.103,0.897,2,2,2h2.826c1.635,0,3.227-0.576,4.483-1.623L31.362,44H40c6.162,0,18-5.067,18-12 S46.163,20,40,20z M16.827,12c1.168,0,2.306,0.412,3.202,1.16L23.437,16H14v-4H16.827z M14,18h11.836l2.4,2H14V18z M8,39.382V24.618 l2,1v12.764L8,39.382z M20.029,50.84C19.132,51.588,17.995,52,16.827,52H14v-4h9.437L20.029,50.84z M25.836,46H14v-2h14.237 L25.836,46z M40,42H16v-5h-2v5h-2V22h2v5h2v-5h24c6.019,0,16,4.844,16,10S46.019,42,40,42z" />
  <linearGradient id="ONWHnU1j4tTQORaoKh7DKf" x1="22" x2="22" y1="9.375" y2="54.829" gradientUnits="userSpaceOnUse" spreadMethod="reflect">
    <stop offset="0" stop-color="#1a6dff" />
    <stop offset="1" stop-color="#c822ff" />
  </linearGradient>
  <path fill="url(#ONWHnU1j4tTQORaoKh7DKf)" d="M27,29H14v6h13c1.654,0,3-1.346,3-3S28.655,29,27,29z M27,33H16v-2h11c0.552,0,1,0.448,1,1 S27.552,33,27,33z" />
  <linearGradient id="ONWHnU1j4tTQORaoKh7DKg" x1="45.5" x2="45.5" y1="9.375" y2="54.829" gradientUnits="userSpaceOnUse" spreadMethod="reflect">
    <stop offset="0" stop-color="#1a6dff" />
    <stop offset="1" stop-color="#c822ff" />
  </linearGradient>
  <path fill="url(#ONWHnU1j4tTQORaoKh7DKg)" d="M40,24h-2v16h2c5.176,0,13-3.19,13-8S45.176,24,40,24z M40,38V26h0.001 C40.644,26,41,26.06,42,26.164v11.673C41,37.94,40.644,38,40,38L40,38z M44,37.403V26.597c4,1.015,7.001,3.189,7.001,5.403 S48,36.388,44,37.403z" />
  <linearGradient id="ONWHnU1j4tTQORaoKh7DKh" x1="22" x2="22" y1="30.938" y2="33.097" gradientUnits="userSpaceOnUse" spreadMethod="reflect">
    <stop offset="0" stop-color="#6dc7ff" />
    <stop offset="1" stop-color="#e6abff" />
  </linearGradient>
  <path fill="url(#ONWHnU1j4tTQORaoKh7DKh)" d="M16,33v-2h11c0.552,0,1,0.448,1,1v0c0,0.552-0.448,1-1,1H16z" />
</svg>