<?xml version="1.0" encoding="utf-8"?>
<svg xmlns="http://www.w3.org/2000/svg" viewBox="0 0 64 64" width="512" height="512">
  <linearGradient id="9c94d0SjUFhU5tCoje1Gxa" x1="32" x2="32" y1="5.25" y2="59.239" gradientUnits="userSpaceOnUse" spreadMethod="reflect">
    <stop offset="0" stop-color="#1a6dff" />
    <stop offset="1" stop-color="#c822ff" />
  </linearGradient>
  <path fill="url(#9c94d0SjUFhU5tCoje1Gxa)" d="M56.001,9L56.001,9C56,7.346,54.654,6,53,6s-3,1.346-3,3v4h-2.138 c-0.208-0.808-0.656-1.54-1.315-2.084c-0.923-0.763-2.137-1.063-3.329-0.842c-1.501,0.289-2.658,1.451-3.056,2.926h-3.161 c0-2.757-2.243-5-5-5s-5,2.243-5,5H23.9c-0.194-0.854-0.664-1.626-1.354-2.197c-0.922-0.762-2.136-1.069-3.328-0.84 c-1.539,0.296-2.717,1.51-3.085,3.037H14V9c0-1.654-1.346-3-3-3S8,7.346,8,9l0,0c-1.103,0-2,0.898-2,2v6c0,1.102,0.897,2,2,2l0,0 c0,1.654,1.346,3,3,3s3-1.346,3-3v-4h2v8c0,2.757,2.244,5,5.001,5H28v9.804L7.853,50.625c-0.901,0.574-1.525,1.464-1.757,2.507 c-0.231,1.044-0.043,2.114,0.53,3.016C7.366,57.308,8.628,58,10.004,58c0.76,0,1.501-0.216,2.145-0.625L33.167,44H38v9.83 c0,2.223,1.662,4.052,3.786,4.165C41.859,57.998,41.93,58,42.002,58c1.03,0,2.001-0.386,2.752-1.1C45.546,56.149,46,55.092,46,54V41 c0-2.757-2.242-5-4.999-5H36v-8h7.001C45.758,28,48,25.757,48,23v-8h2v4c0,1.654,1.346,3,3,3s3-1.346,3-3h0.001 C57.104,19,58,18.103,58,17v-6C58,9.897,57.104,9,56.001,9z M12,19c0,0.552-0.448,1-1,1s-1-0.448-1-1V9c0-0.552,0.448-1,1-1 s1,0.448,1,1V19z M32.001,10c1.654,0,3,1.346,3,3s-1.346,3-3,3s-3-1.346-3-3S30.347,10,32.001,10z M27.425,15 c0.774,1.763,2.531,3,4.576,3s3.802-1.237,4.576-3H40v5H24v-5H27.425z M11.075,55.688c-0.906,0.575-2.189,0.284-2.761-0.614 c-0.593-0.93-0.317-2.169,0.613-2.761l19.202-12.219c0.31,1.381,1.197,2.532,2.389,3.221L11.075,55.688z M46,23 c0,1.654-1.345,3-2.999,3H34v12h7.001C42.655,38,44,39.346,44,41v13c0,0.554-0.222,1.069-0.623,1.45 c-0.402,0.383-0.935,0.576-1.486,0.547C40.849,55.942,40,54.97,40,53.83V44c0-1.103-0.896-2-1.999-2h-5C31.347,42,30,40.654,30,39 V26h-8.999C19.347,26,18,24.654,18,23v-8v-1c0-1.007,0.686-1.898,1.595-2.072c0.138-0.026,0.274-0.04,0.408-0.04 c0.466,0,0.906,0.157,1.269,0.457C21.735,12.727,22,13.29,22,13.889V20c0,1.103,0.898,2,2.001,2h16C41.104,22,42,21.103,42,20 v-5.889c0-1.007,0.686-1.898,1.595-2.072c0.612-0.115,1.21,0.031,1.679,0.418C45.735,12.839,46,13.401,46,14V23z M54,19 c0,0.552-0.448,1-1,1s-1-0.448-1-1V9c0-0.552,0.448-1,1-1s1,0.448,1,1V19z" />
  <linearGradient id="9c94d0SjUFhU5tCoje1Gxb" x1="32.001" x2="32.001" y1="9.625" y2="16.125" gradientUnits="userSpaceOnUse" spreadMethod="reflect">
    <stop offset="0" stop-color="#6dc7ff" />
    <stop offset="1" stop-color="#e6abff" />
  </linearGradient>
  <path fill="url(#9c94d0SjUFhU5tCoje1Gxb)" d="M32.001 10A3 3 0 1 0 32.001 16A3 3 0 1 0 32.001 10Z" />
  <linearGradient id="9c94d0SjUFhU5tCoje1Gxc" x1="11" x2="11" y1="9.625" y2="16.125" gradientUnits="userSpaceOnUse" spreadMethod="reflect">
    <stop offset="0" stop-color="#6dc7ff" />
    <stop offset="1" stop-color="#e6abff" />
  </linearGradient>
  <path fill="url(#9c94d0SjUFhU5tCoje1Gxc)" d="M12,19c0,0.552-0.448,1-1,1h0c-0.552,0-1-0.448-1-1V9c0-0.552,0.448-1,1-1h0 c0.552,0,1,0.448,1,1V19z" />
  <linearGradient id="9c94d0SjUFhU5tCoje1Gxd" x1="53" x2="53" y1="9.625" y2="16.125" gradientUnits="userSpaceOnUse" spreadMethod="reflect">
    <stop offset="0" stop-color="#6dc7ff" />
    <stop offset="1" stop-color="#e6abff" />
  </linearGradient>
  <path fill="url(#9c94d0SjUFhU5tCoje1Gxd)" d="M54,19c0,0.552-0.448,1-1,1l0,0c-0.552,0-1-0.448-1-1V9c0-0.552,0.448-1,1-1l0,0 c0.552,0,1,0.448,1,1V19z" />
</svg>