<?xml version="1.0" encoding="utf-8"?>
<svg xmlns="http://www.w3.org/2000/svg" viewBox="0 0 30 30" width="480" height="480">
  <path d="M4 3L4 6L3.5 6 A 0.50005 0.50005 0 1 0 3.5 7L4 7L4 10L7 10L7 7L8.1796875 7L9.0195312 11.195312 A 1.0001 1.0001 0 0 0 9.1523438 11.529297L9.3984375 11.921875L11.373047 15.449219L12.390625 19L9.3183594 22.679688L4.6679688 25.056641L4.6289062 25.072266 A 1.0001 1.0001 0 1 0 5.3710938 26.927734L10.371094 24.927734 A 1.0001 1.0001 0 0 0 10.554688 24.832031L10.587891 24.808594L16.001953 22L19.265625 22.035156L20 25.927734L20 26 A 1.0001 1.0001 0 1 0 22 26L22 20.5625 A 1.0001 1.0001 0 0 0 21.212891 19.585938L18.033203 18.599609L18.669922 15.697266L20.689453 11.78125L20.847656 11.529297 A 1.0001 1.0001 0 0 0 20.980469 11.195312L21.820312 7L23 7L23 10L26 10L26 7L26.5 7 A 0.50005 0.50005 0 1 0 26.5 6L26 6L26 3L23 3L23 6L22.001953 6 A 1.0001 1.0001 0 0 0 20.984375 4.9863281 A 1.0001 1.0001 0 0 0 20.019531 5.8046875L19.980469 6L10.019531 6L9.9804688 5.8046875 A 1.0001 1.0001 0 0 0 8.984375 4.9863281 A 1.0001 1.0001 0 0 0 7.9980469 6L7 6L7 3L4 3 z M 10.234375 7L19.765625 7L18.785156 10.644531L16.494141 13.998047L15.001953 13.994141 A 1.0001 1.0001 0 0 0 15 13.994141 A 1.0001 1.0001 0 0 0 14.998047 13.994141L13.591797 13.996094L11.232422 10.603516L10.234375 7 z M 15 8 A 2 2 0 0 0 13 10 A 2 2 0 0 0 15 12 A 2 2 0 0 0 17 10 A 2 2 0 0 0 15 8 z" fill="#5B5B5B" />
</svg>