<?xml version="1.0" encoding="utf-8"?>
<svg xmlns="http://www.w3.org/2000/svg" viewBox="0 0 64 64" width="512" height="512">
  <linearGradient id="zbOH4334Bi9L2UK6q1oUxa" x1="27" x2="27" y1="7.5" y2="50.154" gradientUnits="userSpaceOnUse" spreadMethod="reflect">
    <stop offset="0" stop-color="#1a6dff" />
    <stop offset="1" stop-color="#c822ff" />
  </linearGradient>
  <path fill="url(#zbOH4334Bi9L2UK6q1oUxa)" d="M8,47V22h38v13h2V15c0-1.654-1.346-3-3-3h-3v-1c0-1.654-1.346-3-3-3h-4c-1.654,0-3,1.346-3,3 v1h-8v-1c0-1.654-1.346-3-3-3h-4c-1.654,0-3,1.346-3,3v1H9c-1.654,0-3,1.346-3,3v32c0,1.654,1.346,3,3,3h29v-2H9 C8.448,48,8,47.552,8,47z M34,11c0-0.552,0.448-1,1-1h4c0.552,0,1,0.448,1,1v4c0,0.552-0.448,1-1,1h-4c-0.552,0-1-0.448-1-1V11z M16,11c0-0.552,0.448-1,1-1h4c0.552,0,1,0.448,1,1v4c0,0.552-0.448,1-1,1h-4c-0.552,0-1-0.448-1-1V11z M9,14h5v1 c0,1.654,1.346,3,3,3h4c1.654,0,3-1.346,3-3v-1h8v1c0,1.654,1.346,3,3,3h4c1.654,0,3-1.346,3-3v-1h3c0.552,0,1,0.448,1,1v5H8v-5 C8,14.448,8.448,14,9,14z" />
  <linearGradient id="zbOH4334Bi9L2UK6q1oUxb" x1="27" x2="27" y1="7.5" y2="50.154" gradientUnits="userSpaceOnUse" spreadMethod="reflect">
    <stop offset="0" stop-color="#1a6dff" />
    <stop offset="1" stop-color="#c822ff" />
  </linearGradient>
  <path fill="url(#zbOH4334Bi9L2UK6q1oUxb)" d="M12 44L38 44 38 42 14 42 14 28 40 28 40 37 42 37 42 26 12 26z" />
  <linearGradient id="zbOH4334Bi9L2UK6q1oUxc" x1="48.5" x2="48.5" y1="7.5" y2="50.154" gradientUnits="userSpaceOnUse" spreadMethod="reflect">
    <stop offset="0" stop-color="#1a6dff" />
    <stop offset="1" stop-color="#c822ff" />
  </linearGradient>
  <path fill="url(#zbOH4334Bi9L2UK6q1oUxc)" d="M53,44h-3.184c-0.302-0.847-0.969-1.514-1.816-1.816V39h-2v3.184 c-1.162,0.415-2,1.514-2,2.816c0,1.654,1.346,3,3,3c1.302,0,2.401-0.838,2.816-2H53V44z M47,46c-0.552,0-1-0.448-1-1s0.448-1,1-1 s1,0.448,1,1S47.552,46,47,46z" />
  <linearGradient id="zbOH4334Bi9L2UK6q1oUxd" x1="47" x2="47" y1="33.75" y2="56.25" gradientUnits="userSpaceOnUse" spreadMethod="reflect">
    <stop offset="0" stop-color="#6dc7ff" />
    <stop offset="1" stop-color="#e6abff" />
  </linearGradient>
  <path fill="url(#zbOH4334Bi9L2UK6q1oUxd)" d="M47,56c-6.065,0-11-4.935-11-11s4.935-11,11-11s11,4.935,11,11S53.065,56,47,56z M47,36 c-4.963,0-9,4.037-9,9s4.037,9,9,9s9-4.037,9-9S51.963,36,47,36z" />
  <linearGradient id="zbOH4334Bi9L2UK6q1oUxe" x1="19" x2="19" y1="29.75" y2="36.755" gradientUnits="userSpaceOnUse" spreadMethod="reflect">
    <stop offset="0" stop-color="#6dc7ff" />
    <stop offset="1" stop-color="#e6abff" />
  </linearGradient>
  <path fill="url(#zbOH4334Bi9L2UK6q1oUxe)" d="M16 30H22V36H16z" />
</svg>