<?xml version="1.0" encoding="utf-8"?>
<svg xmlns="http://www.w3.org/2000/svg" viewBox="0 0 64 64" width="512" height="512">
  <linearGradient id="Ma4rTXUBzcrOt1bRONI~Ga" x1="32" x2="32" y1="5.5" y2="58.334" gradientUnits="userSpaceOnUse" spreadMethod="reflect">
    <stop offset="0" stop-color="#1a6dff" />
    <stop offset="1" stop-color="#c822ff" />
  </linearGradient>
  <path fill="url(#Ma4rTXUBzcrOt1bRONI~Ga)" d="M55,29c-1.302,0-2.402,0.838-2.816,2h-2.235C49.444,21.874,42.126,14.556,33,14.051v-2.235 c1.162-0.415,2-1.514,2-2.816c0-1.654-1.346-3-3-3s-3,1.346-3,3c0,1.302,0.838,2.401,2,2.815v2.235 C21.874,14.556,14.556,21.874,14.051,31h-2.235c-0.414-1.162-1.514-2-2.816-2c-1.654,0-3,1.346-3,3s1.346,3,3,3 c1.302,0,2.402-0.838,2.816-2h2.235C14.556,42.126,21.874,49.444,31,49.949v2.235c-1.162,0.415-2,1.514-2,2.816c0,1.654,1.346,3,3,3 s3-1.346,3-3c0-1.302-0.838-2.401-2-2.816v-2.235C42.126,49.444,49.444,42.126,49.949,33h2.235c0.414,1.162,1.514,2,2.816,2 c1.654,0,3-1.346,3-3S56.654,29,55,29z M32,8c0.552,0,1,0.448,1,1s-0.448,1-1,1s-1-0.448-1-1S31.448,8,32,8z M9,33 c-0.552,0-1-0.448-1-1s0.448-1,1-1s1,0.448,1,1S9.552,33,9,33z M32,56c-0.552,0-1-0.448-1-1s0.448-1,1-1s1,0.448,1,1 S32.552,56,32,56z M37.118,47.146c2.556-2.01,4.556-4.687,5.729-7.792l-1.871-0.707c-1.45,3.841-4.318,6.953-7.976,8.733V39h-2v8.38 c-3.659-1.782-6.529-4.896-7.978-8.738l-1.871,0.705c1.171,3.107,3.172,5.787,5.73,7.799C20.565,45.004,16,39.031,16,32 s4.565-13.004,10.882-15.146c-2.556,2.01-4.557,4.688-5.728,7.793l1.871,0.707c1.45-3.842,4.318-6.954,7.976-8.734V25h2v-8.38 c3.659,1.782,6.528,4.896,7.978,8.738l1.871-0.705c-1.172-3.108-3.173-5.788-5.731-7.799C43.435,18.996,48,24.969,48,32 C48,39.031,43.435,45.004,37.118,47.146z M55,33c-0.552,0-1-0.448-1-1s0.448-1,1-1s1,0.448,1,1S55.552,33,55,33z" />
  <linearGradient id="Ma4rTXUBzcrOt1bRONI~Gb" x1="24" x2="24" y1="26" y2="38.003" gradientUnits="userSpaceOnUse" spreadMethod="reflect">
    <stop offset="0" stop-color="#6dc7ff" />
    <stop offset="1" stop-color="#e6abff" />
  </linearGradient>
  <path fill="url(#Ma4rTXUBzcrOt1bRONI~Gb)" d="M25.5,28h-3c-0.827,0-1.5,0.673-1.5,1.5v5c0,0.827,0.673,1.5,1.5,1.5h3 c0.827,0,1.5-0.673,1.5-1.5V33h-2v1h-2v-4h2v1h2v-1.5C27,28.673,26.327,28,25.5,28z" />
  <linearGradient id="Ma4rTXUBzcrOt1bRONI~Gc" x1="32" x2="32" y1="26" y2="38.003" gradientUnits="userSpaceOnUse" spreadMethod="reflect">
    <stop offset="0" stop-color="#6dc7ff" />
    <stop offset="1" stop-color="#e6abff" />
  </linearGradient>
  <path fill="url(#Ma4rTXUBzcrOt1bRONI~Gc)" d="M33.5,28h-3c-0.827,0-1.5,0.673-1.5,1.5v5c0,0.827,0.673,1.5,1.5,1.5h3 c0.827,0,1.5-0.673,1.5-1.5v-5C35,28.673,34.327,28,33.5,28z M33,34h-2v-4h2V34z" />
  <linearGradient id="Ma4rTXUBzcrOt1bRONI~Gd" x1="40" x2="40" y1="26" y2="38.003" gradientUnits="userSpaceOnUse" spreadMethod="reflect">
    <stop offset="0" stop-color="#6dc7ff" />
    <stop offset="1" stop-color="#e6abff" />
  </linearGradient>
  <path fill="url(#Ma4rTXUBzcrOt1bRONI~Gd)" d="M42.259,28.376c-0.452-0.187-0.966-0.083-1.31,0.261L40,30.11l-0.808-1.296l-0.142-0.178 c-0.344-0.344-0.857-0.447-1.31-0.261C37.291,28.563,37,28.998,37,29.485V36h2v-3.714l1,1.604l1-1.604V36h2v-6.515 C43,28.998,42.709,28.563,42.259,28.376z" />
  <linearGradient id="Ma4rTXUBzcrOt1bRONI~Ge" x1="18.932" x2="18.932" y1="5.5" y2="58.334" gradientUnits="userSpaceOnUse" spreadMethod="reflect">
    <stop offset="0" stop-color="#1a6dff" />
    <stop offset="1" stop-color="#c822ff" />
  </linearGradient>
  <path fill="url(#Ma4rTXUBzcrOt1bRONI~Ge)" d="M12.571,36.767l-1.943,0.475c1.955,7.996,8.137,14.177,16.133,16.131l0.475-1.943 C19.967,49.653,14.348,44.035,12.571,36.767z" />
  <linearGradient id="Ma4rTXUBzcrOt1bRONI~Gf" x1="45.068" x2="45.068" y1="5.5" y2="58.334" gradientUnits="userSpaceOnUse" spreadMethod="reflect">
    <stop offset="0" stop-color="#1a6dff" />
    <stop offset="1" stop-color="#c822ff" />
  </linearGradient>
  <path fill="url(#Ma4rTXUBzcrOt1bRONI~Gf)" d="M36.763,51.43l0.475,1.943c7.999-1.954,14.182-8.137,16.136-16.136l-1.943-0.475 C49.654,44.034,44.034,49.654,36.763,51.43z" />
  <linearGradient id="Ma4rTXUBzcrOt1bRONI~Gg" x1="45.071" x2="45.071" y1="5.5" y2="58.334" gradientUnits="userSpaceOnUse" spreadMethod="reflect">
    <stop offset="0" stop-color="#1a6dff" />
    <stop offset="1" stop-color="#c822ff" />
  </linearGradient>
  <path fill="url(#Ma4rTXUBzcrOt1bRONI~Gg)" d="M51.429,27.233l1.943-0.475c-1.954-7.993-8.134-14.173-16.127-16.13l-0.475,1.943 C44.036,14.351,49.652,19.968,51.429,27.233z" />
  <linearGradient id="Ma4rTXUBzcrOt1bRONI~Gh" x1="18.932" x2="18.932" y1="5.5" y2="58.334" gradientUnits="userSpaceOnUse" spreadMethod="reflect">
    <stop offset="0" stop-color="#1a6dff" />
    <stop offset="1" stop-color="#c822ff" />
  </linearGradient>
  <path fill="url(#Ma4rTXUBzcrOt1bRONI~Gh)" d="M27.237,12.57l-0.475-1.943c-7.999,1.955-14.182,8.138-16.136,16.136l1.943,0.475 C14.346,19.967,19.966,14.347,27.237,12.57z" />
</svg>